<svg id="Calque_1" xmlns="http://www.w3.org/2000/svg" viewBox="0 0 54.9 33.3"><style>.st0{fill:#282828;} .st1{fill:#FFFFFF;} .st2{opacity:0.7;fill:#6FBAFA;} .st3{opacity:0.7;fill:#6565DB;} .st4{opacity:0.7;fill:#D866A9;} .st5{opacity:0.7;fill:#EFDC52;} .st6{fill:#111111;}</style><title>Plan de travail 1</title><path class="st0" d="M20.9 30.5l-2.2-3.8 5.8-2.3 5.7 2.3-2.2 3.8zM17 30.5h14.8V32H17z"/><path class="st0" d="M3.5.8h39.9c.8 0 1.4.6 1.4 1.4v24.2c0 .8-.6 1.4-1.4 1.4H3.5c-.8 0-1.4-.6-1.4-1.4V2.2C2 1.4 2.7.8 3.5.8z"/><path class="st1" d="M4.6 4.1h37.5v20.3H4.6z"/><path class="st2" d="M5.9 4.9h34.8v2.3H5.9z"/><path class="st3" d="M5.9 8.4h9.4v14.4H5.9z"/><path class="st4" d="M16.7 8.4h24v7.2h-24z"/><path class="st5" d="M16.7 16.6h24v6.2h-24z"/><path class="st6" d="M37.1 12.8h11.8c.6 0 1 .4 1 1V31c0 .6-.4 1-1 1H37.1c-.6 0-1-.4-1-1V13.8c0-.5.5-1 1-1z"/><path class="st1" d="M37.4 14.4h11.2v15.8H37.4z"/><path class="st4" d="M38.6 15.5h8.7v4.9h-8.7z"/><path class="st5" d="M38.6 21.6h8.7v4.9h-8.7z"/><path class="st3" d="M38.6 27.7h8.7v1.5h-8.7z"/><path class="st6" d="M53.6 28v3.2c0 .6-.4 1-1 1h-6.8c-.6 0-1-.4-1-1V28c0-.6.4-1 1-1h6.8c.5 0 1 .4 1 1z"/><path class="st1" d="M46 27.6h6.5v3.9H46z"/><path class="st4" d="M46.7 28.2h5.2v2.7h-5.2z"/></svg>