<svg id="Calque_1" xmlns="http://www.w3.org/2000/svg" viewBox="0 0 54.9 33.3"><style>.st0{fill:#282828;} .st1{fill:#FFFFFF;} .st2{opacity:0.7;fill:#BD40DB;} .st3{opacity:0.7;} .st4{fill:#F9BF30;} .st5{fill:#6FBAFA;}</style><title>Plan de travail 1</title><path class="st0" d="M5 1.4h45c.9 0 1.6.7 1.6 1.6v27.3c0 .9-.7 1.6-1.6 1.6H5c-.9 0-1.6-.7-1.6-1.6V3c0-.9.7-1.6 1.6-1.6z"/><path class="st1" d="M6.2 5.2h42.3v22.9H6.2z"/><path class="st2" d="M8.6 7H46v3.3H8.6z"/><g class="st3"><path class="st4" d="M27.5 21.4l-4.7-2.1 4.2-3 .4-.3c-1.1-1.6-2.9-2.7-5-2.7-3.3 0-5.9 2.7-5.9 5.9 0 3.3 2.7 5.9 5.9 5.9 2.4 0 4.5-1.5 5.4-3.6l-.3-.1z"/><path class="st5" d="M34.9 18l-.6-5.1-3.7 2.7-.4.3L26 19l4.7 2.1.3.1 4.4 1.9z"/></g></svg>