<svg xmlns="http://www.w3.org/2000/svg" viewBox="0 0 340 195.3"><title>Plan de travail 1</title><path d="M34.6 79.3h-.2c.8-3.2-1.4-4-1.5-4.1l.1-.2s2.4 1 1.6 4.3z"/><path d="M-14.6 159.7h-.2c0-.3 1.9-25.5 7.6-34.6 6.1-9.6 13.7-19.8 17.7-25.1 3.8-5 13.3-15.3 19.1-21.5 1.2-1.3 2.3-2.4 3.1-3.3 5-5.5 25.4-30.8 31.9-42 7-12.3 22.4-41.1 24.1-46.7 1.7-5.7 3.3-9.7 3.3-9.8l.2.1s-1.5 4-3.3 9.8c-1.8 6-18 36.1-24.1 46.8C58.3 44.7 37.9 70 32.9 75.5c-.8.9-1.9 2-3.1 3.3-5.7 6.2-15.3 16.5-19 21.5-4 5.2-11.6 15.5-17.7 25.1-5.7 8.8-7.6 34-7.7 34.3z"/><path d="M-3 152.4c0-.2-.1-16.3 5.1-25.1 5.2-8.6 20.5-29.2 22.8-31.3 2.2-2 34.4-40.5 38.8-46 4.9-6.2 20.4-32.7 24.4-41.4 1.4-2.9 2.7-6 3.9-8.9C94.4-6.1 96.5-11 98.4-13l.1.1C96.7-11 94.6-6 92.2-.3c-1.2 3-2.5 6-3.9 9-4 8.6-19.6 35.2-24.4 41.4-4.9 6.2-36.6 44-38.8 46.1-2.3 2.1-17.6 22.6-22.8 31.2-5.2 8.7-5.1 24.8-5.1 25H-3z"/><path d="M-4.1 134.9l-.2-.1s1.5-2.3 3.9-1.4l-.1.2c-2.1-.8-3.5 1.2-3.6 1.3z"/><path d="M-5.1 134.4l-.2-.1s2.2-3.4 5.4-2.2l-.1.3c-3-1.2-5.1 2-5.1 2zM-2.2 131.4l-.1-.1s1.7-1.4 2.9-.2l-.1.1c-1.2-1.1-2.7.2-2.7.2zM-3 130.7l-.1-.1c.1-.1 2.7-2.3 4.2-1l-.1.1c-1.4-1.2-3.9 1-4 1z"/><path d="M-4.1 130.3l-.1-.2.1-.1c.9-1 3.3-3.2 5.7-1.6l-.1.2c-2.3-1.5-4.6.6-5.5 1.6 0 .1 0 .1-.1.1zM2 127.6c-.8-1.2-3-.3-3-.3l-.1-.2c.1 0 2.3-.9 3.2.3l-.1.2z"/><path d="M-1.6 126.8l-.1-.1s2.4-2.1 4.6-.3l-.1.1c-2.1-1.7-4.3.2-4.4.3z"/><path d="M-2.4 126.2l-.1-.1s3.4-3 5.9-.6l-.1.1c-2.4-2.3-5.6.6-5.7.6z"/><path d="M.6 124.7c-.3-1.1-.8-1.7-1.5-2-.8-.3-1.9 0-3.2.9l-.1-.2c1.4-.9 2.5-1.3 3.3-1 .7.3 1.3 1 1.6 2.1l-.1.2z"/><path d="M4.1 124.4c-1.2-1.8-3.6-.5-3.7-.5l-.1-.2s2.6-1.4 3.9.6l-.1.1z"/><path d="M0 123.2l-.1-.2c.1-.1 2.2-1.6 3.8-1.2.6.1 1.1.5 1.4 1.2H5c-.3-.6-.7-.9-1.3-1.1-1.6-.3-3.7 1.3-3.7 1.3z"/><path d="M.9 122.4c-.5-1.3-1.6-.9-1.7-.8l-.1-.2s1.3-.5 1.9.9l-.1.1zM2.2 121.9c-.7-2.1-3.3-1.3-3.4-1.3l-.1-.2s2.9-.9 3.6 1.4l-.1.1z"/><path d="M3.5 121.9c-.3-1.3-.9-2.1-1.8-2.5-1.6-.7-3.7.6-3.7.6l-.1-.2c.1-.1 2.2-1.3 3.9-.6.9.4 1.6 1.3 1.9 2.6l-.2.1z"/><path d="M.7 119H.5c.1-1.8-1.9-2-2-2v-.2c.1 0 2.3.3 2.2 2.2zM1.8 119.3l-.2-.1c.7-2.5-2.1-3.5-2.2-3.5l.1-.2s3.1 1.1 2.3 3.8zM5.7 122c-.6-1.4-2.2-1-2.3-1v-.2s1.9-.4 2.5 1.1l-.2.1zM6.3 121c-.1-.4-.4-.7-.8-.9-1-.5-2.6.1-2.6.1l-.1-.2c.1 0 1.7-.6 2.8-.1.4.2.7.5.9 1l-.2.1zM7.1 119.9c-1.8-2.3-4.8-.3-4.8-.3l-.1-.2s3.2-2.1 5.1.3l-.2.2z"/><path d="M3.2 119H3c0-.2-.1-.4-.2-.5-.3-.3-.9-.1-.9-.1l-.1-.2s.7-.2 1.1.1c.2.2.3.4.3.7zM4.1 118.8c-.2-.7-.5-1.1-.9-1.4-.7-.4-1.6-.1-1.6-.1l-.1-.2s1-.3 1.8.1c.5.3.8.8 1 1.5l-.2.1z"/><path d="M5.5 118.8c-.2-1.3-.6-2.2-1.4-2.6-1.4-.7-3.3.2-3.3.2l-.1-.2c.1 0 2-1 3.5-.2.8.5 1.4 1.4 1.5 2.7l-.2.1z"/><path d="M1.7 115.9c-.1-.5-.4-.8-.7-1-.5-.2-1.1 0-1.1 0l-.1-.2s.6-.3 1.2 0c.4.2.7.5.8 1.1l-.1.1zM2.9 115.8c-.1-.8-.3-1.3-.8-1.6-.7-.5-1.5-.3-1.5-.3v-.2s1-.2 1.7.3c.5.4.8.9.9 1.8h-.3zM4.4 116.2h-.2c.1-1.2-.1-2.1-.7-2.7-.8-.9-2-.9-2-.9v-.2c.1 0 1.3 0 2.1.9.6.7.9 1.7.8 2.9zM7.8 118.8c-.7-1.6-2.4-1-2.5-1l-.1-.2s1.9-.6 2.7 1.1l-.1.1zM8.7 117.6c-1.4-2.1-3.7-.7-3.8-.6l-.1-.2s2.6-1.6 4.1.6l-.2.2z"/><path d="M9.4 116.6c-.7-.8-1.4-1.3-2.3-1.4-1.5-.1-2.7 1-2.8 1l-.1-.1c.1 0 1.3-1.2 2.9-1.1.9.1 1.7.6 2.4 1.4l-.1.2z"/><path d="M5.4 115.4c-.1-.3-.3-.5-.5-.6-.3-.1-.6.1-.6.1l-.1-.2s.4-.2.7-.1c.3.1.5.3.6.7l-.1.1zM6.7 115.1c-.1-.8-.4-1.3-.8-1.5-.8-.4-2 .2-2 .2l-.1-.2c.1 0 1.3-.7 2.2-.2.5.3.8.8.9 1.7h-.2z"/><path d="M8.2 115.5c-.3-1.6-.9-2.6-1.8-3-1.6-.7-3.6.5-3.6.5l-.1-.2c.1-.1 2.1-1.3 3.8-.6 1 .4 1.6 1.5 1.9 3.2l-.2.1z"/><path d="M3.4 112.5s-.1-.7-.4-1c-.2-.1-.3-.1-.6-.1l-.1-.2c.3-.1.5 0 .7.1.5.3.5 1.1.5 1.2h-.1zM10 115.7c-.1-.4-.3-.7-.6-.8-.5-.3-1.2 0-1.2 0l-.1-.2s.8-.3 1.4 0c.3.2.5.5.7.9l-.2.1zM10.8 114.7c-.1-.4-.3-.6-.6-.8-.9-.5-2.2 0-2.2 0l-.1-.2c.1 0 1.4-.5 2.4 0 .4.2.6.5.7.9l-.2.1zM11.8 113.2c-.2-.6-.6-.9-1.1-1.1-1.4-.5-3.5.6-3.5.6l-.1-.2c.1 0 2.1-1.2 3.6-.6.6.2 1 .6 1.3 1.2l-.2.1zM4.7 112.1c-.2-1.7-1.6-1.7-1.6-1.7v-.2s1.6 0 1.8 1.9h-.2zM6.4 112.3h-.2c.2-2.4-2.2-3-2.3-3.1l.1-.2s2.7.8 2.4 3.3z"/><path d="M8 112.2c0-.4-.1-.7-.4-.9-.5-.3-1.3-.1-1.3-.1l-.1-.2s.9-.3 1.5.1c.3.2.5.6.5 1l-.2.1z"/><path d="M9.7 111.9h-.2c0-.8-.2-1.4-.7-1.7-1.1-.7-3 .1-3 .1l-.1-.2c.1 0 2.1-.9 3.2-.1.5.4.8 1 .8 1.9z"/><path d="M11 112.1l-.2-.1c.4-.7-.1-2.5-1.2-3.2-2.2-1.3-4.5.8-4.6.8l-.1-.1s2.5-2.2 4.8-.8c1.2.8 1.7 2.6 1.3 3.4z"/><path d="M5.9 108.8c-.1-.7-1.1-.7-1.1-.7v-.2c.4 0 1.2.1 1.3.9h-.2zM7 108.4c-.1-1.2-1.4-1.2-1.5-1.2v-.2s1.6.1 1.7 1.4H7zM8.3 108.3c-.2-.9-.5-1.5-1-1.8-.6-.4-1.2-.3-1.2-.3v-.2s.7-.1 1.3.3c.5.4.9 1 1.1 1.9l-.2.1zM12.6 112c-.2-.9-1.6-.7-1.6-.7v-.2s1.5-.2 1.8.9h-.2zM13.4 111c-.5-1.2-2.6-.8-2.6-.8v-.2c.1 0 2.3-.5 2.9.9l-.3.1zM14.4 109.8c-1.1-1.5-4.1-.4-4.1-.4l-.1-.2c.1 0 3.1-1.1 4.3.5l-.1.1z"/><path d="M11.4 109c-.1-.6-.4-1-.9-1.2-.9-.5-2.2-.1-2.2-.1l-.1-.2c.1 0 1.3-.5 2.3.1.5.3.8.7 1 1.3l-.1.1z"/><path d="M12.6 108.9s-.2-1.9-1.4-2.6c-.8-.4-2-.3-3.3.5l-.1-.2c1.4-.8 2.6-1 3.5-.5 1.4.7 1.5 2.7 1.5 2.7l-.2.1z"/><path d="M14.2 109.4H14s.1-3-1.9-4.2c-2.4-1.3-4.9 1.2-4.9 1.2l-.2-.2s2.6-2.6 5.1-1.2c2.2 1.3 2.1 4.3 2.1 4.4z"/><path d="M7.9 105.5c0-.1-.1-.2-.2-.3-.3-.2-.7 0-.7 0l-.1-.2s.5-.1.9.1c.2.1.2.2.3.4h-.2zM9 104.9c-.1-.4-.3-.7-.5-.8-.3-.2-.6-.1-.6-.1l-.1-.2s.4-.1.8.1c.3.2.5.5.6.9l-.2.1zM10.5 104.7c-.6-2.1-1.7-2-1.7-2v-.2c.1 0 1.3-.1 1.9 2.1l-.2.1zM15.1 108.7c-.3-.7-1.1-.5-1.1-.4v-.2c.4-.1 1.1-.1 1.4.6h-.3zM15.8 107.7c-.6-.9-2.2-.7-2.2-.7v-.2c.1 0 1.7-.1 2.4.8l-.2.1zM16.7 106.5c-.7-1.4-3.6-.5-3.6-.5l-.1-.2c.1 0 3.1-.9 3.8.6l-.1.1zM11.9 104.9h-.2c.1-1.5-.6-2.9-1.8-3.8l.1-.2c1.3 1 2 2.4 1.9 4z"/><path d="M13.9 105.6c0-.6-.2-1.1-.6-1.4-.7-.6-1.6-.4-1.6-.4v-.2s1.1-.1 1.8.5c.4.4.7.9.7 1.6l-.3-.1z"/><path d="M15.6 105.7c-.1-1.3-.5-2.2-1.2-2.7-1.3-1-3.2-.5-3.2-.5v-.2c.1 0 2-.5 3.4.6.8.6 1.2 1.6 1.3 2.9l-.3-.1z"/><path d="M16.8 106.3h-.2c.3-2.4-.2-4-1.3-4.8-1.8-1.4-4.9-.1-5-.1l-.1-.2c.1-.1 3.2-1.3 5.1.1 1.3.9 1.7 2.6 1.5 5z"/><path d="M11.6 100.9c-.2-.8-.9-.7-.9-.7v-.2s.8-.1 1.1.9h-.2zM13.2 100.7c-.1-.7-.3-1.2-.6-1.5-.4-.4-.9-.3-.9-.3v-.2s.6 0 1 .4c.4.3.6.9.7 1.6h-.2zM14.5 101c-.1-2.9-1.9-3-2-3v-.2s2.2 0 2.2 3.2h-.2zM17.4 105.7s-.2-.6-.6-.6v-.2c.5 0 .8.7.8.7l-.2.1zM18.2 104.8H18s0-.3-.2-.6c-.2-.2-.6-.3-1.1-.2v-.2c.6-.1 1 0 1.2.3.3.3.3.7.3.7zM19 103.5c0-.1-.5-1.2-2.6-.7v-.2c2.3-.6 2.8.8 2.8.8l-.2.1z"/><path d="M17.3 102.6h-.2c.1-.8 0-1.5-.5-1.9-.8-.8-2.1-.6-2.1-.6v-.2c.1 0 1.5-.2 2.3.6.4.5.6 1.2.5 2.1z"/><path d="M18.4 102.8h-.2c.1-1.4-.2-2.4-.9-3.1-1.3-1.2-3.4-.9-3.4-.9v-.2c.1 0 2.3-.3 3.6 1 .7.6 1.1 1.7.9 3.2z"/><path d="M19.1 103.4l-.2-.1c.2-.4 1.1-2.3-.9-4.8-2-2-4.9-.4-5-.4v-.2s3.1-1.7 5.2.4c2 2.6 1.1 4.7.9 5.1z"/><path d="M14 97.6c-.2-.5-.9-.4-.9-.4V97s.8-.1 1.1.5l-.2.1zM15.4 97.4c-.1-.5-.2-.8-.5-1-.4-.3-1-.1-1-.1l-.1-.2s.6-.2 1.1.1c.3.2.5.6.6 1.2h-.1zM17 97.6h-.2c.1-1-.1-1.7-.6-2.2-.6-.5-1.3-.4-1.3-.4v-.2s.9-.2 1.5.4c.5.5.7 1.3.6 2.4zM20.1 102.1c-.1-.3-.7-.2-.7-.2v-.2s.8-.1.9.3l-.2.1zM21 100.9c0-.2-.2-.4-.4-.5-.5-.3-1.4 0-1.4 0l-.1-.2s1-.3 1.6 0c.2.1.4.4.4.7H21zM21.9 99.7c-.5-1.6-3.4-.7-3.4-.7l-.1-.2c.1 0 3.1-1 3.7.8l-.2.1z"/><path d="M19.5 98.7c0-.6-.3-1.1-.7-1.4-.8-.6-1.9-.4-1.9-.4v-.2c.1 0 1.2-.2 2.1.4.5.4.7.9.8 1.6h-.3z"/><path d="M20.8 98.7c-.1-1.3-.5-2.2-1.3-2.8-1.3-.9-3-.3-3-.3l-.1-.2c.1 0 1.8-.6 3.2.3.8.6 1.3 1.5 1.4 2.9l-.2.1z"/><path d="M22 99.4h-.2s.6-3.2-1.5-4.6c-2-1.4-4.7.3-4.7.3l-.1-.2s2.8-1.8 4.9-.3c2.2 1.4 1.6 4.7 1.6 4.8z"/><path d="M16.7 94.4c-.3-.6-.8-.5-.8-.5l-.1-.2s.7-.2 1 .6l-.1.1zM18.3 94.1c-.3-1.3-1.4-1.2-1.4-1.2v-.2s1.3-.1 1.6 1.4h-.2zM20.2 94.7c-.1-2.8-2.2-3-2.3-3v-.2s2.3.2 2.5 3.2h-.2zM22.9 98.5c-.1-.5-.9-.4-.9-.4v-.2s1-.2 1.2.5l-.3.1zM23.8 97.5c-.3-1.1-2-.6-2-.6l-.1-.2s1.9-.5 2.3.7l-.2.1zM25.1 96.1c-.9-1.8-4-.8-4-.8l-.1-.2c.1 0 3.2-1 4.3.9l-.2.1z"/><path d="M22.1 95h-.2c.1-.4 0-.6-.2-.9-.5-.6-1.6-.5-1.6-.5v-.2s1.2 0 1.7.6c.3.2.4.6.3 1z"/><path d="M23.7 95h-.2c.1-.9-.1-1.6-.6-2-1.1-1-3.3-.5-3.3-.5v-.2c.1 0 2.3-.5 3.5.5.4.5.7 1.2.6 2.2z"/><path d="M25 95.7h-.2s.6-3.1-1.3-4.3c-2.1-1.4-5 .3-5 .3l-.1-.2s3-1.8 5.2-.3c2.1 1.3 1.4 4.4 1.4 4.5z"/><path d="M19.9 91c-.2-.5-.8-.6-.9-.6v-.2s.7.1 1 .7l-.1.1zM21.6 90.7h-.2c0-.3-.1-.6-.3-.8-.4-.4-1.2-.4-1.2-.4v-.2s.8 0 1.3.5c.2.2.4.5.4.9zM23.1 91.1c0-1-.3-1.8-.9-2.3-.6-.6-1.3-.5-1.3-.5v-.2s.8 0 1.5.6c.6.5.9 1.3.9 2.4h-.2zM26.2 94.9c-.3-.7-1.1-.5-1.1-.5v-.2s1-.1 1.3.7h-.2zM27.2 93.7c-.5-1.1-2.3-.8-2.4-.8v-.2c.1 0 2-.3 2.6.9l-.2.1zM28.2 92.5c-.9-1.9-4.2-.9-4.2-.9l-.1-.2c.1 0 3.5-1.1 4.5 1l-.2.1z"/><path d="M24.8 91.3c-.1-1.4-1.7-1.4-1.8-1.4v-.2s1.9 0 2 1.6h-.2z"/><path d="M26.5 91.3c-.1-1-.4-1.7-1-2.1-1.2-.8-3-.3-3-.3l-.1-.2c.1 0 1.9-.5 3.1.4.7.5 1 1.2 1.1 2.3l-.1-.1z"/><path d="M27.9 91.8h-.2c0-1.9-.4-3.2-1.3-3.8-2-1.5-4.7.4-4.8.4l-.1-.2s2.8-2 5-.4c.9.7 1.4 2 1.4 4z"/><path d="M22.6 87.7c0-.2-.1-.3-.2-.4-.2-.1-.5 0-.5 0l-.1-.2s.4-.1.7 0c.2.1.3.3.3.5l-.2.1zM24.1 87.3c-.2-.6-.7-1-1.3-1v-.2c.7 0 1.3.5 1.5 1.2h-.2zM25.6 87.5c-.2-2.1-1.7-2.2-1.7-2.2v-.2s1.7.1 1.9 2.4h-.2zM29 91.6c-.2-.7-1.3-.8-1.3-.8v-.2s1.2.1 1.4 1H29zM29.9 90.6c-.3-1.4-2.3-1.1-2.4-1.1v-.2s2.2-.4 2.6 1.2l-.2.1zM30.8 89.5c-.9-1.9-3.9-1.1-3.9-1.1l-.1-.2s3.2-.9 4.1 1.2l-.1.1z"/><path d="M27.9 88.2c-.2-1.7-2.5-1.5-2.5-1.5v-.2s2.5-.2 2.7 1.7h-.2z"/><path d="M29.6 88.3h-.2c0-1.1-.3-1.8-.9-2.3-1.3-1-3.6-.3-3.6-.3l-.1-.2c.1 0 2.4-.7 3.8.4.7.4 1 1.3 1 2.4z"/><path d="M30.7 89h-.2c.1-2.2-.3-3.7-1.4-4.3-2.1-1.4-5 .6-5 .6l-.1-.2s3-2.1 5.2-.6c1.1.7 1.6 2.2 1.5 4.5z"/><path d="M26.5 84.2c-.3-1-.9-1.1-.9-1.1v-.2s.7.1 1.1 1.2l-.2.1zM25.5 84.6l-.2-.1c-.1-.1-.4-.3-.6-.4l.1-.2c.1 0 .6.3.7.5v.2zM27.8 84.1c-.4-1.6-1.4-1.9-1.4-1.9V82s1.1.3 1.6 2l-.2.1zM31.5 88.7c-.2-.7-.9-.5-.9-.5V88s.9-.2 1.1.6l-.2.1zM32.2 87.8c-.2-1-1.7-1-1.7-1v-.2c.1 0 1.7 0 1.9 1.1l-.2.1zM33.1 86.9s-1.2-1.6-3-1.3v-.2c2-.3 3.2 1.3 3.2 1.4l-.2.1z"/><path d="M30.9 85.5c-.1-.7-.3-1.3-.8-1.7-1-.8-2.5-.5-2.5-.5v-.2c.1 0 1.6-.2 2.7.6.5.4.8 1 .9 1.8h-.3z"/><path d="M32 85.9c0-1.6-.5-2.6-1.3-3.2-1.4-.9-3.6-.1-3.6-.1l-.1-.1c.1 0 2.2-.9 3.8.1.9.6 1.4 1.7 1.4 3.4l-.2-.1z"/><path d="M33 86.7h-.2c.4-2.3 0-3.9-1-4.7-2.3-1.9-5.3.2-5.3.2l-.1-.2s3.1-2.2 5.5-.2c1.1.8 1.5 2.5 1.1 4.9z"/><path d="M28.3 81.3l-.2-.1v-.1c0-.1-.3-.1-.5-.1v-.2c.1 0 .5 0 .7.2 0 .1.1.2 0 .3zM29.5 81.1h-.2c.1-.3 0-.5-.1-.6-.3-.3-.9-.2-.9-.2v-.2s.7-.1 1.1.3c.1.1.2.4.1.7zM31.2 81.4H31c0-.9-.2-1.5-.6-1.9-.5-.4-1-.4-1-.4v-.2s.6 0 1.2.4c.3.5.6 1.2.6 2.1zM34 85.9h-.2c0-.2 0-.3-.1-.4-.2-.2-.7-.2-.7-.2v-.2s.6 0 .8.3c.2.1.3.3.2.5zM34.6 85c-.2-.8-1.5-.7-1.5-.7v-.2c.1 0 1.6-.2 1.8.8l-.3.1zM35.6 83.9c-.7-1.3-2.8-.8-2.8-.8v-.2c.1 0 2.3-.5 3 .9l-.2.1z"/><path d="M33.6 82.9h-.2c0-.6-.1-1.1-.4-1.4-.7-.7-2-.7-2-.7v-.2c.1 0 1.4 0 2.2.8.3.3.5.8.4 1.5z"/><path d="M34.7 83h-.2c.1-1.3-.3-2.3-.9-2.8-1.1-.9-2.9-.4-2.9-.4l-.1-.2c.1 0 1.9-.5 3.1.4.7.6 1 1.6 1 3z"/><path d="M35.5 83.5l-.2-.1c.6-1.9.5-2.9-1.2-4.4-1.7-1.4-4.2.1-4.3.1l-.1-.1s2.7-1.6 4.5-.1c1.8 1.6 1.9 2.7 1.3 4.6z"/><path d="M31 78.6h-.2v-.1c0-.2-.3-.4-.6-.4v-.2c.4 0 .7.2.8.6v.1zM32.1 78.4c0-1-1.1-1.1-1.1-1.1v-.2s1.3.1 1.3 1.3h-.2zM33.6 78.6h-.2c.3-1.9-1.4-2.3-1.5-2.3v-.2c.1 0 2 .4 1.7 2.5zM36.4 82.9c0-.5-.7-.6-.7-.6v-.2c.3 0 .8.2.8.8h-.1zM37.2 82c-.2-.7-1.4-.8-1.4-.8V81c.1 0 1.4 0 1.6.9l-.2.1zM38.1 81c-.7-1.5-2.9-.8-2.9-.8l-.1-.2s2.4-.7 3.1.9l-.1.1zM39 79.8c-1.6-2.2-4.3-.6-4.4-.6l-.1-.2s2.9-1.8 4.6.6l-.1.2z"/><path d="M35.8 78.7h-.2c0-.3 0-.5-.1-.7-.3-.3-.8-.3-.8-.3v-.2s.6 0 1 .3c.1.3.2.6.1.9zM37.1 78.6h-.2c0-.6-.2-1.1-.5-1.4-.7-.6-1.9-.5-1.9-.5v-.2c.1 0 1.3-.2 2 .5.4.3.6.9.6 1.6z"/><path d="M38.4 79h-.2c0-1.5-.3-2.6-1.1-3.1-1.3-.9-3.2-.2-3.3-.2l-.1-.2c.1 0 2.1-.8 3.4.2.9.6 1.3 1.7 1.3 3.3z"/><path d="M34.5 75.4c-.1-.7-.9-1-.9-1l.1-.2s.9.4 1 1.2h-.2zM35.4 75.4c0-1.4-1.2-1.7-1.2-1.7v-.2s1.3.3 1.3 1.9h-.1zM36.6 75.6c-.1-2.2-1.7-2.6-1.7-2.6v-.2s1.8.5 1.8 2.8h-.1zM39.6 79.1c-.3-.7-1.4-.9-1.4-.9V78s1.2.2 1.6 1l-.2.1zM40.3 78.3c-.6-1.1-2.2-1-2.2-1v-.2c.1 0 1.8 0 2.4 1.1l-.2.1zM41 77.5c-.6-1.7-3.4-1.1-3.4-1.1v-.2c.1 0 3-.6 3.6 1.3H41z"/><path d="M38.4 76.1c0-.5-.2-.8-.5-1.1-.5-.4-1.3-.3-1.3-.3v-.2s.8-.1 1.4.3c.3.3.5.7.6 1.2l-.2.1z"/><path d="M39.4 76.2c-.1-1.1-.5-1.9-1.2-2.3-.9-.5-2-.1-2-.1l-.1-.2s1.2-.5 2.2.1c.7.4 1.1 1.2 1.2 2.4l-.1.1z"/><path d="M40.5 76.6h-.2c0-1.7-.5-2.9-1.4-3.4-1.4-.8-3.3.1-3.3.1l-.1-.2c.1 0 2.1-.9 3.5-.1 1 .6 1.5 1.8 1.5 3.6z"/><path d="M36.1 72.9c-.1-.3-.4-.5-.7-.5v-.2c.4 0 .8.3.9.7h-.2zM37.2 72.7H37v-.1c0-.2-.2-.5-.4-.6-.2-.2-.5-.2-.7-.2v-.2c.3-.1.6 0 .9.2.3.2.4.5.5.8-.1 0-.1 0-.1.1zM38.2 72.9c-.4-2-1.6-1.8-1.7-1.8v-.2s1.5-.2 1.9 2h-.2zM41.6 76.8c-.1-.8-1.2-.8-1.2-.8v-.2c.4 0 1.3.2 1.4.9l-.2.1zM42.2 76.1c-.5-1-1.9-.9-1.9-.9V75c.1 0 1.5-.1 2.1 1l-.2.1zM42.8 75.3c-.6-1.5-2.8-1.1-2.9-1v-.2c.1 0 2.4-.4 3.1 1.2h-.2zM39.1 73.2c-.2-2.9-1.8-3-1.8-3V70c.1 0 1.7.1 2 3.2h-.2z"/><path d="M43.4 74.6c-.2-.6-.6-1-1.1-1.3-1.2-.5-2.8 0-3 .1v-.1l-.1-.1c.1-.1 1.5-.5 2.7-.2.8.2 1.4.7 1.7 1.5l-.2.1z"/><path d="M40.2 73.1c0-.4-.2-.6-.4-.8-.4-.2-.8-.1-.8-.1V72s.5-.1 1 .2c.3.2.4.5.5.9h-.3zM41.2 73c-.1-.8-.4-1.3-.9-1.6-.7-.4-1.5-.1-1.5-.1l-.1-.2s.9-.3 1.7.1c.6.3.9.9 1.1 1.8h-.3z"/><path d="M42.2 73.2c-.1-1.3-.6-2.1-1.3-2.6-1.2-.8-2.9-.1-2.9-.1l-.1-.2c.1 0 1.8-.7 3.1.1.8.5 1.3 1.4 1.4 2.7l-.2.1z"/><path d="M38.7 70.2c-.1-.4-.5-.7-.9-.7v-.2c.5.1.9.4 1.1.9h-.2zM39.7 70.2c-.4-1.4-1.3-1.3-1.3-1.3v-.2s1.1-.1 1.6 1.5h-.3zM40.9 70.5c-.4-2.5-1.9-2.4-1.9-2.4v-.2s1.7 0 2.1 2.6h-.2zM44.2 73.7c-.2-1-2-1.1-2-1.1v-.2c.1 0 1.9.2 2.1 1.3h-.1zM44.8 72.9c-.5-1.4-2.9-1.2-2.9-1.2v-.2c.1 0 2.5-.2 3.1 1.4h-.2z"/><path d="M45.5 72.1c-.9-2-3.9-1.2-4-1.2v-.2s3.3-.8 4.2 1.3l-.2.1z"/><path d="M42.3 70.8c0-1.2-1.4-1.1-1.4-1.1v-.2s1.6 0 1.6 1.3h-.2z"/><path d="M43.4 70.8c-.1-.8-.3-1.3-.8-1.7-.9-.6-2.2-.3-2.2-.3l-.1-.2c.1 0 1.4-.4 2.4.3.5.4.8 1 .9 1.8l-.2.1z"/><path d="M44.6 71.1c-.1-1.3-.4-2.3-1-2.8-1.6-1.4-3.8 0-3.8 0l-.1-.1s2.4-1.5 4.1 0c.7.6 1 1.6 1.1 3l-.3-.1z"/><path d="M40.2 67.9c0-.2-.1-.3-.2-.4-.1-.1-.3-.1-.4-.1v-.2c.2 0 .4 0 .6.1.2.1.3.3.3.5l-.3.1zM41.1 67.6s0-.5-.4-.7c-.2-.1-.4-.2-.7-.1v-.2c.4-.1.7-.1.9.1.4.3.4.8.4.8l-.2.1zM42.3 67.6c0-.5-.2-.9-.5-1.2-.5-.4-1.1-.3-1.1-.3v-.2s.7-.1 1.2.4c.3.3.5.7.6 1.3h-.2zM46.1 71.4c-.2-.7-1.3-.9-1.5-.9v-.1l-.1-.1c.1-.1.6.1.7.1.3.1.9.4 1.1 1h-.2zM46.6 70.7c-.6-1.3-2.3-1.3-2.3-1.3v-.2s1.8 0 2.5 1.4l-.2.1zM47.3 70c-.7-1.6-3.2-1.4-3.2-1.4v-.2c.1 0 2.7-.3 3.4 1.5l-.2.1zM43.3 67.9h-.2c.1-2.2-1.7-2.8-1.7-2.8l.1-.2s1.9.6 1.8 3z"/><path d="M44.6 68.5h-.2c0-.4 0-.7-.2-1-.4-.4-1-.3-1-.3V67s.7-.1 1.1.3c.3.4.4.8.3 1.2z"/><path d="M45.6 68.6h-.2c.1-.8-.1-1.4-.6-1.8-.7-.6-1.8-.3-1.8-.3v-.2c.1 0 1.2-.3 2 .4.4.4.6 1 .6 1.9z"/><path d="M46.5 69.1h-.2c.3-1.3.2-2.2-.9-3.1-1.2-.9-2.9-.1-2.9-.1l-.1-.2c.1 0 1.8-.9 3.1.1 1.2.9 1.3 1.9 1 3.3z"/><path d="M43.3 65.5c-.3-1-1.4-1-1.4-1v-.2s1.3.1 1.6 1.2h-.2zM44.3 65.4c-.3-1.8-1.7-1.7-1.8-1.7v-.2s1.7-.2 2 1.8l-.2.1z"/><path d="M45.6 65.9h-.2c0-2.6-2.2-3-2.2-3v-.2c.1 0 2.4.4 2.4 3.2zM47.9 69.3c-.2-1.1-1.3-1-1.3-1v-.2s1.3 0 1.5 1.2h-.2zM48.5 68.5c-.3-1.3-2-1.1-2.1-1.1v-.2s1.9-.2 2.3 1.3h-.2zM49.3 67.6c-1-1.9-3.3-1.3-3.3-1.3v-.1s2.5-.7 3.5 1.3l-.2.1z"/><path d="M46.7 66.2c-.1-1.1-1.3-1.1-1.3-1.1v-.2s1.4 0 1.5 1.3h-.2z"/><path d="M47.6 66.3c0-.9-.3-1.5-.7-1.9-.7-.6-1.8-.3-1.8-.3l-.1-.2s1.2-.3 2 .3c.5.4.8 1.1.8 2l-.2.1z"/><path d="M48.8 66.7h-.2c.1-1.5-.2-2.6-1-3.2-.7-.6-1.9-.6-3.2-.2h-.2l.1-.1v-.1c1.4-.4 2.6-.4 3.4.3.8.6 1.1 1.7 1.1 3.3z"/><path d="M45 63c-.2-.5-.7-.9-1.2-.9v-.2c.6.1 1.2.5 1.4 1.1H45zM46 63c-.4-1.5-1.5-1.6-1.5-1.6v-.2s1.2.1 1.7 1.7l-.2.1zM46.9 63.1c-.2-2.4-1.8-2.5-1.9-2.5v-.2s1.9.1 2.1 2.7h-.2zM49.9 66.9c-.1-.8-1.2-.9-1.2-.9v-.2c.1 0 1.3.1 1.4 1.1h-.2zM50.5 66c-.3-1.1-1.9-.8-1.9-.8V65s1.8-.3 2.1 1h-.2zM51.3 65.2c-.8-1.8-3.1-1.2-3.1-1.2l-.1-.2s2.5-.7 3.4 1.3l-.2.1z"/><path d="M48.8 63.9c-.1-.6-.2-1-.6-1.2-.5-.4-1.2-.2-1.2-.2l-.1-.2s.8-.2 1.4.2c.4.3.6.7.7 1.4h-.2z"/><path d="M49.7 63.9c-.1-1-.4-1.8-1-2.1-.8-.5-2-.2-2.1-.2l-.1-.2c.1 0 1.2-.4 2.1.1.8.4 1.2 1.2 1.3 2.4h-.2z"/><path d="M50.8 64.4h-.2s.1-2.6-1.3-3.6c-.8-.6-1.9-.5-3.4.1l-.1-.2c1.5-.7 2.7-.7 3.6-.1 1.6 1.1 1.4 3.7 1.4 3.8z"/><path d="M46.7 60.5c0-.2-.2-.4-.3-.5-.3-.2-.8-.1-.8-.1v-.2s.6-.1 1 .1c.2.1.3.3.4.6l-.3.1zM47.6 60.3c-.3-1.3-1.4-1.3-1.4-1.3v-.2s1.2-.1 1.6 1.4l-.2.1zM48.6 60.4c0-1.9-1.6-2.2-1.7-2.2V58s1.8.3 1.9 2.4h-.2zM51.9 64.5c-.1-.6-1.2-.8-1.2-.8v-.2s1.2.2 1.3 1h-.1zM52.5 63.7c-.1-.3-.4-.6-.7-.7-.5-.2-1.1-.1-1.2-.1v-.1l-.1-.1c.1-.1.5-.1.9-.1.5.1 1.1.3 1.3 1l-.2.1zM53.2 62.9c-.7-1.5-2.8-.9-2.9-.9l-.1-.2s2.3-.7 3.1 1l-.1.1z"/><path d="M49.6 60.8h-.2c.6-2.6-1.8-3.5-1.8-3.5l.1-.2s2.6.9 1.9 3.7zM54 61.9c-.8-1.9-4.1-.8-4.1-.8l-.1-.1c.1 0 3.5-1.1 4.4.9H54z"/><path d="M50.8 60.8c0-.3-.1-.6-.3-.7-.3-.3-.8-.2-.8-.2v-.2s.6-.1 1 .2c.2.2.4.5.4.9h-.3z"/><path d="M51.9 60.8c0-.7-.3-1.2-.7-1.5-.8-.6-1.9-.4-1.9-.4v-.2s1.2-.2 2.1.4c.5.4.7.9.8 1.7h-.3z"/><path d="M53.1 61c0-1.3-.4-2.2-1.2-2.7-1.2-.8-3-.2-3.1-.2l-.1-.2c.1 0 1.9-.7 3.2.2.8.5 1.2 1.5 1.3 2.9h-.1z"/><path d="M49.6 57.8c-.2-1.2-1.4-1.1-1.5-1.1v-.2s1.4 0 1.7 1.3h-.2zM50.6 57.8c-.1-1.7-1.8-1.9-1.9-1.9v-.2s1.9.2 2 2.1h-.1zM51.6 58c-.3-2.6-2.2-3-2.2-3v-.2s2.1.4 2.4 3.2h-.2zM54.6 61.2c-.2-.9-1.6-1-1.6-1V60c.1 0 1.6.1 1.8 1.1l-.2.1zM55.3 60.4c-.3-.9-1.1-1.2-2.4-1.1h-.2.1v-.1h.1c1.4-.2 2.2.2 2.6 1.2h-.2z"/><path d="M56 59.6c-1.1-1.9-3.2-1.3-3.6-1.1v-.2.1-.1c.3-.1 2.7-.9 3.9 1.2l-.3.1z"/><path d="M53 58.2c-.1-.4-.2-.7-.5-.8-.4-.3-1-.2-1-.2V57s.6-.2 1.2.2c.3.2.5.5.6.9l-.3.1z"/><path d="M54.2 58.2c-.1-.8-.5-1.3-1-1.6-1-.6-2.2-.3-2.2-.3v-.2c.1 0 1.3-.3 2.3.3.6.4.9 1 1.1 1.8h-.2z"/><path d="M55.2 58.7c-.1-1.6-.5-2.6-1.4-3.1-1.4-.8-3.3 0-3.4 0l-.1-.2s2-.9 3.5 0c.9.5 1.4 1.7 1.5 3.3h-.1z"/><path d="M51 55.2c-.1-.9-1.1-.9-1.1-.9v-.1l-.1-.1c.1-.1.4 0 .6.1.3.1.7.4.8 1H51zM52.1 55.1c-.4-1.6-1.6-1.5-1.6-1.5v-.2s1.4-.1 1.9 1.7h-.3zM53.2 55.2c-.1-1.2-.8-2.2-2-2.6l.1-.2c1.2.4 2 1.5 2.1 2.8h-.2zM56.5 58.9c-.3-.9-1.3-.9-1.3-.9v-.2s1.2 0 1.5 1.1h-.2zM57.2 58.2c-.4-1-2.1-1.1-2.2-1.1v-.2c.1 0 1.9.1 2.3 1.2l-.1.1zM57.8 57.4c-.8-1.8-3.2-1.2-3.3-1.2V56s2.7-.6 3.5 1.3l-.2.1z"/><path d="M55.1 56h-.2c.1-.5-.1-.9-.4-1.1-.5-.4-1.3-.2-1.4-.2v-.1H53l.1-.1c.1 0 .9-.2 1.5.2.4.2.6.7.5 1.3z"/><path d="M56.1 56c-.1-.9-.4-1.6-.9-2-1-.7-2.4-.3-2.4-.3l-.1-.2c.1 0 1.5-.4 2.6.3.6.4 1 1.1 1 2.1l-.2.1z"/><path d="M57.3 56.4h-.2c.1-1.8-.4-3-1.4-3.5-1.4-.8-3.4 0-3.6.1v-.1H52c.1-.1 1.8-.8 3.2-.4 1 .2 2.2 1.1 2.1 3.9z"/><path d="M58.6 56.6h-.2c.1-.7-1.1-.9-1.1-.9v-.2s1.3.2 1.3 1.1zM59.1 55.8c-.5-1.1-2.1-1.2-2.1-1.2v-.2c.1 0 1.7.1 2.3 1.3l-.2.1zM59.8 55c-.7-1.9-3.1-1.4-3.2-1.4v-.2s2.6-.5 3.4 1.5l-.2.1zM54.2 52.5c-.2-.8-.9-1.4-1.7-1.6v-.2c.9.1 1.6.8 1.8 1.7l-.1.1zM53.2 52.6H53v-.1c-.1-.2-.2-.4-.4-.6-.2-.1-.4-.2-.7-.1v-.2c.3-.1.6 0 .8.1.2.2.4.4.5.7v.2zM55.2 52.7c-.3-2.5-1.9-2.7-2-2.7v-.2s1.9.2 2.2 2.9h-.2z"/><path d="M57.3 53.4c-.1-.7-.4-1.2-.8-1.4-.6-.4-1.4-.2-1.4-.2v-.2s.9-.2 1.6.2c.5.3.8.8.9 1.6h-.3z"/><path d="M58.5 53.6c-.1-1.2-.4-2-1.1-2.5-1.1-.8-2.7-.4-2.8-.4l-.1-.2c.1 0 1.7-.5 2.9.4.7.5 1.1 1.4 1.2 2.6l-.1.1z"/><path d="M59.5 54.2l-.2-.1s.8-2.9-1.3-4.2c-2-1-4.1.2-4.1.2l-.1-.1s2.2-1.3 4.3-.2c2.2 1.4 1.4 4.4 1.4 4.4z"/><path d="M54.7 49.7c-.1-.6-.8-.6-.8-.6v-.2c.3 0 .9.1 1 .7l-.2.1zM55.6 49.5c-.2-1.2-1.1-1.2-1.1-1.2v-.2s1.2 0 1.3 1.4h-.2zM56.8 49.5c0-1-.6-1.7-1.6-2.1-.1 0-.1 0-.1-.1v-.1h.1v-.1h.1c1.4.5 1.7 1.5 1.7 2.2l-.2.2zm-1.6-2.2zM60.7 54.1h-.2c0-.4-.7-.6-.9-.6v-.2s1.1.2 1.1.8zM61.2 53.2c0-.2-.2-.4-.3-.5-.5-.3-1.3-.1-1.3-.1v-.2s.9-.2 1.4.2c.2.1.4.3.4.6h-.2zM61.9 52.4c-.1-.3-.3-.5-.6-.7-.8-.4-1.9-.2-1.9-.1v-.1h-.1v-.1c.1-.1.9-.2 1.6-.1.7.1 1.1.5 1.3 1l-.3.1zM58.2 49.9H58c0-2.8-2.1-3.4-2.1-3.4v-.2s.6.2 1.2.7c.5.5 1.1 1.4 1.1 2.9zM62.8 51.3c-1.1-1.5-3.9-.8-3.9-.8v-.2c.1 0 2.9-.8 4.1.8l-.2.2z"/><path d="M59.4 50.4c-.1-.5-.2-.8-.5-1-.4-.3-.8-.2-.9-.2V49s.5-.1 1 .2c.3.2.5.6.6 1.1l-.2.1zM60.7 50.3h-.2c0-.7-.2-1.3-.6-1.6-.8-.7-2.1-.5-2.1-.5V48c.1 0 1.4-.2 2.3.5.4.4.6 1 .6 1.8z"/><path d="M61.6 50.4h-.2c.1-1.5-.3-2.5-1-3-1.2-.9-3.2-.2-3.2-.2l-.1-.2s2.1-.8 3.4.2c.8.6 1.2 1.7 1.1 3.2z"/><path d="M57.9 47c-.4-1.4-1.5-1.2-1.6-1.2v-.2s1.3-.2 1.8 1.3l-.2.1zM59 46.9c-.2-1.8-1.9-2.1-2-2.1v-.2s1.9.4 2.1 2.3H59zM60.3 47.2c-.4-3.2-2.5-3.2-2.6-3.3v-.2s2.4 0 2.8 3.4l-.2.1zM63.5 50.5c-.3-1-1.9-.9-1.9-.9v-.2c.1 0 1.8-.1 2.1 1l-.2.1zM64.2 49.5c-.5-1.2-2.7-.8-2.8-.8v-.2c.1 0 2.4-.4 3 .9l-.2.1zM65 48.4c-1.1-1.8-4.1-.7-4.2-.7l-.1-.2c.1 0 3.2-1.1 4.4.8l-.1.1z"/><path d="M61.8 47.3c0-.4-.2-.7-.4-.9-.5-.4-1.2-.3-1.2-.3v-.2s.8-.1 1.3.3c.3.2.5.6.5 1l-.2.1z"/><path d="M63 47.3c-.1-.9-.5-1.5-1.1-1.9-1-.6-2.3-.2-2.3-.2V45c.1 0 1.4-.4 2.4.2.6.4 1 1.1 1.1 2l-.1.1z"/><path d="M64.4 47.6h-.2c0-1.6-.4-2.6-1.3-3.2-1.6-1-4.1-.1-4.1-.1l-.1-.2s2.4-.9 4.1 0c1.1.6 1.6 1.8 1.6 3.5z"/><path d="M59.7 43.9c-.1-.4-.2-.6-.5-.8-.4-.2-.8-.1-.8-.1v-.2s.6-.1 1 .2c.3.2.5.5.5.9h-.2zM60.9 43.8c-.2-.9-.6-1.3-1-1.5-.4-.3-.8-.3-.9-.3l-.2-.1c.1-.1.4 0 .5 0 .4.1 1.4.5 1.6 1.9zM62.1 44c-.3-1.5-1.1-2.5-2.4-2.9-.1 0-.1 0-.1-.1v-.1h.1v-.1h.1c1.3.4 2.2 1.5 2.5 3.1l-.2.1zm-2.4-3zM65.7 47.4c-.3-.8-1.3-.6-1.4-.6v-.2s1.3-.3 1.6.7l-.2.1zM66.3 46.5c-.5-1.1-2.2-.7-2.2-.7v-.1H64c0-.1.1-.1.2-.1.2 0 1.8-.4 2.3.8l-.2.1zM67 45.5c-1.3-1.6-3.3-.6-3.3-.6l-.1-.2s2.2-1.1 3.6.6l-.2.2z"/><path d="M64 44.7c-.1-.5-.3-.9-.7-1.1-.6-.3-1.2-.1-1.2-.1l-.1-.3s.8-.2 1.4.2c.4.2.7.7.8 1.2l-.2.1z"/><path d="M64.9 44.6c-.1-.8-.3-1.4-.9-1.8-.9-.7-2.3-.3-2.3-.3l-.1-.2c.1 0 1.5-.4 2.5.3.6.4.9 1 .9 1.9l-.1.1z"/><path d="M65.9 44.7c0-1.3-.4-2.3-1.1-2.8-1.4-.9-3.6-.1-3.6-.1l-.2-.2c.1 0 2.3-.9 3.8.1.8.5 1.2 1.5 1.2 3h-.1z"/><path d="M61.8 41.5c-.2-1-1.5-1.1-1.5-1.1v-.2s1.5.1 1.7 1.3h-.2zM62.9 41.3c-.4-2-2.1-1.8-2.1-1.8v-.2s1.9-.2 2.3 2h-.2zM64 41.5c-.1-1.2-.6-2.1-1.3-2.6-.6-.4-1.1-.4-1.2-.4v-.1l-.1-.1c.1-.1.5 0 .6 0 .6.1 1.9.7 2.2 3.1l-.2.1zM67.6 44.5c-.2-.9-1.7-.7-1.7-.7v-.2c.1 0 1.6-.2 1.9.8l-.2.1zM68.2 43.6c-.5-1.3-2.5-.8-2.6-.8l-.1-.2s2.2-.6 2.8.9l-.1.1zM68.8 42.6c-.8-1.7-3.8-.6-3.9-.6l-.1-.2c.1 0 3.2-1.2 4.1.8h-.1z"/><path d="M65.4 41.7c0-.4-.2-.7-.4-.8-.4-.2-.9-.1-.9 0v-.1H64c0-.1.4-.2.5-.2.3 0 1.1.1 1.2 1.1h-.3z"/><path d="M66.5 41.6h-.2c0-.7-.2-1.3-.7-1.6-.7-.5-1.9-.2-2-.2l-.1-.2c.1-.1 1.2-.3 2 .1.7.4 1 1 1 1.9z"/><path d="M67.6 41.6c-.1-1.5-.6-2.4-1.5-2.9-1-.5-2.2-.4-3.1.3l-.1-.2c1-.7 2.2-.8 3.3-.3.9.5 1.5 1.5 1.6 3l-.2.1z"/><path d="M63.6 38.6c-.1-.3-.2-.6-.5-.7-.4-.3-1-.2-1-.2v-.1.1l-.1-.1c0-.1.1-.1.2-.1.6 0 1.4.2 1.6 1.1h-.2zM64.6 38.4c0-.6-.2-1-.6-1.3-.6-.4-1.4-.3-1.4-.3v-.2s.9-.2 1.5.3c.4.3.6.8.7 1.4l-.2.1zM65.9 38.5h-.2c0-.9-.2-1.6-.7-2-.7-.7-1.7-.7-1.7-.7v-.2s1.1 0 1.9.8c.4.5.7 1.2.7 2.1zM69.4 41.7c0-.3-.2-.5-.4-.6-.5-.4-1.4-.2-1.4-.2v-.2s1-.2 1.6.3c.3.2.4.4.5.8l-.3-.1zM69.9 40.7c-.5-1.5-2.7-.9-2.7-.9l-.1-.2s2.4-.7 3 1l-.2.1z"/><path d="M70.5 39.9c-.6-1.3-1.9-1.6-3.9-.9h-.1v-.2h.1c2.7-1 3.7 0 4.2 1l-.3.1z"/><path d="M67.1 38.7c0-.4-.1-.6-.4-.8-.4-.3-1.1-.1-1.1-.1l-.1-.2s.7-.2 1.2.1c.3.2.4.5.5.9l-.1.1zM68.1 38.5c-.2-.8-.5-1.3-1.1-1.6-.8-.4-1.7-.2-1.8-.1l-.1-.2c.1 0 1-.3 1.8 0 .7.3 1.1.9 1.3 1.8l-.1.1z"/><path d="M69.3 38.7c-.2-1.5-.7-2.5-1.5-3-1.4-.7-3.3.4-3.3.4l-.1-.2c.1 0 2-1.2 3.5-.4.9.5 1.5 1.5 1.6 3.1l-.2.1z"/><path d="M65.2 35.7c-.3-.9-1.4-.8-1.4-.8v-.2s1.2-.1 1.6.9l-.2.1zM66.2 35.4c-.3-1.5-1.8-1.5-1.8-1.5v-.2s1.7-.1 2 1.6l-.2.1zM67.5 35.5c-.4-2.7-2.6-2.6-2.6-2.6v-.2s2.4-.1 2.8 2.7l-.2.1zM71.1 38.9c-.5-1.1-1.8-1.1-1.8-1.1v-.2s1.5 0 2 1.2l-.2.1zM71.7 37.9c-.6-1.5-2.6-.9-2.7-.9v-.2s2.3-.7 3 1l-.3.1zM72.4 36.7c-1.4-1.8-4-.7-4.1-.7l-.1-.2s2.8-1.2 4.3.8l-.1.1z"/><path d="M69.1 35.7c-.1-.5-.2-.8-.5-1-.5-.3-1.2-.1-1.2-.1l-.1-.2s.8-.3 1.4.1c.3.2.6.6.6 1.1l-.2.1z"/><path d="M70.5 35.6c-.3-1-.8-1.7-1.5-2-1.1-.5-2.4 0-2.4 0l-.1-.2c.1 0 1.4-.6 2.5 0 .7.4 1.3 1.1 1.6 2.2h-.1z"/><path d="M71.8 36h-.2c0-.1.5-2.5-1.9-3.6-2-.9-3.8.7-3.8.7l-.1-.1s1.9-1.7 4-.8c2.5 1.2 2 3.8 2 3.8z"/><path d="M66.5 32.4c-.3-.6-1-.5-1-.4l-.1-.2s.9-.2 1.2.6h-.1zM72.9 35.8c-.2-.6-1.1-.6-1.2-.6v-.1h-.1l.1-.1c.1 0 1.1 0 1.4.7l-.2.1zM67.4 32.1c0-.4-.2-.6-.4-.8-.4-.3-1-.2-1-.2v-.2s.7-.1 1.2.3c.3.2.4.5.5.9h-.3zM68.5 32c-.4-2.1-2-1.9-2-1.9v-.2s1.8-.2 2.2 2l-.2.1zM73.6 34.9c-.4-.9-2.1-.8-2.1-.8v-.2c.1 0 1.8-.2 2.3.9l-.2.1z"/><path d="M69.5 32.1h-.2c0-.1.3-2.7-2.2-3.1v-.2c2.6.4 2.4 3.3 2.4 3.3zM74.1 34c-1.4-1.6-3.1-.8-3.1-.8l-.1-.2c.2-.1 1.9-.8 3.4.8l-.2.2z"/><path d="M74.8 32.9c-1.4-1.2-2.9-1.3-4.3-.3-.1.1-.1.1-.2.1v-.2s.1 0 .1-.1c1.5-1 3-.9 4.5.3l-.1.2z"/><path d="M70.8 32.2c-.1-.3-.2-.5-.5-.7-.4-.2-.9-.1-.9-.1l-.1-.2s.6-.2 1.1.1c.3.2.5.4.6.8l-.2.1zM71.7 31.8c-.1-.6-.4-1.1-.8-1.3-.8-.4-1.8-.1-1.8-.1l-.1-.2s1.1-.4 2 .1c.5.3.8.8.9 1.5h-.2z"/><path d="M72.7 31.9c0-1.3-.4-2.2-1.1-2.6-1.2-.7-3.1.3-3.2.3l-.1-.2c.1 0 2-1.1 3.3-.3.8.4 1.2 1.4 1.2 2.8h-.1z"/><path d="M69.2 29.1c-.2-1.2-1.4-1.1-1.5-1.1v-.2s1.4-.1 1.7 1.3h-.2zM70.3 28.9c-.2-.9-.5-1.4-1.1-1.8-.5-.3-.9-.2-1-.2v-.1h-.1c0-.1.3-.1.4-.1.5 0 1.6.3 1.9 2.1l-.1.1zM71.4 29.1c-.2-3.3-2.4-3.3-2.5-3.3v-.2s2.5 0 2.7 3.4l-.2.1zM75.4 31.8c-.9-1.2-2.6-.7-2.6-.7l-.1-.2c.2-.1 1.9-.4 2.8.8l-.1.1zM76.1 30.7c-1.3-1.5-3.6-.6-3.6-.6l-.1-.2s2.4-1 3.8.6l-.1.2z"/><path d="M76.7 29.6c-2-1.9-4.8-.2-4.8-.2l-.1-.2s3-1.8 5.1.2l-.2.2z"/><path d="M72.8 28.8c-.1-.9-1.4-.9-1.4-.8v-.2s1.5-.1 1.6 1h-.2zM73.8 28.6c-.1-.6-.4-1.1-.8-1.4-.9-.5-2.1-.2-2.1-.2l-.1-.2c.1 0 1.3-.4 2.3.2.5.3.8.8.9 1.5l-.2.1z"/><path d="M75.1 28.6c-.2-1.4-.7-2.4-1.6-2.8-1.5-.8-3.5.3-3.5.3l-.1-.2c.1 0 2.1-1.1 3.7-.3.9.5 1.5 1.5 1.7 3h-.2z"/><path d="M70.7 25.7c-.2-.5-.7-.9-1.3-1v-.2c.6.1 1.1.6 1.4 1.1l-.1.1zM71.8 25.5c-.2-.9-.9-1.6-1.8-1.7v-.2c1 .1 1.8.9 2 1.9h-.2zM73.1 25.5c-.4-2.9-2.4-2.9-2.4-2.9v-.2s2.2 0 2.6 3.1h-.2zM77.4 28.4c-.6-1-1.9-.9-2.4-.8v-.2c.5-.1 1.9-.2 2.6.8l-.2.2zM78.1 27.2c-1.2-1.5-3.4-.5-3.5-.5l-.1-.2s2.4-1 3.7.6l-.1.1zM78.8 26.1c-1.8-1.8-4.8-.2-4.9-.2l-.1-.2s3.2-1.7 5.1.2l-.1.2z"/><path d="M74.7 25.4c0-.4-.2-.7-.4-.9-.5-.3-1.2-.1-1.2-.1l-.1-.1s.8-.3 1.4.1c.3.2.5.6.5 1.1l-.2-.1zM76.1 25.1c-.2-1-.7-1.6-1.3-1.9-1.1-.5-2.5.1-2.5.2l-.1-.2c.1 0 1.5-.7 2.7-.2.7.3 1.2 1 1.4 2.1h-.2z"/><path d="M77.7 25.3h-.2s.2-2.5-1.8-3.4c-2.4-.8-4.3.8-4.3.8l-.1-.1s2-1.7 4.5-.9c2.1 1 1.9 3.5 1.9 3.6z"/><path d="M72.2 22c-.2-.6-.9-.5-.9-.5v-.2s.9-.1 1.1.6l-.2.1zM73.3 21.6c-.3-1.2-1.4-1.2-1.5-1.2v-.2s1.4 0 1.7 1.4h-.2zM74.4 21.5c-.5-2.2-2-2.3-2-2.3V19s1.7 0 2.2 2.4l-.2.1zM79.2 25.2c-.4-1-1.7-.9-1.7-.9v-.2s1.5-.2 1.9 1l-.2.1zM79.8 24.2c-.5-1.2-2.6-.8-2.6-.8v-.2c.1 0 2.2-.4 2.8.9l-.2.1zM80.4 23.3c-1.2-1.8-3.7-.8-3.7-.7l-.1-.2s2.6-1.2 3.9.8l-.1.1z"/><path d="M77.4 22.2c-.8-2.4-3.1-1.7-3.2-1.6l-.1-.2s2.6-.8 3.5 1.8h-.2z"/><path d="M78.6 22.1c-.2-1.3-.8-2.1-1.6-2.6-1.5-.8-3.4.1-3.4.2l-.1-.2c.1 0 2-1 3.6-.2.9.5 1.5 1.4 1.7 2.7l-.2.1z"/><path d="M80 22.6h-.2c0-1.5.1-3.2-2.4-4.4-2.3-.8-4.6 1.1-4.6 1.1l-.1-.1s2.3-2 4.8-1.1c2.5 1.1 2.5 3 2.5 4.5z"/><path d="M73.5 18.7c-.1-.2-.1-.3-.2-.3-.1-.1-.3 0-.3 0l-.1-.2s.2-.1.5 0c.2.1.3.2.4.4l-.3.1zM74.4 18.2c-.1-.5-.5-.8-1-.8v-.2c.6 0 1.1.4 1.2.9l-.2.1zM75.6 18c-.6-1.6-1.6-1.6-1.6-1.6v-.2s1.2 0 1.8 1.7l-.2.1zM80.9 22.2c-.3-.5-1-.4-1-.4v-.2s.9-.1 1.2.5l-.2.1zM81.5 21.3c-.5-.7-1.6-.4-1.7-.4l-.1-.2c.1 0 1.3-.4 1.9.5l-.1.1zM82 20.4c-.8-1.2-2.5-.5-2.5-.5l-.1-.2s1.9-.8 2.8.5l-.2.2zM76.6 18c-.4-2.3-2.1-2.5-2.1-2.6v-.2s1.9.3 2.3 2.7l-.2.1zM82.6 19.4c-1.3-1.3-3.6-.2-3.7-.2l-.1-.2s2.5-1.2 3.9.2l-.1.2z"/><path d="M79.4 18.8c-.1-.6-.5-1.1-.9-1.4-.9-.5-2-.3-2-.3v-.2s1.2-.3 2.1.3c.5.3.9.8 1 1.5l-.2.1z"/><path d="M80.6 18.7c-.2-1.1-.7-1.9-1.4-2.4-1.4-.8-3.3-.1-3.3-.1l-.1-.2c.1 0 2-.7 3.4.1.8.5 1.3 1.3 1.5 2.5l-.1.1z"/><path d="M82 18.9c-.2-1.9-.8-3.2-2-3.8-2-1.1-5 .4-5 .4v-.1c.1-.1 3-1.6 5.2-.4 1.2.6 1.9 2 2.1 3.9H82z"/><path d="M76 15.1c-.2-.6-.9-.6-.9-.6v-.2s.9-.1 1.1.7l-.2.1zM77.1 14.8c-.2-.7-.8-1.2-1.6-1.2v-.2c.8 0 1.5.6 1.7 1.3l-.1.1zM78.2 14.6c-.4-2-2.1-2.2-2.1-2.2v-.2s1.8.2 2.3 2.3l-.2.1zM83 18.5c-.2-.6-1-.5-1.1-.5v-.2s1.1-.1 1.3.6l-.2.1zM83.6 17.5c-.6-.8-1.8-.3-1.8-.3l-.1-.2s1.4-.6 2.1.4l-.2.1zM84.1 16.6c-.9-1.3-2.7-.3-2.8-.3l-.1-.2s2-1.1 3 .4l-.1.1zM79.5 14.8h-.2c.1-2.3-2.6-3.5-2.6-3.5l.1-.2s2.8 1.3 2.7 3.7zM84.6 15.6c-1.4-1.6-4-.2-4.1-.2l-.1-.2s2.8-1.5 4.3.2l-.1.2z"/><path d="M81 15.1c-.2-.5-.4-.9-.8-1-.4-.2-.8.1-.8.1l-.1-.2s.5-.3 1-.1c.4.2.7.5.9 1.1l-.2.1z"/><path d="M81.9 14.8c-.1-.8-.4-1.3-.9-1.6-.9-.5-2 0-2 0l-.1-.2c.1 0 1.2-.4 2.1 0 .6.3 1 .9 1.1 1.8h-.2z"/><path d="M83.3 14.8c-.1-1.3-.6-2.2-1.4-2.7-1.5-.9-3.7.1-3.7.1l-.1-.2c.1 0 2.3-1 3.9-.1.8.5 1.3 1.4 1.5 2.8l-.2.1z"/><path d="M85 14.8c-.4-1-1.7-.7-1.7-.6V14s1.4-.4 1.9.8H85zM85.6 13.8c-.7-1.2-2.5-.5-2.5-.5l-.1-.2s2-.7 2.8.6l-.2.1zM86.2 12.7c-1.1-1.5-3.9-.4-3.9-.4l-.1-.2c.1-.1 2.9-1.2 4.2.4l-.2.2zM80.1 11.7c-.7-1.9-2.3-2.1-2.4-2.1v-.2s1.8.2 2.6 2.2l-.2.1zM79 11.9c-.6-1.5-1.8-1.5-1.9-1.5v-.2s1.4 0 2.1 1.6l-.2.1z"/><path d="M81 11.7c-.2-2.8-2.8-2.9-3-2.9v-.2s2.9.2 3.1 3.1H81z"/><path d="M82.8 11.9s-.2-.7-.7-.9c-.3-.1-.7-.1-1.1.1l-.1-.2c.5-.2.9-.3 1.3-.1.6.3.8 1 .8 1.1h-.2z"/><path d="M83.9 11.8c-.1-.8-.4-1.4-1-1.7-1-.6-2.4 0-2.4 0l-.1-.2c.1 0 1.5-.6 2.6 0 .6.3.9 1 1.1 1.9h-.2z"/><path d="M85 11.9c-.2-1.6-.8-2.6-1.8-3-1.8-.7-3.4.5-3.5.5l-.1-.2s1.8-1.3 3.6-.5c1 .4 1.7 1.5 1.9 3.1l-.1.1z"/><path d="M80.3 8.9c-.3-1.3-1.8-1-1.8-1v-.2s1.7-.3 2.1 1.1l-.3.1z"/><path d="M81.2 8.7c-.5-1.9-2.2-1.6-2.3-1.5V7s2-.3 2.5 1.7h-.2z"/><path d="M82.3 8.7c-.5-2.7-2.8-2.5-2.9-2.5V6s2.6-.3 3.1 2.6l-.2.1zM86.6 11.8c-.3-.9-1.5-.5-1.6-.5v-.2s1.4-.4 1.8.6l-.2.1zM87.1 10.8c-1-.9-2.4-.5-2.4-.5l-.1-.2c.1-.1 1.6-.4 2.6.6l-.1.1zM87.7 9.7c-1.3-1.4-3.6-.3-3.7-.3v-.2s2.5-1.2 3.9.4l-.2.1z"/><path d="M84.9 9c-.1-.6-.4-1-.8-1.3-.8-.5-2-.2-2-.2l-.1-.1c.1 0 1.3-.4 2.2.2.5.3.8.8.9 1.4h-.2z"/><path d="M86.2 8.9c-.3-1.4-.9-2.3-1.7-2.6-1.4-.6-3.1.5-3.1.5l-.1-.2c.1 0 1.8-1.1 3.3-.5.9.4 1.5 1.3 1.8 2.8h-.2z"/><path d="M87.5 9.3h-.2s.1-3.8-2.5-4.5c-2.4-.6-4.3 1.5-4.3 1.5l-.1-.1s2-2.2 4.5-1.6c2.7.8 2.6 4.7 2.6 4.7z"/><path d="M80.9 5.7c-.1-.4-.6-.6-1-.5V5c.5-.2 1 .1 1.2.6l-.2.1zM81.8 5.1c-.4-1.2-1.3-.9-1.4-.9l-.1-.2s1.2-.3 1.6 1l-.1.1zM82.7 4.7c-.3-1.5-1.8-1.5-1.8-1.5V3s1.7 0 2 1.7h-.2zM88.2 8.7c-.2-.5-.8-.3-.8-.3l-.1-.2c.3-.1.8-.1 1 .4l-.1.1zM88.6 7.8c-.3-.7-1.4-.4-1.4-.4l-.1-.2c.4-.1 1.3-.2 1.6.5l-.1.1zM89 6.9c-.6-1-2.2-.4-2.2-.4l-.1-.2s1.7-.7 2.4.5l-.1.1zM83.7 4.6c-.2-1.8-2.2-2.5-2.2-2.5l.1-.2s2.2.8 2.4 2.7h-.3zM86.4 5.8l-.1-.2c.1-.1 2.1-1.3 3.4-.1l-.1.1c-1.2-1-3.2.2-3.2.2z"/><path d="M87.3 5.3c-.7-2.6-3.7-1.8-3.9-1.8l-.1-.2s3.3-.9 4.1 1.9l-.1.1z"/><path d="M88.5 5.2C88 3.5 87.1 2.4 86 2.1c-1.6-.5-3.2.6-3.2.6l-.1-.1s1.6-1.1 3.2-.7c1.3.3 2.3 1.4 2.9 3.2l-.3.1z"/><path d="M89.5 5.4h-.2S89.5 2 86.8.8C84.1-.1 82 2.2 82 2.2l-.1-.1s2.2-2.4 5-1.4c2.7 1.2 2.6 4.7 2.6 4.7z"/><path d="M82.7 1.5c0-.1-.1-.2-.2-.3-.2-.1-.5 0-.5 0V1s.4-.1.6.1c.1.1.2.2.2.4h-.1zM83.6 1c-.1-.3-.3-.5-.5-.7-.3-.1-.6 0-.6 0l-.1-.2s.4-.2.8 0c.3.1.5.4.6.8l-.2.1zM84.6.6C84.1-.9 83-.7 82.9-.7v-.2S84.3-1 84.8.6h-.2zM90 4.7c-.3-.4-.6-.3-.6-.3l-.1-.2s.5-.2.8.3l-.1.2zM90.4 3.8c-.3-.6-1.2-.4-1.2-.4v-.2s1.1-.2 1.5.5l-.3.1zM90.8 2.7c-.7-.9-2.1-.2-2.1-.2l-.1-.2s1.6-.8 2.3.2l-.1.2zM85.6.6c-.2-1.1-1-2.1-2.1-2.4V-2c1.2.4 2 1.4 2.3 2.6h-.2zM88.2 1.8l-.1-.2c.1-.1 2.3-1.3 3.4-.1l-.1.1c-1-1-3.2.2-3.2.2z"/><path d="M89 1.3c-1-2.5-3.7-1.8-3.7-1.8l-.1-.2s2.9-.8 3.9 1.9l-.1.1z"/><path d="M90.1 1.1c-.3-1.3-1-2.1-1.9-2.5-1.6-.7-3.5.2-3.6.2l-.1-.2c.1 0 2-1 3.7-.2 1 .4 1.6 1.3 2 2.7h-.1z"/><path d="M91.2 1.4H91c0-2.1-.9-3.6-2.5-4.2-2-.5-3.8.6-4.5 1.1h-.1v-.2c.7-.5 2.5-1.6 4.7-1.1 1.7.6 2.6 2.2 2.6 4.4z"/><path d="M91.6.6c-.1-.2-.3-.3-.6-.2V.3c.3-.1.6 0 .8.3h-.2zM92.1-.3c-.4-.5-1.2-.2-1.2-.2l-.1-.2s1-.4 1.5.2l-.2.2zM92.6-1.3c-.9-.7-2.2-.1-2.2-.1l-.1-.2c.1 0 1.4-.7 2.4.1l-.1.2zM71 8.3h-.4c-.8-.2-1.3-.6-1.4-1.1-.1-.7.5-1.7 1.9-2.8 1.6-1.3 6.6-3.3 9.3-4.3.1-.1.2-.1.3-.1-2.2.5-5.3.6-7.8.7-1.3 0-2.4.1-3.1.1-1.9.2-5-.9-6.2-2.1-.4-.4-.6-.9-.5-1.3C63.7-4 65.6-4 69-3.9c1.9.1 6.4.9 9.3 1.6-2.3-1.2-5.7-3.3-8.3-5l-.5-.3c-1.3-.8-3.2-3.4-3.4-4.9-.1-.4 0-.7.2-.9 1.1-.3 2.1.2 4.3 1.2 1.8.5 3.9 2.1 5.9 3.9-.8-1.3-3.9-6-4.6-8.1-.3-.9-.3-1.6 0-1.8.3-.3.9-.2 1.4-.1.9.2 3 3 5 5.7.4.6 1 1.5 1.5 2.6-.1-.2-.1-.3-.2-.5-.8-2.9-.9-8.8-.1-10 .2-.3.4-.4.6-.4.6.1 1.1 1.6 2.7 6.2 1.8 5.3 1.5 11.2 1.5 11.3 0 0-.8 1.8-1.9 3.8C79.5 3.3 74 8.3 71 8.3zM82-.6c.1 0 .1.1 0 0 .1.2.1.2-1.5.8-2.5 1-7.7 3.1-9.3 4.3-1.3 1.1-1.9 2-1.8 2.6.1.4.5.7 1.2 1 2.1.3 6.4-2.6 11.7-8 1-1.9 1.8-3.6 1.9-3.8 0-.4.2-6.1-1.5-11.2-1.3-3.8-2-6-2.5-6-.1 0-.2.1-.4.3-.7 1.1-.6 7 .2 9.8.2.6.4 1.4.7 2.1C82-6 83.2-3.1 83.2-3h-.1s-1.5-3-2.5-5.6c-.8-1.7-1.6-3.3-2.3-4.1-1.3-1.7-4.1-5.4-4.9-5.6-.5-.1-1-.2-1.2 0-.2.2-.2.8 0 1.7.7 2.5 4.7 8.3 4.7 8.4.2.2.7.8 1.3 1.4l.2.2c.4.4.9.8 1.3 1.3 2.4 2.4 2.9 2.8 2.8 3v.1h-.1c-.1 0-.3-.1-1.4-1.4-.7-.8-1.6-1.8-2.7-2.8l-.3-.3c-2.3-2.3-5.2-4.8-7.5-5.4-2.1-1-3.1-1.4-4.2-1.2-.1.2-.2.4-.1.8.2 1.5 2.1 3.9 3.4 4.8l.5.3c1.8 1.1 6.4 4.1 9.1 5.4 1.1.3 1.8.5 1.8.6v.2c0 .1-.1.1-.3.1-.3 0-.9-.2-1.6-.5-2.7-1-7.8-2.1-10.1-2.1-3.3-.1-5.2-.1-5.7 1.2-.1.3.1.7.5 1.1C65-.2 68 .9 69.8.7c.7-.1 1.8-.1 3.1-.1 2.8-.1 6.3-.2 8.6-.9.3-.2.4-.3.5-.3z"/><path d="M82.4.2S77.6 3.9 76.5 4c-1.1.1-1.1-.4.2-1.3s5.2-3.3 5.2-3.3-4.6.3-7.4-.1-1.8-1.1-1.2-1.3c.7-.3 7.7.5 7.7.5s-4-2-5-3.1-1.7-2.1-.9-2.2 5.5 2.8 6.3 3.4c.3.3.7.5 1 .8 0 0-2.9-3.3-3.6-5s-.3-2.5.3-2.1c.5.5 3.9 5.7 4 6.6 0 0-1-4.1-.7-5.5s.2-1.9.6-1.6 1.1 1.9 1.3 3.6c.1 1.1.1 2.1 0 3.2L82.4.2zM56.5 67.6c-.4 0-.7-.5-.8-1.3-.5-2.4 1.1-6.7 4.5-11.9.1-.1.1-.2.1-.2l4.1-5.1s1.9-2.7 3-4.2c.8-.5 1.9-.4 2.5.2.5.5.6 1.1.2 1.8-.4.8-1.8 1.9-3.3 2.9 2-.9 5.2-2.2 7-2 .8.1 1.1.5 1.1.7.1.8-1.1 2-2.9 2.9-.9.4-2.5.8-4.2 1.1 1.3-.1 2.5-.2 3.2-.3 1.5-.1 4.4.6 4.9 1.6.1.2.2.5-.2.9-1 1.1-4.2.7-5.9.5-.4-.1-.8-.1-1-.1-.2 0-.7-.1-1.3-.2.9.3 1.9.7 3 1.2.1 0 .2.1.2.1.4.2 2.5 1.7 2.9 2.9.1.3.1.6-.1.8-.7 1-2.8.2-4.4-.5-.1 0-.1-.1-.2-.1-.4-.1-3.2-1.9-5.4-3.2 2.1 1.5 5 3.9 5.6 5.3.5 1.2.6 2.2.1 2.6-.5.4-1.3.4-2.3-.1-1.6-.8-3.7-4.3-4.8-6.4.1.5.2 1 .2 1.4 0 .4 0 1.1.1 2 .1 1.8.2 4.1 0 5-.2.7-.5.9-.7.9-.5 0-1.1-.6-1.6-1.9-.3-.7-.4-1.7-.4-2.8v.1c0 .1-.1.2-.2.5-.9 2.3-2.1 4.9-3 4.9zm4-13.4s-.1.1-.1.2c-3.3 5.2-4.9 9.4-4.4 11.8.1.7.3 1.1.6 1.1.9.1 2.4-3.5 2.9-4.7.1-.2.2-.4.2-.5.1-.2.2-.6.3-1 .1-1.5.4-2.9.4-3h.2c0 .1-.2 1.7-.4 2.9-.2 1.5-.2 3 .2 3.9.5 1.1 1 1.8 1.4 1.8.2 0 .4-.3.5-.8.2-.9.1-3.2 0-4.9 0-.9-.1-1.6-.1-2 0-1.1-.9-3-.9-3.1l.2-.1c0 .1 3.3 6.9 5.5 8 1 .5 1.7.5 2.1.1.4-.4.4-1.3-.1-2.4-1-2.1-7.7-6.7-7.7-6.7l.1-.2c.1 0 7 4.3 7.6 4.5 0 0 .1 0 .2.1 2.3 1 3.7 1.2 4.2.5.1-.2.1-.4.1-.6-.3-1.1-2.4-2.6-2.8-2.8 0 0-.1 0-.2-.1-1.7-.7-3.1-1.2-4.2-1.6-1.8-.4-3.9-.9-4.1-.9l-.5-.1.5-.1c.7-.1 2.1.2 4.1.9 1.2.2 2.2.4 2.5.4.2 0 .5 0 1 .1 1.7.2 4.8.6 5.7-.4.2-.2.3-.5.2-.7-.5-.9-3.3-1.6-4.7-1.5-1.1.1-3.8.3-5.8.5l-1.8.2h-.7c-.1 0-.1 0-.1-.1v-.1h.2c2-.2 7-.8 9-1.7 1.6-.8 2.9-2 2.8-2.7-.1-.4-.5-.5-.9-.6-2.1-.3-6.7 1.8-8 2.5h-.1c-1.5.9-2.8 1.7-2.9 1.7l-.1-.2c1-.7 1.9-1.2 2.8-1.7 1.8-1.2 4-2.7 4.4-3.6.3-.6.3-1.2-.2-1.6-.5-.5-1.5-.6-2.3-.2-1.1 1.4-3 4.1-3 4.2l-3.8 5.3zm3.1-.3c.1 0 .3.1.4.1-.1 0-.2-.1-.4-.1z"/><path d="M60.6 54.1s-3.1 4.9-2.5 6.2 1.5-1.1 1.5-1.4c0-.3.7-3.3.7-3.3s-.4 4.1.3 4.7c.7.6.6-.6.8-1.2.2-.6-.4-4.2-.4-4.2s1.8 2.9 2.9 3c1.1.1-.5-1.6-.5-1.6l-1.9-1.7s3.4 1.7 4.2 1.6c.9-.1.4-1.1-.6-1.4s-2.9-1.1-2.9-1.1 3.9.8 4.6.4c.7-.4-.9-1-1.7-1-.7 0-1.4 0-2.1.1 0 0 2.8-.7 3.4-1.1.6-.5.5-1-.4-.7-.9.3-3 .9-3 .9s2.1-1.3 2.5-2.4c.4-1.1-.7-.7-1.1-.3-.5.4-3.3 3.7-3.8 4.5zM37.6 59.4c-2.1 0-3-.6-3.3-1.2-.1-.3-.1-.6.2-.7.8-.5 4.5-2 7.9-2.7 1.3-.2 2.5-.4 3.8-.4-3-.3-8.1-1-10.7-2.3-1.6-.8-2.3-1.8-2-2.8.4-1.2 2.1-1.9 3.9-1.6 2.1.3 5.7 2 10.3 4.8-1.3-1.1-4.2-3.8-5.9-6.2-1.8-2.6-2.6-4.7-2.3-6 .1-.5.4-.8.9-1 1.4-.6 3.4 2.1 5.4 4.9.4.5.8 1.1 1.1 1.6 1.2 1.6 2.3 3.4 3.3 5.3-.7-3-3.1-12.8-2.3-14.5.6-1.2 1.1-1.8 1.7-1.8.5 0 .9.4 1.2 1.2.7 1.6 1.7 7.3 1.9 10.2.5-2.8 1.3-6.3 2-7 .9-1 1.7-1.5 2.2-1.4.3 0 .5.2.6.5.5 1-.2 4.2-.8 5.2-.2.3-.6 1-1 1.8-1 1.7-2.3 4.1-3.5 5.9-1.3 1.8-2 2.7-2.1 2.8-.1.1-2 3-8 4.6-1.9.7-3.4.8-4.5.8zm9.5-4.7c-1.6 0-3.1.1-4.7.4-3.4.6-7 2.1-7.8 2.6-.2.1-.2.3-.1.5.3.7 2.3 1.7 7.5.4 6.1-1.6 7.9-4.5 7.9-4.5s.8-1 2.1-2.8c1.1-1.9 2.5-4.2 3.5-5.9.5-.8.8-1.5 1-1.8.6-1 1.3-4.1.8-5-.1-.3-.3-.4-.5-.4-.5-.1-1.2.4-2 1.3-.7.8-1.6 4.9-2.1 7.8v.4c-.2 2-.5 2.6-.5 2.6l-.3.5.1-.6c0-.1.2-1.4.5-3 0-2.4-1.2-9.3-1.9-11-.3-.7-.7-1.1-1-1.1-.5 0-1 .6-1.5 1.6-.9 1.9 2.5 15.1 2.5 15.2l.2.9-.4-.8c-1.1-2.2-2.3-4.2-3.7-6-.4-.5-.8-1-1.1-1.6-1.9-2.7-3.9-5.4-5.2-4.8-.4.2-.7.5-.8.9-.3 1.2.5 3.2 2.2 5.8 1.7 2.4 4.6 5.1 5.9 6.2.8.7.8.7.7.8-.1.1-.1 0-.3 0l-.1-.1c-4.9-3-8.7-4.8-10.8-5.1-1.9-.3-3.4.5-3.7 1.5-.3.9.4 1.8 1.9 2.5 3.8 1.8 12.9 2.4 13 2.5v.2c-.4-.1-.8-.1-1.3-.1z"/><path d="M50.3 53.7c-.2.2-.9 1.6-3.1 2.8-2.2 1.2-6 1-5.5.7.5-.4.9-.7 3.1-1.2 1.3-.3 2.6-.7 3.8-1.4 0 0-7-1.8-7-2.3 0-.5.6-.8 3.8.1 3.2 1 3.2 1.2 3.5 1.3.3.2-4.6-4.8-4.2-6.2.4-1.4 2.6.9 3.1 1.8s2.7 3.4 2.7 3.4-1.2-5.8-.3-6.3.9.5 1 .8c.2.3.5 3.7.5 3.7s1.2-3.9 1.6-3.5c.4.3.1 1.6-.3 2.3-.3.6-2.7 4-2.7 4zM17.4 113.4c-.6-.1-1-.8-1.2-2.1-.5-3.5 4.6-10.4 4.8-10.7 0 0 .5-.7 1.9-2.2 1.3-1.4 6.8-3.3 7.8-3.6.6-.2 2.3-.3 2.7.3.3.4.1.9-.5 1.6-1.7 1.9-7.1 2.4-8.9 2.6 1 .2 3.2.7 5 1 1.5.3 2.8.6 3.1.6.4.1 1.6.5 1.7 1.2 0 .4-.4.9-1.2 1.3-1.5.7-4.7-.7-7.1-2 .5.3.9.6 1.2.8 0 0 4 3.6 4.5 5.7 0 .5-.2.9-.5 1-1 .5-2.8-.7-3-.8-1.6-.6-3-2.5-3.9-4.3.3.8.5 1.4.5 1.7 0 .2 0 .5.1.9.2 1.8.5 5.2-.1 6-.3.3-.6.6-1 .6-.5-.1-1-.8-1.6-2.5-.5-1.4-.5-3.9-.3-6-.5 1.8-2 6.5-2.4 7.4-.3.5-.9 1.5-1.6 1.5zM32 94.8c-.5 0-.9.1-1.2.1-1 .3-6.4 2.2-7.7 3.6-1.3 1.5-1.8 2.2-1.9 2.2-.1.1-5.3 7.1-4.8 10.5.2 1.5.6 1.9.9 2 .5.1 1.1-.7 1.3-1.3.4-.9 2.1-6.1 2.5-7.6.1-.5.2-.9.3-1.4.1-1.3.3-2.2.3-2.3h.2c-.1.7-.2 1.5-.3 2.2-.3 2.4-.5 6 .1 7.8.6 1.6 1 2.3 1.4 2.4.2 0 .5-.1.8-.5.6-.7.3-4.2.1-5.8 0-.4-.1-.7-.1-.9 0-.5-.7-2.2-1.2-3.5-.4-1-.7-1.7-.7-1.8l.2-.1c0 .1.3.8.7 1.7.9 2 2.7 5.3 4.8 6.2 0 0 1.9 1.2 2.8.8.3-.1.4-.4.4-.9-.3-1.7-3.3-4.6-4.4-5.6-.5-.4-1.6-1.1-2.6-1.6-1.4-.8-1.6-.9-1.6-1v-.1h.1c.1-.1.2 0 1.3.6 2.3 1.3 7 3.9 8.8 3 .8-.4 1.1-.7 1.1-1.1-.1-.5-.9-.9-1.5-1.1-.3-.1-1.6-.3-3.1-.6-5.5-1.1-5.5-1.1-5.6-1.3v-.1h.1s.1 0 .6-.1c4.7-.4 7.6-1.3 8.7-2.5.4-.4.8-1 .5-1.4-.1-.4-.7-.5-1.3-.5z"/><path d="M21.5 100.4s-4.1 6.5-3.8 8.7c.3 2.1 2.9-5.2 2.9-5.2l1.3-3.4s-.3 6.4.2 7.2c.5.8 1 .5 1-1.4s-.7-4.8-.6-4.9-.3-1-.3-1 2.7 4 4.1 4.1c1.4.2.8-.7.3-1.2s-4.1-3.3-4.1-3.3 4.4 2.4 5.1 1.8c.7-.6-1.6-1.3-2-1.4-.4-.2-2.4-1-2.4-1s3.2-1 4-1.7c.8-.8-.5-.8-1.3-.4s-3.2 1.7-3.8 2.5l-.6.6zM251.7 150.9l-.1-.1c2.1-2.5.5-4.3.5-4.3l.1-.1c0-.1 1.7 1.9-.5 4.5z"/><path d="M172.1 201.2l-.2-.1c.1-.2 13-22.1 22.1-27.6 10.4-6.3 22.3-12.4 27-14.7 5.5-2.7 18-7.5 26.2-10.7 1.8-.7 3.4-1.3 4.6-1.8 7-2.7 36.6-16.4 47.2-23.6 11.7-7.9 38.2-27 42.3-31.3 4.1-4.4 7.2-7.3 7.3-7.3l.1.1s-3.2 3-7.3 7.3c-4.3 4.5-32.1 24.5-42.3 31.3-10.6 7.2-40.2 20.9-47.2 23.6-1.2.5-2.8 1.1-4.6 1.8-8.2 3.2-20.7 8-26.2 10.7-4.6 2.3-16.6 8.3-26.9 14.7-9.1 5.6-21.9 27.4-22.1 27.6z"/><path d="M185.9 200l-.2-.1c.1-.1 7.1-14.7 15.7-20.2 8.4-5.4 31.2-17.1 34.2-18 2.8-.8 48-20.8 55.1-24.2 7-3.3 32.7-20.3 40.2-26.3 2.6-2.1 5.1-4.3 7.6-6.4 4.7-4 8.7-7.5 11.2-8.5l.1.2c-2.5.9-6.5 4.4-11.1 8.5-2.5 2.1-5 4.3-7.6 6.4-7.5 6-33.2 23-40.2 26.3-7.2 3.4-52.3 23.4-55.2 24.2-2.7.8-25.3 12.2-34.2 18-8.5 5.4-15.6 19.9-15.6 20.1zM180.1 195h-.2c0-1.8-2-2.9-2-2.9l.1-.2c.1 0 2.1 1.1 2.1 3.1zM181.3 195.3c-.7-3.5-2.6-4.3-2.6-4.4l.1-.2c.1 0 2 .9 2.7 4.5l-.2.1z"/><path d="M182.4 195.8l-.2-.1s2.6-4.6 7.8-3.4v.2c-5.1-1.2-7.6 3.3-7.6 3.3z"/><path d="M184.8 193.2c-.5-.8-1.2-1.2-1.9-1.3-1.3-.2-2.5.6-2.5.6l-.1-.2c.1 0 1.3-.9 2.6-.7.8.1 1.5.6 2 1.4l-.1.2z"/><path d="M186.5 192.4c-.8-1.2-1.8-1.8-2.9-2-2-.3-3.9 1.1-3.9 1.1l-.1-.2c.1-.1 1.9-1.5 4.1-1.2 1.2.2 2.2.9 3 2.1l-.2.2z"/><path d="M181.1 190.6c-.2-1.2-1.3-1.1-1.3-1.1v-.2s1.3-.1 1.6 1.3h-.3zM182.9 190.2c-.1-2.3-2-2.4-2-2.4v-.2s2 .1 2.2 2.6h-.2zM186 191.5l-.1-.1s2.4-2.1 5.1-.3l-.1.2c-2.6-1.8-4.9.2-4.9.2zM184.7 190.6h-.2c.7-2.9-2.3-4.6-2.3-4.6l.1-.2c.1 0 3.2 1.8 2.4 4.8z"/><path d="M184.7 190.7l-.1-.1s4-3.5 7.3-.8l-.1.2c-3.2-2.7-7 .6-7.1.7z"/><path d="M186.9 189.2c-.2-.5-.5-.9-.9-1-.7-.3-1.5.2-1.5.2l-.1-.2s.9-.6 1.7-.3c.4.2.8.5 1 1.2l-.2.1z"/><path d="M188.7 188.8c-.5-1.1-1.2-1.8-2.1-2.1-1.4-.4-2.8.5-2.8.5l-.1-.2c.1 0 1.5-.9 2.9-.5.9.3 1.7 1 2.2 2.2l-.1.1z"/><path d="M190.4 189.1c-.5-2-1.5-3.2-2.8-3.7-2.2-.8-4.8.9-4.9.9l-.1-.2c.1-.1 2.7-1.8 5.1-.9 1.4.5 2.3 1.8 2.9 3.9h-.2z"/><path d="M192.7 188.5c-1.1-.8-2.5-.3-2.5-.3l-.1-.2c.1 0 1.5-.5 2.7.3l-.1.2zM193.6 187.4c-1.8-1.3-3.8-.2-3.8-.2l-.1-.2s2.1-1.2 4 .2l-.1.2zM189 186.2c-.1 0-.1 0 0 0v-.2s.1 0 .2-.1c2.2-.9 4.1-1 5.6-.1l-.1.2c-1.4-.8-3.3-.8-5.4.1-.2.1-.3.1-.3.1zM184.3 185.4h-.2c0-.7-.7-.9-.7-.9v-.2c0 .1.9.3.9 1.1zM185.4 185.1l-.2-.1c.2-.2.2-.5.1-.7-.2-.6-1.1-1-1.1-1l.1-.2s1 .4 1.2 1.1c.2.3.1.6-.1.9zM187.4 185.1h-.2c.4-2.2-1.9-2.9-2-2.9l.1-.2s2.5.8 2.1 3.1z"/><path d="M189.9 185.8c-.1-.6-.3-1-.6-1.3-.7-.4-1.8 0-1.8 0l-.1-.2s1.2-.5 2 0c.4.3.7.7.7 1.4l-.2.1z"/><path d="M191.4 185.4c-.2-.8-.6-1.4-1.2-1.8-1.3-.7-3.2-.2-3.2-.2l-.1-.2c.1 0 1.9-.6 3.3.2.7.4 1.1 1 1.3 1.9l-.1.1z"/><path d="M192.9 185.4c-.1-1.3-.8-2.4-1.9-3-1.8-1.1-4.6.4-4.7.4l-.1-.2c.1-.1 3-1.5 4.9-.4 1.1.7 1.8 1.9 1.9 3.2h-.1z"/><path d="M187.6 182.1c0-.3-.1-.6-.3-.7-.4-.4-1.1-.3-1.1-.3v-.2s.8-.1 1.2.4c.2.2.4.5.4.9l-.2-.1zM189.1 181.8c0-1.7-1.8-1.9-1.9-1.9v-.2s2 .2 2.1 2.1h-.2zM190.9 182.1l-.2-.1c.3-.8.2-1.5-.1-2-.7-1.1-2.3-1.3-2.3-1.3v-.2c.1 0 1.7.2 2.4 1.4.4.6.4 1.4.2 2.2zM195.5 185c-.6-.7-2.7-.5-2.7-.5v-.2c.1 0 2.3-.2 2.9.6l-.2.1zM196.4 184.1c-1.6-1.7-3.9-.4-3.9-.4l-.1-.2s2.4-1.4 4.1.4l-.1.2zM197.3 183.2c-2.2-2.4-5.5-.4-5.6-.4l-.1-.2s3.5-2.1 5.8.5l-.1.1z"/><path d="M192.6 182.2c-.1-1.1-1.6-1-1.7-1v-.2s1.7-.1 1.9 1.2h-.2zM194.3 181.9c-.3-.8-.8-1.4-1.5-1.6-1-.4-2 0-2 0l-.1-.2s1.1-.5 2.1 0c.7.3 1.2.9 1.6 1.7l-.1.1z"/><path d="M195.7 182.1c-.2-1.4-.7-2.4-1.6-2.9-1.6-.9-3.9.2-4 .2l-.1-.2c.1 0 2.4-1.2 4.1-.2 1 .5 1.5 1.5 1.7 3l-.1.1z"/><path d="M191.2 178.9c-.1-.5-.3-.9-.6-1.1-.5-.4-1.2-.2-1.2-.2v-.2s.8-.1 1.4.3c.4.3.6.7.7 1.2h-.3zM192.7 178.8h-.2c.2-1.8-2-2.3-2-2.3v-.2c.1 0 2.4.5 2.2 2.5zM194.2 179.2l-.2-.1v-.1c.2-2.9-2.4-3.4-2.4-3.4v-.2s2.8.6 2.6 3.7v.1zM198.1 182.3c-.5-1.4-2.4-.9-2.5-.9v-.2s2.1-.5 2.7 1l-.2.1zM199.3 181.3c-.7-1.7-3.9-.8-4-.8v-.2c.1 0 3.4-.9 4.2.9l-.2.1z"/><path d="M200.3 180.5c-1-1.7-2.9-2-5.5-1-.2.1-.2.1-.2 0l.1-.1-.1.1v-.1h.1c2.7-1 4.8-.6 5.8 1.1h-.2z"/><path d="M195.8 179.1h-.2c0-.3 0-.5-.2-.6-.4-.5-1.3-.4-1.3-.4v-.2s1 0 1.5.5c.2.1.2.4.2.7zM197 178.8c-.1-.8-.5-1.4-1-1.7-.9-.5-2.2-.1-2.2 0l-.1-.2c.1 0 1.3-.5 2.3.1.6.3.9 1 1.1 1.8h-.1z"/><path d="M198.6 179c-.2-1.5-.7-2.5-1.6-3-1.7-1-4.1.1-4.1.1l-.1-.2c.1 0 2.5-1.1 4.3-.1 1 .6 1.5 1.6 1.7 3.2h-.2z"/><path d="M194.1 175.6h-.2c0-.2 0-.4-.1-.6-.3-.4-.9-.4-.9-.4v-.2s.7.1 1 .5c.2.2.2.4.2.7zM195.3 175.5l-.2-.1c.1-.5.1-.8-.1-1.1-.3-.5-1-.5-1-.5v-.2s.7.1 1.1.6c.3.4.3.8.2 1.3zM196.8 175.8h-.2c.2-1.8-1.1-2.7-1.3-2.8v-.1l-.1-.1s.1 0 .3.1c.2.1 1.5 1.1 1.3 2.9zM197.7 176.4l-.2-.1c.9-2.3-1-4-1-4.1l.1-.1s2 1.9 1.1 4.3zM201.1 179.8c-.2-1.4-2.5-1.6-2.6-1.6v-.2c.1 0 2.5.2 2.7 1.7l-.1.1z"/><path d="M202.3 179.2c-1.1-2.5-3.9-1.7-4-1.7l-.1-.2s3-.8 4.2 1.8l-.1.1z"/><path d="M203.2 178.6c-1.1-3.1-5.3-2-5.3-2l-.1-.2s4.4-1.2 5.6 2.1l-.2.1z"/><path d="M198.8 176.4l-.2-.1c.1-.2.1-.4 0-.5-.2-.3-.8-.3-.8-.3v-.2s.7 0 1 .4c.1.2.1.4 0 .7zM200 176.3h-.2c.1-.6 0-1-.3-1.3-.6-.6-1.7-.5-1.7-.5v-.2c.1 0 1.3-.1 1.9.5.3.4.4.8.3 1.5z"/><path d="M201.4 176.6h-.2c.2-1.1.1-1.9-.4-2.4-.6-.6-1.7-.8-3.3-.6v-.2c1.7-.2 2.8 0 3.4.6.5.6.7 1.4.5 2.6z"/><path d="M198.6 173.4l-.2-.1c.2-.3.2-.6 0-.9-.3-.5-1-.7-1-.7v-.2s.8.2 1.1.8c.3.4.3.7.1 1.1zM199.8 173.5l-.2-.1c.3-.4.3-.8.2-1.2-.2-.8-1.1-1.3-1.1-1.3l.1-.2s1 .5 1.2 1.4c.2.5.1 1-.2 1.4zM201 174.3l-.2-.1c1.4-2.4-.7-3.9-.8-3.9l.1-.2c.1 0 2.4 1.6.9 4.2zM204.4 177.8c-.3-2.2-3-2.1-3-2.1v-.2s2.9-.1 3.2 2.3h-.2z"/><path d="M205.8 177c0-.7-.3-1.2-.7-1.5-1.3-1-3.8-.5-3.8-.5v-.2c.1 0 2.7-.5 4 .6.5.4.8 1 .8 1.7l-.3-.1z"/><path d="M202.7 174.7h-.2c.1-1.4-1.1-1.5-1.1-1.5v-.2s1.4.2 1.3 1.7zM204 174.8h-.2c.3-2.2-2.4-2.6-2.5-2.7v-.2c.1 0 3 .4 2.7 2.9z"/><path d="M205.2 175.3h-.2c.3-1.3.2-2.3-.5-3-1.2-1.3-3.6-1.1-3.6-1.1v-.2c.1 0 2.6-.2 3.8 1.2.6.7.8 1.8.5 3.1z"/><path d="M202.6 171.1h-.2c.1-.7-.3-1.4-.9-1.6l.1-.2c.6.3 1.1 1 1 1.8zM203.8 171.6l-.2-.1c.9-1.5-.8-2.7-.9-2.7l.1-.2s1.9 1.3 1 3zM204.6 172.2l-.1-.1c1.8-1.9-.4-4.1-.4-4.1l.1-.1c.1-.1 2.3 2.2.4 4.3zM207.1 176.4h-.2c.1-1.5-1.6-1.9-1.6-1.9v-.2s1.9.5 1.8 2.1zM208.1 175.8h-.2c.1-.4 0-.8-.3-1.1-.7-.9-2.4-1.1-2.4-1.1v-.2c.1 0 1.8.2 2.5 1.1.3.4.5.8.4 1.3zM209.2 175.1c-.6-2.8-4.2-2.4-4.2-2.4v-.2s3.8-.5 4.4 2.5l-.2.1z"/><path d="M206 172.6l-.2-.1c.1-.2.1-.4.1-.6-.2-.4-.8-.5-.8-.5v-.2s.7.1 1 .6c.1.3 0 .5-.1.8zM207.1 172.8h-.2c.2-.7.1-1.2-.2-1.6-.5-.7-1.4-.8-1.4-.8v-.2s1 .1 1.5.9c.4.4.5 1 .3 1.7z"/><path d="M208.3 173.5l-.2-.1c.4-1.2.4-2.2-.1-2.9-.9-1.3-3-1.3-3-1.3v-.2c.1 0 2.2 0 3.2 1.4.5.7.6 1.8.1 3.1z"/><path d="M206.2 169.2h-.2c.1-.5 0-.9-.2-1.2-.4-.4-1-.5-1-.5v-.2s.7 0 1.1.5c.3.4.4.9.3 1.4zM207.4 169.7l-.2-.1c.3-.7.3-1.3 0-1.8-.4-.7-1.2-.9-1.3-.9v-.2s1 .2 1.4 1c.4.6.4 1.2.1 2zM208.3 170.6l-.2-.1c.6-1 .8-1.9.6-2.7-.3-1.1-1.4-1.7-1.4-1.7l.1-.2s1.1.6 1.5 1.8c.2.9 0 1.9-.6 2.9zM210.4 174.5h-.2c.1-1.7-1.7-1.9-1.8-2v-.2c.1 0 2.1.3 2 2.2zM211.6 173.8c-.4-2.5-3.1-2.3-3.2-2.2v-.2s3-.2 3.4 2.4h-.2z"/><path d="M212.7 173.2c-.2-1.1-.7-1.8-1.4-2.2-1.3-.8-2.9-.3-2.9-.3l-.1-.2c.1 0 1.7-.5 3.1.3.8.5 1.3 1.3 1.5 2.4h-.2z"/><path d="M209.7 170.4h-.2c0-.3 0-.6-.2-.8-.2-.2-.6-.2-.6-.2v-.2s.4 0 .7.2c.3.3.4.6.3 1zM211 170.7l-.2-.1c.3-.7.2-1.3-.1-1.7-.6-.8-1.9-.7-1.9-.7v-.2c.1 0 1.5 0 2.1.8.4.5.4 1.1.1 1.9z"/><path d="M212.3 171.7l-.2-.1c.5-1.5.4-2.7-.2-3.5-1.1-1.3-3.4-1.1-3.5-1.1v-.2c.1 0 2.5-.2 3.6 1.2.7.9.8 2.1.3 3.7z"/><path d="M209.2 167l-.2-.1s.3-.7 0-1.1c-.1-.2-.3-.3-.5-.3v-.2c.3.1.5.2.6.4.4.5.1 1.2.1 1.3zM213.7 172.7h-.2c.1-.4 0-.7-.1-1-.3-.5-1.1-.5-1.1-.5v-.2s.8.1 1.2.6c.3.3.4.7.2 1.1zM214.9 172.1h-.2c.1-.4 0-.7-.2-1-.6-.8-2-1-2-1v-.2c.1 0 1.5.2 2.1 1.1.3.3.4.7.3 1.1zM216.5 171.2h-.2c0-.6-.1-1.1-.5-1.5-1.1-1.1-3.4-1-3.4-1v-.2c.1 0 2.4-.1 3.5 1 .4.5.6 1.1.6 1.7zM210.6 167.2l-.2-.1c.6-1.6-.7-2.2-.7-2.2l.1-.2s1.4.8.8 2.5zM211.9 168l-.2-.1c1.3-2-.6-3.7-.7-3.8l.1-.1c.1 0 2.1 1.9.8 4z"/><path d="M213.5 168.7l-.2-.1c.2-.4.2-.7 0-1-.3-.5-1.1-.6-1.1-.6v-.2s.9.1 1.3.7c.2.4.2.8 0 1.2z"/><path d="M215 169.1l-.2-.1c.4-.7.4-1.3.2-1.8-.6-1.1-2.8-1.2-2.8-1.2v-.2c.1 0 2.3.1 2.9 1.3.3.5.3 1.2-.1 2z"/><path d="M216 169.9l-.1-.2c.7-.5 1-2.3.3-3.5-1.4-2.2-4.4-1.3-4.4-1.3l-.1-.2s3.2-.9 4.6 1.4c.8 1.4.5 3.3-.3 3.8z"/><path d="M213.1 164.7l-.2-.1c.3-.7-.6-1.1-.7-1.1l.1-.2c.4.2 1 .7.8 1.4zM214.3 164.8l-.2-.1c.5-1.1-.7-1.7-.8-1.8l.1-.2c0 .1 1.4.9.9 2.1zM215.6 165.4l-.2-.1c.2-.8.2-1.5-.1-2-.3-.6-1-.8-1-.8l.1-.2s.7.2 1.1.9c.3.5.3 1.3.1 2.2zM217.8 170.5h-.2c.2-.9-1.1-1.4-1.1-1.4l.1-.2c-.1 0 1.4.5 1.2 1.6zM218.9 170h-.2c.1-1.4-2-1.9-2-1.9v-.2c.1 0 2.3.5 2.2 2.1zM220.1 169.3c-.3-1.8-3.5-2.2-3.5-2.2v-.2c.1 0 3.3.4 3.7 2.3l-.2.1z"/><path d="M218 167.3h-.2c.1-.6.1-1.1-.2-1.5-.6-.9-1.9-1-1.9-1v-.2c.1 0 1.4.2 2.1 1.1.3.4.3 1 .2 1.6z"/><path d="M219.1 167.8l-.2-.1s.7-1.8-.1-3c-.6-.8-1.6-1.1-3.2-1v-.2c1.7-.1 2.8.3 3.4 1.1.9 1.3.1 3.1.1 3.2z"/><path d="M220.1 168.8l-.2-.1s1.4-2.6.2-4.6c-1.6-2.2-4.9-1.1-4.9-1.1l-.1-.2s3.5-1.1 5.2 1.2c1.3 2.1-.2 4.8-.2 4.8z"/><path d="M216.3 162.6l-.2-.1v-.4c-.2-.3-.6-.4-.6-.4v-.2s.5.1.7.4c.2.4.2.5.1.7zM217.7 162.5h-.2c.1-.4 0-.7-.1-1-.2-.3-.5-.3-.5-.3v-.2s.4.1.7.4c.1.3.2.7.1 1.1zM219.1 163h-.2c.4-2.1-.7-2.5-.7-2.5l.1-.2c.1 0 1.2.5.8 2.7zM221.5 168.6h-.2c0-.7-.8-.9-.8-.9v-.2s1 .2 1 1.1zM222.4 168.1c-.2-1.1-1.7-1.6-1.7-1.7l.1-.2c.1 0 1.6.6 1.8 1.8l-.2.1zM223.6 167.3c0-1.6-3-2.1-3-2.1v-.2c.1 0 3.1.5 3.2 2.2l-.2.1zM220 163.8l-.2-.1c.7-1.3.8-2.8.1-4.2l.2-.1c.7 1.4.7 3-.1 4.4z"/><path d="M221.8 165.4l-.2-.1c.2-.6.3-1.1.1-1.5-.3-.8-1.3-1.1-1.3-1.1l.1-.2s1 .4 1.4 1.2c.2.5.1 1.1-.1 1.7z"/><path d="M223.2 166.2l-.2-.1c.5-1.1.6-2.1.2-3-.7-1.4-2.6-1.9-2.6-1.9v-.2c.1 0 2 .5 2.8 2 .3.9.3 2-.2 3.2z"/><path d="M223.8 167.2l-.2-.1c1.3-2 1.6-3.6 1-4.9-1-2-4.4-2.3-4.4-2.3v-.2c.1 0 3.5.3 4.6 2.4.7 1.4.3 3.1-1 5.1z"/><path d="M221.7 160.1h-.2c.2-.8-.4-1-.5-1l.1-.2s.8.2.6 1.2zM223.2 160.7l-.2-.1c.3-.7.3-1.3 0-1.8-.2-.3-.5-.5-.5-.5l.1-.2s.4.2.6.5c.2.5.4 1.1 0 2.1zM224.3 161.5l-.2-.1c1.3-2.7-.5-3.6-.5-3.6l.1-.2c0 .1 1.9 1 .6 3.9zM224.8 166.9h-.2s0-.7-.3-.8l.1-.2c.5.2.4 1 .4 1zM225.7 166.5l-.2-.1s.2-.3.1-.6-.4-.5-.9-.7l.1-.2c.5.2.9.5 1 .8.1.4-.1.8-.1.8zM227.2 165.7h-.2.2-.2c0-.1.1-1.3-2-1.7v-.2c2.4.4 2.2 1.9 2.2 1.9z"/><path d="M225.9 164.1l-.2-.1c.5-.7.6-1.4.4-1.9-.3-1-1.7-1.5-1.7-1.5l.1-.2c.1 0 1.4.5 1.8 1.6.2.6.1 1.4-.4 2.1z"/><path d="M226.9 164.8l-.2-.1c.7-1.2.9-2.2.6-3.2-.6-1.6-2.7-2.3-2.7-2.4l.1-.2c.1 0 2.2.7 2.8 2.5.3 1 .1 2.1-.6 3.4z"/><path d="M227.2 165.6l-.1-.2c.3-.2 2-1.6 1.4-4.7-.9-2.7-4.3-2.5-4.3-2.5v-.2s3.6-.1 4.5 2.7c.6 3.2-1.2 4.7-1.5 4.9z"/><path d="M225.1 158.2c0-.5-.7-.7-.7-.7l.1-.2s.8.3.8.9h-.2zM226.7 158.6l-.2-.1c.2-.5.2-.9 0-1.1-.3-.4-.8-.5-.8-.5v-.2s.6.1 1 .6c.2.4.2.8 0 1.3zM227.9 159.5l-.2-.1c.5-.9.7-1.6.4-2.2-.3-.7-1-.9-1-.9l.1-.2s.8.2 1.2 1c.2.7 0 1.5-.5 2.4zM228.8 164.9h-.2c0-.3-.5-.5-.5-.5l.1-.2s.7.2.6.7zM230.1 164.3h-.2c.1-.2 0-.5-.1-.6-.3-.5-1.2-.6-1.3-.6v-.2s1 .1 1.4.7c.3.1.3.4.2.7zM231.5 163.6h-.2c.2-1.7-2.7-2.1-2.7-2.1v-.2c.2 0 3.2.4 2.9 2.3z"/><path d="M229.8 161.7l-.2-.1c.2-.6.3-1.1 0-1.6-.4-.9-1.5-1.2-1.5-1.2l.1-.2s1.2.4 1.7 1.3c.2.5.2 1.1-.1 1.8z"/><path d="M231 162.3l-.2-.1c.5-1.2.5-2.2.1-3-.7-1.3-2.5-1.6-2.6-1.6v-.2c.1 0 1.9.3 2.7 1.7.5.8.5 1.9 0 3.2z"/><path d="M231.5 163.3l-.2-.1s2-2.7.7-4.8c-1.2-2.2-4.3-1.8-4.3-1.8v-.2s3.3-.4 4.5 1.9c1.4 2.3-.6 5-.7 5z"/><path d="M229.2 156.5h-.2c0-.7-.5-.8-.5-.8v-.2c0 .1.7.2.7 1zM230.7 157h-.2c.3-1.3-.7-1.7-.7-1.7l.1-.2c0-.1 1.2.4.8 1.9zM232.2 158.4l-.2-.1c1.1-2.6-.7-3.7-.7-3.7l.1-.2c.1 0 2 1.2.8 4zM233 162.9h-.2c.1-.5-.7-.7-.7-.7l.1-.2s.9.3.8.9zM234.2 162.4h-.2c.1-.5-.1-.9-.7-1.1-.4-.2-.9-.3-.9-.3v-.2s1.1.2 1.5.8c.2.2.3.5.3.8zM235.8 161.7c-.1-2-3.2-2.5-3.3-2.5v-.2c.1 0 3.3.6 3.4 2.7h-.1z"/><path d="M233.6 159.4l-.2-.1c.2-.3.3-.6.2-.9-.2-.7-1.2-1.2-1.2-1.2l.1-.2s1.1.5 1.3 1.3c.1.4 0 .7-.2 1.1z"/><path d="M235 160.1l-.2-.1c.5-.8.6-1.5.3-2.1-.6-1.4-2.8-1.9-2.8-1.9v-.2c.1 0 2.3.6 2.9 2 .4.7.3 1.5-.2 2.3z"/><path d="M235.9 161.3l-.2-.1s1.9-2.5.8-4.4c-1.3-2.2-4.6-1.9-4.7-1.9v-.2s3.5-.3 4.9 2c1.2 2-.8 4.6-.8 4.6z"/><path d="M233.5 154.9h-.2c0-.6-.5-.9-.5-.9l.1-.2c.1 0 .7.4.6 1.1zM235 155.3l-.2-.1c.2-.3.2-.6.1-.9-.2-.6-.9-.9-.9-.9l.1-.2s.7.4 1 1c.1.4.1.8-.1 1.1zM236.4 156.4l-.2-.1c.4-1 .5-1.8.2-2.4-.3-.8-1-1-1-1l.1-.2s.7.3 1.1 1.1c.3.8.3 1.6-.2 2.6zM237.5 161.1h-.2c0-.7-.8-1-.8-1l.1-.2s.9.3.9 1.2zM239 160.5h-.2c.1-1.2-1.8-1.7-1.8-1.7l.1-.2s1.9.6 1.9 1.9zM240.4 159.9h-.2c.1-2.1-3.4-2.7-3.4-2.7v-.2c.2 0 3.6.6 3.6 2.9z"/><path d="M237.8 157.4l-.2-.1c.5-1.3-.9-2-1-2l.1-.2s1.7.8 1.1 2.3zM239.4 158.1l-.2-.1c.4-.9.4-1.7 0-2.4-.7-1.3-2.5-1.6-2.5-1.6v-.2c.1 0 1.9.4 2.7 1.7.3.8.3 1.7 0 2.6z"/><path d="M240.2 159.1l-.2-.1c.8-1.7 1-3 .5-4-1.1-2.3-4.4-1.8-4.4-1.8v-.2s3.4-.5 4.6 1.9c.5 1.1.3 2.5-.5 4.2z"/><path d="M237.4 153.2h-.2c0-.2 0-.3-.1-.5-.2-.2-.4-.2-.4-.2v-.2s.4.1.6.3c.1.1.2.3.1.6zM239 153.5h-.2c.1-.6-.2-1.2-.7-1.5l.1-.2c.5.3.9 1 .8 1.7zM240.2 154.3l-.2-.1c.7-2-.5-2.8-.6-2.8l.1-.2c.1.1 1.5 1 .7 3.1zM241.5 159.5h-.2c.1-.7-.8-1.3-.8-1.3l.1-.2c.1 0 1 .6.9 1.5zM242.7 159h-.2c.4-1.4-1.6-2-1.6-2l.1-.2c-.1 0 2.1.6 1.7 2.2zM244 158.4h-.2c.1-2.1-3-2.7-3-2.7v-.2c.1 0 3.3.6 3.2 2.9z"/><path d="M242 155.9l-.2-.1c.6-1.6-1.5-2.4-1.5-2.5l.1-.2c0 .1 2.3 1.1 1.6 2.8z"/><path d="M243.3 156.7l-.2-.1c.5-.9.5-1.8.2-2.5-.7-1.5-3.1-1.9-3.1-1.9v-.2c.1 0 2.4.4 3.2 2 .4.8.4 1.7-.1 2.7z"/><path d="M243.9 157.8l-.2-.1c1.1-1.9 1.3-3.4.7-4.5-1.2-2.2-4.7-1.7-4.8-1.7v-.2s3.7-.5 4.9 1.8c.8 1.2.6 2.8-.6 4.7z"/><path d="M242.5 151.7h-.2c.2-1-.3-1.3-.3-1.3l.1-.2s.6.4.4 1.5zM241.2 151.6l-.1-.2c0-.1-.2-.4-.4-.6l.1-.1c.1.1.4.5.4.8.1 0 .1 0 0 .1zM243.7 152.3h-.2c.3-1.6-.5-2.3-.5-2.3l.1-.1c.1-.1 1 .6.6 2.4zM245 157.9h-.2c.1-.7-.6-.9-.6-.9v-.2c.1.1 1 .3.8 1.1zM246 157.5h-.2c.2-1-1.1-1.6-1.1-1.6l.1-.2s1.5.7 1.2 1.8zM247 157s-.3-1.9-2.1-2.5l.1-.2c1.9.6 2.3 2.6 2.3 2.6l-.3.1z"/><path d="M245.9 154.9l-.2-.1c.3-.7.3-1.3 0-1.9-.5-1.1-2-1.6-2-1.6l.1-.2c.1 0 1.6.5 2.1 1.7.3.7.3 1.3 0 2.1z"/><path d="M246.6 155.7l-.2-.1c.7-1.4.8-2.6.2-3.4-.9-1.5-3.2-1.6-3.2-1.6v-.2c.1 0 2.4.2 3.3 1.7.7.9.6 2.1-.1 3.6z"/><path d="M247.1 156.8l-.2-.1c1.3-1.9 1.8-3.5 1.2-4.6-1.3-2.7-4.8-2.2-4.9-2.2v-.2s3.7-.6 5.1 2.3c.6 1.2.2 2.8-1.2 4.8z"/><path d="M245.2 149.9l-.1-.1c.1 0 .1-.1.1-.1 0-.1-.2-.3-.4-.4l.1-.2s.4.2.5.5c-.1.1-.1.2-.2.3zM246.4 150.2l-.2-.1c.2-.2.2-.4.2-.6-.1-.4-.7-.6-.7-.6l.1-.2s.7.3.8.8c.1.2 0 .5-.2.7zM247.7 151.2l-.2-.1c.4-.8.5-1.4.3-2-.2-.6-.7-.8-.7-.8l.1-.2s.6.2.8.9c.2.7.1 1.4-.3 2.2zM248.3 156.5l-.2-.1c.1-.1.1-.3.1-.4-.1-.3-.5-.5-.5-.5l.1-.2s.5.2.6.6c.1.3 0 .5-.1.6zM249.4 156l-.2-.1c.2-.8-1.1-1.3-1.1-1.3l.1-.2c.1.1 1.5.6 1.2 1.6zM250.6 155.4c0-1.5-2.1-2-2.1-2v-.2c.1 0 2.2.6 2.3 2.2h-.2z"/><path d="M249.3 153.7l-.2-.1c.3-.5.4-1 .2-1.5-.3-1-1.5-1.5-1.5-1.5l.1-.2c.1 0 1.3.6 1.6 1.6.2.5.1 1.1-.2 1.7z"/><path d="M250.2 154.2l-.2-.1c.6-1.2.8-2.2.4-2.9-.6-1.3-2.4-1.6-2.4-1.6v-.2c.1 0 1.9.4 2.6 1.7.4.8.2 1.9-.4 3.1z"/><path d="M250.7 155l-.1-.1c1.3-1.4 1.7-2.4.9-4.5-.9-2-3.9-1.7-3.9-1.7v-.2s3.1-.3 4.1 1.9c.8 2.2.3 3.2-1 4.6z"/><path d="M248.8 148.7l-.1-.1c.1-.3-.1-.6-.3-.6l.1-.2c.4.1.6.5.5.8-.2 0-.2.1-.2.1zM250.1 149.1l-.2-.1c.4-.9-.4-1.5-.5-1.5l.1-.2s1.1.7.6 1.8zM251.2 149.8l-.2-.1c1.1-1.6-.2-2.7-.3-2.7l.1-.2s1.5 1.2.4 3zM251.9 155l-.2-.1c.2-.5-.3-.8-.3-.8l.1-.2c.2.2.6.6.4 1.1zM253 154.5h-.2c.2-.8-.9-1.3-.9-1.3l.1-.2s1.2.6 1 1.5zM254.3 153.9h-.2c.1-1.6-2.2-2-2.2-2v-.2c.1 0 2.5.4 2.4 2.2zM255.4 153.3c-.5-2.7-3.5-2.4-3.7-2.4v-.2s3.4-.3 3.9 2.6h-.2z"/><path d="M253.1 150.9l-.2-.1c.2-.2.2-.5.2-.7-.1-.4-.6-.6-.6-.6l.1-.2s.6.2.7.7c.1.3 0 .6-.2.9zM254.3 151.3l-.2-.1c.3-.6.3-1.1.2-1.5-.4-.9-1.5-1.2-1.5-1.2l.1-.2s1.2.4 1.6 1.3c.1.5.1 1.1-.2 1.7z"/><path d="M255.2 152.3l-.2-.1c.7-1.3.8-2.5.4-3.3-.8-1.4-2.8-1.6-2.8-1.6v-.2c.1 0 2.2.2 3 1.7.5.9.4 2.1-.4 3.5z"/><path d="M253.5 147.4l-.2-.1c.2-.6-.4-1.3-.4-1.3l.1-.1c.2 0 .8.8.5 1.5zM254.3 147.8l-.2-.1c.6-1.3-.3-2.1-.3-2.1l.1-.2c.1.2 1.1 1 .4 2.4zM255.3 148.5l-.2-.1c.9-2-.3-3.1-.4-3.1l.1-.1c.1 0 1.5 1.2.5 3.3zM256.5 152.9h-.2c0-.8-.9-1.4-.9-1.4l.1-.2c.1.1 1 .8 1 1.6zM257.3 152.5c-.1-1.2-1.5-1.9-1.6-1.9l.1-.2c.1 0 1.6.7 1.7 2.1h-.2zM258.5 152.1h-.2c.2-1.8-2.5-2.5-2.6-2.5v-.2c.2 0 3 .7 2.8 2.7z"/><path d="M256.7 149.8l-.2-.1c.2-.4.2-.8 0-1.2-.3-.6-1-.8-1-.8l.1-.2s.8.3 1.1 1c.2.3.2.8 0 1.3z"/><path d="M257.6 150.3l-.2-.1c.4-1.1.4-1.9 0-2.5-.6-.9-1.8-1-1.8-1v-.2c.1 0 1.3.1 2 1 .4.8.4 1.7 0 2.8z"/><path d="M258.2 151l-.2-.1c.8-1.6.9-2.8.3-3.7-.9-1.3-3-1.4-3-1.4v-.2c.1 0 2.3.1 3.2 1.5.6 1 .5 2.3-.3 3.9z"/><path d="M256.1 145.8h-.2c.1-.3-.1-.6-.4-.8l.1-.2c.4.2.6.6.5 1zM257 146.1l-.2-.1v-.1-.1c.1-.2 0-.5-.1-.7-.1-.2-.3-.4-.6-.5l.1-.2c.3.1.5.3.7.6.1.3.2.6.1.9v.2zM258 146.7l-.2-.1c.5-2-.7-2.4-.7-2.4l.1-.2c0 .1 1.4.6.8 2.7zM259.3 151.7l-.2-.1c.2-.8-.7-1.2-.7-1.2l.1-.2c0 .1 1.1.6.8 1.5zM260.2 151.3h-.2c0-1.1-1.3-1.6-1.3-1.6l.1-.2s1.4.5 1.4 1.8zM261.1 150.9h-.2c.1-1.6-2.1-2.2-2.1-2.2l.1-.2c0 .1 2.3.7 2.2 2.4z"/><path d="M258.6 147.4l-.2-.1c1.1-2.7-.3-3.5-.3-3.5l.1-.2c.1.1 1.5 1 .4 3.8zM261.9 150.6h-.2c.1-.6-.1-1.2-.5-1.6-.8-1-2.5-1.2-2.7-1.2v-.2c.1 0 1.6.2 2.6 1 .7.4 1 1.1.8 2z"/><path d="M259.7 147.9l-.2-.1c.1-.4.1-.7 0-.9-.2-.4-.7-.5-.7-.5v-.2s.5.1.8.6c.2.3.2.7.1 1.1zM260.6 148.2l-.2-.1c.2-.8.2-1.4-.1-1.8-.5-.7-1.3-.8-1.3-.8v-.2s.9.1 1.5.8c.3.6.3 1.3.1 2.1z"/><path d="M261.4 148.8l-.2-.1c.5-1.2.4-2.2 0-2.9-.8-1.2-2.6-1.4-2.6-1.4v-.2c.1 0 1.9.2 2.7 1.5.6.8.6 1.9.1 3.1z"/><path d="M259.7 144.6h-.2c.1-.4-.1-.8-.5-1.1l.1-.2c.4.3.6.8.6 1.3zM260.5 145h-.2c.3-1.4-.6-1.8-.6-1.8l.1-.2s1.1.4.7 2zM261.4 145.8l-.2-.1c.8-2.4-.6-3-.6-3l.1-.2c0 .1 1.6.8.7 3.3zM263 150.1l-.2-.1c.3-1-1.2-1.9-1.3-1.9l.1-.2c.1.1 1.7 1.1 1.4 2.2zM263.9 149.7h-.2c.1-1.5-2-2.4-2.1-2.4l.1-.2c.1 0 2.4 1 2.2 2.6z"/><path d="M264.9 149.3h-.2c.1-2.1-3-2.8-3-2.8v-.2s3.2.7 3.2 3z"/><path d="M262.6 146.7l-.2-.1c.5-1.1-.7-1.6-.8-1.7l.1-.2c0 .1 1.4.8.9 2z"/><path d="M263.5 147.1l-.2-.1c.3-.7.3-1.3 0-1.9-.5-.9-1.8-1.2-1.9-1.2v-.2c.1 0 1.4.3 2 1.3.5.7.5 1.4.1 2.1z"/><path d="M264.5 148l-.2-.1c.6-1.2.7-2.2.4-3-.8-1.9-3.4-1.7-3.4-1.7v-.1l-.1-.1c.1 0 1-.1 2 .2.8.3 1.4.8 1.7 1.6.3.9.2 2-.4 3.2z"/><path d="M262 143.2h-.2c0-.1.1-.4 0-.5-.1-.1-.2-.2-.3-.2v-.2c.2 0 .4.1.5.3v.6zM262.9 143.3l-.2-.1s.2-.4 0-.8c-.1-.2-.3-.3-.6-.4v-.2c.4.1.6.2.8.5.2.5.1 1 0 1zM264 143.8l-.2-.1c.2-.5.2-.9.1-1.3-.2-.6-.8-.8-.8-.8l.1-.2s.7.3.9.9c.1.5.1 1-.1 1.5zM265.8 148.9h-.2c.1-.7-.8-1.4-.9-1.5v-.2c.1 0 .5.3.5.3.2.2.7.8.6 1.4zM266.5 148.5h-.2c0-1.4-1.4-2.2-1.5-2.2l.1-.2c.1.1 1.7.8 1.6 2.4z"/><path d="M267.4 148.2h-.2c.1-1.7-2.3-2.6-2.3-2.7l.1-.2c.1 0 2.5 1 2.4 2.9zM264.6 144.5l-.2-.1c1.1-1.9-.3-3.2-.3-3.3l.1-.1c.1 0 1.5 1.4.4 3.5z"/><path d="M265.5 145.6l-.2-.1c.2-.4.3-.7.2-1-.2-.5-.7-.7-.8-.7l.1-.2s.7.2.9.8c.1.5 0 .8-.2 1.2z"/><path d="M266.3 146.1l-.2-.1c.4-.7.5-1.4.3-1.9-.4-.8-1.5-1.1-1.5-1.1v-.2c.1 0 1.2.3 1.6 1.2.3.7.2 1.4-.2 2.1z"/><path d="M266.9 147l-.2-.1c.8-1 1.1-1.8.6-3.1-.7-1.3-2.5-1.4-2.6-1.4v-.2c.1 0 2 0 2.7 1.5.8 1.3.4 2.2-.5 3.3z"/><path d="M265.8 142.4h-.2c.2-1-.8-1.5-.8-1.5l.1-.2c0-.1 1.1.5.9 1.7zM266.7 142.8l-.2-.1c.6-1.8-.8-2.3-.9-2.3l.1-.2c0 .1 1.7.6 1 2.6z"/><path d="M267.5 143.7l-.2-.1c1.2-2.4-.6-3.7-.6-3.7l.1-.2c0 .1 2 1.5.7 4zM268.3 147.8l-.2-.1c.3-1-.7-1.5-.7-1.5l.1-.2c-.1.1 1.1.6.8 1.8zM269.2 147.4h-.2c.3-1.3-1.4-1.9-1.4-1.9l.1-.2s1.8.6 1.5 2.1zM270 146.9c-.1-2.1-2.4-2.6-2.4-2.6v-.2s2.5.5 2.5 2.8h-.1z"/><path d="M268.6 144.5l-.2-.1c.4-1-.6-1.5-.7-1.6l.1-.2c0 .1 1.3.7.8 1.9z"/><path d="M269.4 145l-.2-.1c.4-.8.4-1.5.2-2-.4-.8-1.5-1.1-1.5-1.1v-.2s1.2.2 1.7 1.2c.2.6.2 1.4-.2 2.2z"/><path d="M270 145.8l-.2-.1c.8-1.3.9-2.5.5-3.3-.6-1.2-2.2-1.5-2.8-1.6h-.1l.1-.1v-.1c.7.1 2.3.5 2.9 1.7.6 1 .4 2.1-.4 3.5z"/><path d="M268.5 140.9h-.2c.1-.5-.2-1.1-.7-1.4l.1-.2c.5.4.8 1 .8 1.6zM269.3 141.3h-.2c.3-1.5-.6-2.1-.7-2.1l.1-.2c.1 0 1.1.6.8 2.3zM270.1 141.8l-.2-.1c.9-2.3-.5-3.1-.6-3.1l.1-.2c.1.1 1.7 1 .7 3.4zM271.1 146.5l-.2-.1c.2-.7-.7-1.3-.7-1.3l.1-.2c.1.1 1.1.8.8 1.6zM272.1 146h-.2c.2-1.1-1.3-1.6-1.4-1.6l.1-.2s1.8.6 1.5 1.8zM273.1 145.6h-.2c.1-2-2.2-2.4-2.3-2.4v-.2c.1 0 2.6.5 2.5 2.6z"/><path d="M271.4 143.4l-.2-.1c.2-.5.2-1 0-1.3-.3-.6-1-.7-1-.7v-.2s.8.2 1.2.8c.3.4.3.9 0 1.5z"/><path d="M272.3 143.8l-.2-.1c.4-.9.4-1.7 0-2.3-.6-.9-1.8-1.1-1.8-1.1v-.2s1.3.2 1.9 1.1c.5.7.5 1.6.1 2.6z"/><path d="M272.9 144.6l-.2-.1s1.3-2.2.4-3.7c-.5-.8-1.5-1.3-3.1-1.4v-.2c1.7.1 2.7.6 3.2 1.5 1 1.6-.3 3.8-.3 3.9z"/><path d="M271 139.4h-.2c.1-.2 0-.4-.1-.6-.2-.3-.7-.4-.7-.4v-.2s.5.1.8.5c.3.2.3.4.2.7zM271.9 139.6h-.2c.3-1.3-.6-1.7-.6-1.8l.1-.2c0 .1 1.1.5.7 2zM272.8 140.2l-.2-.1c.8-1.7-.6-2.7-.6-2.7l.1-.2c.1 0 1.6 1.1.7 3zM273.9 145.3l-.2-.1c.2-.6-.7-1.2-.7-1.3l.1-.2c.1.1 1.1.8.8 1.6zM274.9 144.8h-.2c0-.3-.1-.7-.3-.9-.4-.4-1-.6-1.1-.6v-.2c.1 0 .6.1 1 .4.5.3.7.8.6 1.3zM275.9 144.4h-.2c.1-1.7-2.2-2.1-2.2-2.1v-.2c.1 0 2.5.4 2.4 2.3z"/><path d="M273.4 140.9l-.2-.1c1.7-2.1-.1-3.9-.1-3.9l.1-.1c.1 0 2 1.9.2 4.1zM277 143.9h-.2c.1-2-3.3-2.5-3.4-2.5v-.2c.2 0 3.8.5 3.6 2.7z"/><path d="M274.6 141.5l-.2-.1c.1-.3.2-.6.1-.8-.2-.4-.7-.5-.7-.5l.1-.2s.6.2.8.6c.1.3 0 .7-.1 1z"/><path d="M275.6 142l-.2-.1c.3-.6.3-1.2 0-1.7-.4-.9-1.5-1.2-1.5-1.2l.1-.2s1.2.3 1.7 1.3c.2.6.2 1.2-.1 1.9z"/><path d="M276.6 142.7l-.2-.1c.5-1.2.6-2.2.1-3-.7-1.3-2.6-1.5-2.6-1.5v-.2c.1 0 2 .3 2.8 1.6.5.9.4 1.9-.1 3.2z"/><path d="M274.9 138.2l-.2-.1c.3-1.1-.8-1.6-.8-1.7l.1-.2c0 .1 1.3.7.9 2zM275.8 138.7l-.2-.1c.6-1.6-.8-2.5-.8-2.5l.1-.2s1.6 1 .9 2.8z"/><path d="M276.5 139.4l-.2-.1c.9-2.5-.7-3.7-.7-3.7l.1-.2c.1.1 1.8 1.4.8 4zM277.9 143.5h-.2c.2-.8-1-1.5-1-1.5l.1-.2s1.3.7 1.1 1.7zM278.8 143.1h-.2c.1-.9-.4-1.6-1.6-2-.1 0-.2-.1-.2-.1h.2-.1l.1-.1h.1c1.6.5 1.8 1.5 1.7 2.2zM279.6 142.6c-.1-2.4-2.8-2.6-2.8-2.6v-.2s2.8.3 3 2.8h-.2z"/><path d="M277.8 140.1h-.2c.1-.4.1-.7-.1-1-.3-.4-.8-.6-.8-.6v-.2s.6.1 1 .7c.2.3.2.7.1 1.1z"/><path d="M278.8 140.7l-.2-.1c.2-.7.2-1.4-.2-1.9-.6-.9-1.8-1.2-1.8-1.2v-.2c.1 0 1.3.3 1.9 1.3.4.6.5 1.3.3 2.1z"/><path d="M279.5 141.5l-.2-.1c.6-1.4.7-2.6.1-3.4-.9-1.4-3-1.5-3-1.5v-.2s2.2.1 3.2 1.5c.6 1 .6 2.2-.1 3.7z"/><path d="M277.3 136.6l-.2-.1c.1-.3.1-.5 0-.7-.2-.3-.5-.5-.6-.5v-.2c.1 0 .4.2.6.5.3.3.3.6.2 1zM278.3 137h-.2c.4-1.6-.8-2.1-.8-2.1l.1-.2c0-.1 1.4.5.9 2.3zM279.2 137.5l-.2-.1c.5-1.1.2-2.4-.6-3.2l.1-.1c1 .9 1.2 2.3.7 3.4zM280.6 142.3h-.2c.1-.9-.8-1.4-.8-1.4l.1-.2s1.1.5.9 1.6zM281.5 141.9h-.2c.1-1.1-1.4-1.9-1.5-1.9l.1-.2c.1 0 1.7.9 1.6 2.1zM282.4 141.4h-.2c.1-1.9-2.4-2.5-2.4-2.5v-.2c.1 0 2.8.7 2.6 2.7z"/><path d="M280.5 139l-.2-.1c.3-.4.3-.8.2-1.2-.3-.6-1-.8-1.1-.8v-.1h-.1l.1-.1c.1 0 .8.2 1.2.7.1.4.3.9-.1 1.6z"/><path d="M281.5 139.5l-.2-.1c.4-.9.4-1.6 0-2.2-.6-1-2-1.3-2-1.3v-.2c.1 0 1.5.3 2.1 1.4.5.7.5 1.5.1 2.4z"/><path d="M282.2 140.4l-.2-.1c.9-1.6 1-2.9.3-3.8-.9-1.3-3.1-1.5-3.3-1.5v-.1l-.1-.1c.1-.1 1.8.1 2.9.9 1 .7 1.8 2.1.4 4.7z"/><path d="M283.2 141.1l-.2-.1c.3-.6-.6-1.3-.6-1.3l.1-.2c.1.1 1.2.9.7 1.6zM284.3 140.6h-.2c.1-1.2-1.3-2-1.3-2l.1-.2c0 .1 1.5.9 1.4 2.2zM285.3 140.2h-.2c.2-2-2.2-2.7-2.2-2.7v-.2s2.6.7 2.4 2.9zM281.3 135.5h-.2c.2-.8-.1-1.7-.8-2.1l.1-.2c.8.5 1.1 1.4.9 2.3zM280.2 135.1l-.2-.1v-.1-.1c.1-.5-.2-1-.7-1.1v-.2c.6.1 1 .7.8 1.3.1.2.1.2.1.3 0-.1 0 0 0 0zM282.2 136.1l-.2-.1c.9-2.3-.5-3.3-.6-3.3l.1-.2c0 .1 1.6 1.2.7 3.6z"/><path d="M283.7 137.7l-.2-.1c.2-.6.2-1.2-.1-1.6-.4-.7-1.2-.8-1.2-.8v-.2s.9.2 1.3.9c.4.5.5 1.1.2 1.8z"/><path d="M284.7 138.5l-.2-.1c.5-1.1.5-2 .1-2.7-.7-1.2-2.3-1.5-2.3-1.5v-.2c.1 0 1.7.3 2.4 1.6.5.8.5 1.8 0 2.9z"/><path d="M285.2 139.4l-.1-.1s2-2.3.7-4.3c-1.3-1.8-3.7-1.6-3.8-1.6v-.2s2.6-.2 3.9 1.7c1.3 2.1-.7 4.4-.7 4.5z"/><path d="M283 133.2l-.2-.1c.2-.6-.5-.8-.5-.9l.1-.2c.3.3.8.6.6 1.2zM284 133.5l-.2-.1c.4-1.1-.5-1.6-.5-1.6l.1-.2c0 .1 1 .6.6 1.9zM285 134l-.2-.1c.3-.7.5-1.6-.5-2.6l-.1-.1.1-.1v.1l.1-.1c1.1 1.1.9 2.2.6 2.9zM286.3 139.8l-.2-.1c.2-.3-.4-.8-.6-1l.1-.2c.1.1.9.7.7 1.3zM287.3 139.3l-.2-.1c.1-.2 0-.4-.1-.6-.3-.5-1.1-.7-1.1-.7v-.2s.9.2 1.2.8c.2.3.2.5.2.8zM288.3 138.8h-.2c.1-.3 0-.6-.2-.8-.5-.6-1.6-1-1.7-1v-.1h-.1l.1-.1c.1-.1.9.3 1.5.7.5.3.7.8.6 1.3zM285.9 134.9l-.2-.1c1.2-2.5-.3-4-.4-4l.1-.2c.1.1 1.8 1.6.5 4.3zM289.4 138.2c-.3-1.8-3.2-2.4-3.2-2.4v-.2c.1 0 3 .6 3.3 2.6h-.1z"/><path d="M286.9 136l-.2-.1c.1-.4.1-.8 0-1.1-.2-.4-.7-.5-.7-.5v-.2s.5.1.8.6c.3.4.3.8.1 1.3zM287.9 136.4l-.2-.1c.3-.6.4-1.2.2-1.7-.4-1-1.7-1.3-1.7-1.3l.1-.2c.1 0 1.4.4 1.8 1.5.3.4.2 1.1-.2 1.8z"/><path d="M288.7 136.9l-.2-.1c.7-1.3.9-2.4.4-3.2-.8-1.3-2.8-1.5-2.8-1.5v-.2s2.1.2 2.9 1.6c.6.9.5 2-.3 3.4z"/><path d="M287.1 132.2h-.2c.2-1.4-.9-1.8-.9-1.8l.1-.2s1.3.4 1 2zM288.1 132.6l-.2-.1c.6-1.7-.8-2.7-.8-2.8l.1-.2c0 .2 1.6 1.3.9 3.1zM289.1 133.5l-.2-.1c1.1-3.1-.9-4.1-.9-4.1l.1-.2c0 .1 2.2 1.2 1 4.4zM290.5 137.8h-.2c.2-1-1.3-1.6-1.3-1.6l.1-.2s1.6.6 1.4 1.8zM291.7 137.2h-.2c.1-1.3-2.1-2-2.1-2l.1-.2c0 .1 2.2.7 2.2 2.2zM292.7 136.6c-.2-2.1-3.4-2.5-3.4-2.5v-.2c.1 0 3.4.4 3.6 2.6l-.2.1z"/><path d="M290.4 134.3l-.2-.1c.1-.3.1-.7 0-1-.3-.5-.9-.8-.9-.8l.1-.2s.7.3 1 .9c.1.4.1.8 0 1.2z"/><path d="M291.6 134.8l-.2-.1c.3-.9.2-1.6-.1-2.1-.6-1-1.9-1.2-2-1.2v-.2c.1 0 1.4.2 2.1 1.3.4.6.5 1.4.2 2.3z"/><path d="M292.5 135.6l-.2-.1c.7-1.4.8-2.5.3-3.5-1-1.7-3.6-1.9-3.7-1.9v-.2s2.8.3 3.8 2c.6 1 .5 2.2-.2 3.7z"/><path d="M290 130.3l-.2-.1c.1-.4.1-.7-.1-.9-.2-.4-.7-.5-.7-.5v-.2s.5.1.8.6c.3.3.3.6.2 1.1zM291.2 130.7h-.2c.2-.9 0-1.4-.2-1.8-.3-.4-.6-.6-.7-.6v-.1l-.1-.1c.1-.1.4.1.4.2.4.2 1.1 1 .8 2.4zM292.2 131.4l-.2-.1c.4-1.5.1-2.8-.8-3.7l-.1-.1.1-.1v.1l.1-.1c1 1 1.3 2.4.9 4zM293.9 136h-.2c.1-.9-.9-1.1-1-1.1v-.2c.1 0 1.3.3 1.2 1.3zM294.8 135.5h-.2c0-1.2-1.7-1.5-1.7-1.5v-.1h-.1v-.1c.1 0 .7.1 1 .4.8.2 1.1.7 1 1.3zM295.7 134.8c-.4-2-2.7-2-2.7-2v-.2s2.5 0 2.9 2.2h-.2z"/><path d="M293.6 132.8h-.2c.1-.5.1-1-.1-1.3-.4-.5-1-.7-1.1-.7v-.2s.8.1 1.2.8c.3.4.3.9.2 1.4z"/><path d="M294.4 133.2l-.2-.1c.3-.8.3-1.4 0-2-.5-1-2-1.3-2-1.3v-.2c.1 0 1.5.3 2.1 1.4.5.6.5 1.3.1 2.2z"/><path d="M295.3 133.7l-.2-.1c.6-1.2.7-2.2.2-3-.8-1.5-3.2-1.7-3.2-1.7v-.2c.1 0 2.5.2 3.4 1.8.4.8.4 1.9-.2 3.2z"/><path d="M293.1 129h-.2c.2-.9-.5-1.5-.9-1.7l.1-.1.1-.1c.3.2 1.1.9.9 1.9zM294.1 129.4l-.2-.1c.5-1.9-1-2.5-1.1-2.6l.1-.2c0 .1 1.7.8 1.2 2.9zM295 130l-.2-.1c.5-1.5.3-2.4-.1-2.9-.3-.6-.8-.8-.9-.8v-.1l-.1-.1c.1-.1.6.3.6.3.5.3 1.4 1.5.7 3.7zM296.9 134.2h-.2c.2-.9-1.2-1.4-1.2-1.4l.1-.2c0 .1 1.5.6 1.3 1.6zM297.8 133.7h-.2c.1-1.4-1.9-1.8-2-1.8v-.2c.1 0 2.4.4 2.2 2zM298.8 133.1h-.2c.1-1.9-3.1-2.3-3.1-2.3v-.2c.1 0 3.4.4 3.3 2.5z"/><path d="M296.1 130.8l-.2-.1c.1-.4.1-.7 0-.9-.2-.3-.7-.5-.8-.5v-.1h-.1l.1-.1c.1 0 .6.1.9.4.2.3.4.7.1 1.3z"/><path d="M297 131.1l-.2-.1c.3-.6.4-1.2.1-1.6-.4-.8-1.6-1-1.7-1v-.2c.1 0 1.3.3 1.8 1.1.4.5.4 1.1 0 1.8z"/><path d="M298.1 131.7l-.2-.1c.5-1.4.5-2.5-.1-3.2-.7-.9-1.8-1.3-2.9-1.1v-.2c1.2-.2 2.3.3 3.1 1.2.7.8.7 1.9.1 3.4z"/><path d="M296 127.2h-.2c.1-.3 0-.6-.1-.9-.3-.4-.8-.6-.8-.6v-.1l-.1.1v-.1c0-.1.1-.1.2 0 .1 0 1.2.4 1 1.6zM296.9 127.5l-.2-.1c.2-.5.2-1 0-1.4-.3-.7-1.1-.9-1.1-.9l.1-.2s.9.3 1.2 1c.2.5.2 1 0 1.6zM297.8 128.1l-.2-.1c.4-.8.5-1.5.3-2.2-.3-1-1.2-1.4-1.2-1.4l.1-.2s1 .5 1.3 1.5c.2.8.1 1.6-.3 2.4zM299.7 132.5l-.2-.1c.1-.3.1-.5-.1-.8-.3-.6-1.2-.9-1.2-.9l.1-.2s1 .3 1.3.9c.2.5.2.8.1 1.1zM300.7 131.9h-.2c.2-1.6-2.1-2-2.1-2v-.2c.1 0 2.5.4 2.3 2.2z"/><path d="M301.6 131.4h-.2c.1-1.8-1.7-2.4-3.1-2.5h-.1v-.2h.1c2.2.2 3.3 1.1 3.3 2.7z"/><path d="M299 128.8l-.2-.1c.1-.3.1-.6 0-.8-.2-.4-.9-.6-.9-.6v-.2s.8.1 1 .7c.3.3.3.7.1 1zM300 129.1l-.2-.1c.2-.8.1-1.4-.2-1.9-.5-.8-1.6-.9-1.6-.9v-.2s1.1.1 1.7 1c.5.6.6 1.3.3 2.1z"/><path d="M301 129.8l-.2-.1c.5-1.5.5-2.6-.1-3.3-.9-1.3-3.1-1.1-3.1-1.1v-.2c.1 0 2.3-.2 3.3 1.2.6.8.7 2 .1 3.5z"/><path d="M298.6 125.3h-.2c.1-.9-.8-1.3-.9-1.3l.1-.2c0-.1 1.2.4 1 1.5zM299.7 125.5h-.2c.4-1.5-1-2.1-1-2.1l.1-.2c-.1 0 1.5.6 1.1 2.3zM300.8 126.2l-.2-.1c.8-2.6-1.1-3.4-1.2-3.5l.1-.2c0 .1 2.1 1.1 1.3 3.8zM302.5 130.8h-.2c.1-1.2-1.1-1.8-1.1-1.8l.1-.2c-.1 0 1.3.6 1.2 2zM303.6 130.1h-.2c.1-1.6-1.9-2-2-2v-.2s2.3.4 2.2 2.2zM304.5 129.4c-.4-2.3-3.3-2.4-3.3-2.4v-.2s3.1.2 3.5 2.6h-.2z"/><path d="M302.1 127.1l-.2-.1c.2-.5.1-.8 0-1.1-.3-.5-1-.6-1-.6v-.2s.8.1 1.2.7c.2.3.2.8 0 1.3z"/><path d="M303.5 127.6h-.2c.2-1 .1-1.8-.4-2.4-.8-1-2.1-1.1-2.1-1.1v-.2c.1 0 1.5.1 2.3 1.1.4.6.6 1.5.4 2.6z"/><path d="M304.2 128.4l-.2-.1c.1-.1 1.5-2-.2-4.1-1.4-1.7-3.7-1-3.8-1l-.1-.2s2.5-.7 4 1.1c2 2.2.3 4.3.3 4.3z"/><path d="M301.2 122.9h-.2c0-.7-.7-.8-.7-.9v-.2c.1.1 1 .3.9 1.1zM305.5 128.8h-.2c.1-.7-.8-1.1-.8-1.1v-.1h-.1l.1-.1c.1 0 .2 0 .4.2.3.2.7.5.6 1.1zM302.2 123.1l-.2-.1c.1-.3.1-.6 0-.9-.2-.5-.8-.7-.8-.7l.1-.2s.7.2 1 .8c0 .4 0 .7-.1 1.1zM303.3 123.5h-.2c.5-2.1-.9-2.6-1-2.6l.1-.2s1.6.5 1.1 2.8zM306.5 128.2h-.2c0-1-1.5-1.6-1.5-1.6l.1-.2c0 .1 1.6.7 1.6 1.8z"/><path d="M303.8 124l-.2-.1c.1-.1 1.4-2.3-.5-3.8l.1-.2c2.1 1.6.6 4 .6 4.1zM307.2 127.7c-.5-2-2.4-2-2.4-2v-.2c.2 0 2.1.2 2.7 2.2h-.3z"/><path d="M308.3 127c-.8-1.6-2-2.4-3.7-2.2h-.2v-.2h.1c1.8-.2 3.1.6 3.9 2.3l-.1.1z"/><path d="M305.2 124.7h-.2c.1-.3 0-.6-.1-.8-.3-.4-.8-.5-.8-.5v-.2s.6.1.9.6c.2.2.2.5.2.9zM306.2 124.7l-.2-.1c.2-.6.2-1.1-.1-1.6-.5-.7-1.6-.9-1.6-.9v-.2s1.2.1 1.8.9c.2.7.3 1.2.1 1.9z"/><path d="M307.1 125.2l-.2-.1c.6-1.2.6-2.2.2-2.8-.8-1.2-3-1.1-3-1.1v-.2c.1 0 2.3-.1 3.1 1.2.5.7.5 1.8-.1 3z"/><path d="M305.2 121.2h-.2c.3-1.3-.8-1.7-.9-1.7l.1-.2s1.3.5 1 1.9zM306.2 121.5l-.2-.1c.2-.8.2-1.5-.2-2-.3-.5-.7-.6-.8-.6v-.1l-.1-.1c.1-.1.4.1.6.2.5.4 1.2 1.1.7 2.7zM307.1 122.1l-.2-.1c1.3-3-.7-4-.8-4l.1-.2c.1.1 2.3 1.1.9 4.3zM309.3 126.3c-.3-1.4-2-1.8-2-1.8v-.2c.2 0 1.9.4 2.2 1.9l-.2.1zM310.4 125.6c-.5-1.9-2.9-2.1-3-2.1v-.2s2.6.2 3.1 2.2l-.1.1zM311.5 124.8c-1-2.6-4.2-2.3-4.3-2.3v-.2s3.5-.3 4.5 2.5h-.2z"/><path d="M308.4 122.5l-.2-.1c.3-.9-.9-1.4-.9-1.4l.1-.2c0 .1 1.4.7 1 1.7zM309.5 122.8l-.2-.1c.2-.6.2-1.2-.1-1.6-.5-.9-1.8-1.1-1.8-1.1v-.2c.1 0 1.4.2 1.9 1.2.4.5.4 1.1.2 1.8z"/><path d="M310.7 123.4l-.2-.1c.5-1.4.4-2.5-.2-3.2-1-1.3-3.3-1.3-3.3-1.3v-.2c.1 0 2.4-.1 3.5 1.4.6.8.7 2 .2 3.4z"/><path d="M308 118.8h-.2c0-.6-.3-1.1-.7-1.5l.1-.2c.5.4.8 1 .8 1.7zM309.1 119.1l-.2-.1c.3-.9-.1-1.8-.9-2.3l.1-.2c.9.6 1.3 1.6 1 2.6zM310.2 119.7l-.2-.1c1-2.8-.9-3.7-.9-3.7l.1-.2c0 .1 2 1 1 4zM312.7 124.1c-.1-1.1-1.2-1.6-1.8-1.7l.1-.2c1.1.3 1.8 1 1.9 1.9h-.2zM313.8 123.4c-.4-1.8-2.9-2-2.9-2v-.2s2.6.1 3.1 2.1l-.2.1zM314.9 122.6c-.8-2.4-4.3-2.3-4.3-2.3v-.2s3.6-.1 4.5 2.5h-.2z"/><path d="M311.6 120.3l-.2-.1c.2-.4.2-.7 0-1-.3-.5-1-.6-1.1-.6v-.2s.9.1 1.2.7c.3.3.3.7.1 1.2zM313.1 120.7h-.2c.2-1 .1-1.8-.3-2.3-.8-1-2.3-1-2.3-1v-.2c.1 0 1.6 0 2.4 1 .5.6.6 1.4.4 2.5z"/><path d="M314.2 121.4l-.2-.1s1.2-2.1-.1-3.8c-1.8-1.8-4.2-1.2-4.2-1.2v-.2s2.6-.6 4.4 1.2c1.5 1.8.2 4.1.1 4.1z"/><path d="M311 116.1h-.2c.1-.6-.6-.8-.6-.8l.1-.2c.2 0 .7.4.7 1zM312.1 116.3h-.2c.3-1.2-.7-1.7-.8-1.7l.1-.2c.1-.1 1.3.6.9 1.9zM313.2 116.7h-.2c.6-2.2-.7-2.9-.8-2.9l.1-.2s1.5.8.9 3.1zM315.9 122.1h-.2c.1-1.1-1.2-1.5-1.2-1.5l.1-.2c0-.1 1.4.4 1.3 1.7zM316.8 121.4h-.2c0-1.3-2-1.8-2-1.8v-.2c.2 0 2.3.5 2.2 2zM317.5 120.8c-.3-2.2-2.9-2.3-3-2.3v-.2s2.9.1 3.2 2.5h-.2z"/><path d="M315.6 118.6h-.2c.4-2.4-2.1-2.9-2.2-2.9v-.2c.1 0 2.8.5 2.4 3.1z"/><path d="M316.6 119.1l-.2-.1c.4-1.3.3-2.3-.3-3-1-1.3-3.1-1.4-3.2-1.4v-.2c.1 0 2.3 0 3.3 1.5.7.8.8 1.8.4 3.2z"/><path d="M317.5 120.1l-.2-.1c.7-1.4 1.5-2.9-.2-5-1.7-1.8-4.5-1.1-4.6-1.1v-.2s3-.7 4.8 1.1c1.8 2.3.9 4 .2 5.3z"/><path d="M313.6 113.7h-.2c0-.2 0-.3-.1-.4-.1-.1-.3-.1-.3-.1v-.2s.3 0 .4.2c.2.1.3.2.2.5zM314.6 113.7l-.2-.1c.1-.5-.1-.9-.5-1.1l.1-.2c.5.3.8.8.6 1.4zM315.8 114h-.2c.2-1.7-.7-2.1-.8-2.1l.1-.2c.1 0 1.1.5.9 2.3zM318.5 120.1c0-.6-.7-.9-.7-.9l.1-.2s.9.3.9 1l-.3.1zM319.4 119.5c-.1-.9-1.3-1.1-1.3-1.1v-.2c.1 0 1.4.2 1.5 1.2l-.2.1zM320.3 119c-.2-1.4-2-1.5-2.1-1.5v-.2s2 .2 2.2 1.7h-.1zM316.7 114.5l-.2-.1c.7-2.2-.7-3.2-.8-3.2l.1-.2c.1.1 1.6 1.2.9 3.5zM321.2 118.3c-.5-1.6-2.9-1.8-3.2-1.8v-.2c.2 0 2.8.2 3.4 1.9l-.2.1z"/><path d="M318.8 116.4h-.2c.1-.6.1-1.2-.2-1.6-.5-.8-1.6-1.1-1.7-1.1v-.2s1.2.3 1.8 1.2c.4.5.5 1.1.3 1.7z"/><path d="M320 116.9l-.2-.1c.3-1.1.3-2-.2-2.7-.9-1.3-2.9-1.5-2.9-1.6v-.2c.1 0 2.1.2 3 1.6.5.8.6 1.8.3 3z"/><path d="M321.1 117.7l-.2-.1c.7-1.8.7-3.2-.1-4.2-1.3-1.9-4.6-1.8-4.7-1.8v-.2c.1 0 3.4 0 4.8 1.9.9 1.1.9 2.6.2 4.4z"/><path d="M317.4 111.5h-.2c.1-.7-.6-.9-.6-.9l.1-.2s.8.3.7 1.1zM318.5 111.8h-.2c.1-.7-.2-1.4-.9-1.8l.1-.2c.8.4 1.1 1.2 1 2zM319.6 112.2h-.2c.5-2-1-2.9-1-2.9l.1-.2c.1 0 1.6 1 1.1 3.1zM322.2 117.7h-.2c.1-.6-.7-.9-.7-.9l.1-.2c.3.1 1 .5.8 1.1zM323 117.1c-.2-1-1.5-1.1-1.5-1.1v-.2s1.5.1 1.7 1.2l-.2.1zM323.8 116.5c-.2-1.6-2.3-1.5-2.3-1.5v-.2s2.3-.1 2.5 1.6l-.2.1zM320.5 112.8l-.2-.1c1.1-2-.7-4.3-.8-4.3l.1-.1c.1 0 2.1 2.4.9 4.5zM324.7 115.8c-.5-2.1-3.5-2-3.6-2v-.2s3.2-.1 3.8 2.1l-.2.1z"/><path d="M321.9 113.8h-.2c.1-.6 0-1-.3-1.3-.3-.3-.8-.3-.8-.3v-.2s.5 0 .9.4c.4.3.5.8.4 1.4zM322.9 114l-.2-.1c.2-.7.2-1.3-.1-1.8-.6-.8-1.9-.9-1.9-.9v-.2s1.4.1 2 1c.4.5.5 1.2.2 2z"/><path d="M324.1 114.6l-.2-.1c.5-1.2.5-2.2 0-3-1-1.5-3.4-1.5-3.4-1.5v-.2c.1 0 2.6.1 3.6 1.6.5.9.5 1.9 0 3.2z"/><path d="M325.7 115.3h-.2c0-1.1-1.2-1.3-1.3-1.3v-.2c.1-.1 1.5.2 1.5 1.5zM326.4 114.6c-.1-1.4-2-1.6-2-1.6v-.2s2.1.2 2.2 1.8h-.2zM327.5 113.9c-.4-1.9-3.3-2.1-3.4-2.1v-.2c.1 0 3.2.2 3.5 2.2l-.1.1zM322.5 110.4h-.2c.3-2-1.2-2.9-1.2-2.9l.1-.2c.1-.1 1.6.9 1.3 3.1zM321.5 110.1h-.2c.1-1.6-1-2.1-1-2.1l.1-.2s1.3.5 1.1 2.3zM323.4 110.8l-.2-.1c1-2.5-1.3-3.9-1.4-3.9l.1-.2c0 .1 2.6 1.5 1.5 4.2z"/><path d="M325 111.7h-.2s.1-.7-.2-1.2c-.2-.3-.6-.4-1-.4v-.2c.5 0 .9.2 1.2.5.3.5.2 1.3.2 1.3z"/><path d="M325.9 112.1l-.2-.1c.3-.8.2-1.5-.1-2-.6-1-2.1-1.1-2.1-1.1v-.2c.1 0 1.6.1 2.3 1.2.4.6.4 1.4.1 2.2z"/><path d="M327 112.7l-.2-.1c.5-1.5.4-2.7-.3-3.5-1.3-1.4-3.3-1.1-3.3-1.1v-.2s2.2-.4 3.5 1.2c.6.9.8 2.1.3 3.7z"/><path d="M324 108h-.2c.3-1.3-1.2-1.7-1.2-1.7l.1-.2s1.6.4 1.3 1.9zM324.9 108.1h-.2c.4-1.8-1.3-2.4-1.4-2.4l.1-.2s2 .6 1.5 2.6z"/><path d="M325.9 108.6l-.2-.1c.8-2.7-1.4-3.5-1.5-3.5l.1-.2c0 .1 2.4 1 1.6 3.8zM328.4 113.3h-.2c0-.9-1.2-1.1-1.2-1.1v-.2c.1 0 1.5.2 1.4 1.3zM329.1 112.7c-.5-1.3-1.9-1.5-1.9-1.5v-.2c.2 0 1.6.4 2.1 1.7h-.2zM330.1 111.9c-.5-1.9-3.1-1.9-3.1-1.9v-.2s2.8.1 3.3 2.1h-.2z"/><path d="M328.1 110.1l-.2-.1c.2-.6.1-1.1-.2-1.5-.5-.8-1.8-1-1.8-1v-.2c.1 0 1.3.2 1.9 1.1.4.5.4 1.1.3 1.7z"/><path d="M329.3 110.6l-.2-.1c.4-1.4.3-2.4-.3-3.1-1-1.1-3-.9-3-.9v-.2c.1 0 2.1-.2 3.2 1 .5.7.6 1.8.3 3.3z"/><path d="M330.1 111.5l-.2-.1s1.7-3.4-.2-5.2c-1.9-1.6-4.5-.6-4.6-.6l-.1-.2s2.7-1.1 4.8.6c2.1 1.9.3 5.4.3 5.5z"/><path d="M326 105.3h-.2c0-.4-.2-.8-.7-.9v-.2c.6.1 1 .6.9 1.1zM327 105.2h-.2c.2-1.2-.8-1.4-.8-1.4v-.2s1.2.2 1 1.6zM328 105.3l-.2-.1c.4-1.5-.9-2.1-.9-2.2l.1-.2c0 .1 1.5.9 1 2.5zM331.2 111.2h-.2c0-.5-.6-.6-.6-.6v-.2c.3 0 .8.2.8.8zM331.9 110.6h-.2c0-.8-1.1-.9-1.1-.9v-.2c.5 0 1.3.3 1.3 1.1zM332.5 109.9c-.1-1.2-1.8-1.3-1.8-1.3v-.2s1.8.2 2 1.5h-.2zM329 105.6l-.2-.1c.6-1.7-.9-3.2-.9-3.3l.1-.1c.1.1 1.7 1.7 1 3.5zM333.6 109.1c-.6-1.5-2.9-1.3-2.9-1.3v-.2c.1 0 2.4-.2 3.1 1.4l-.2.1z"/><path d="M331.9 107.8h-.2c.5-2.7-2.5-3.3-2.7-3.3v-.2c.1 0 3.5.7 2.9 3.5z"/><path d="M333.1 108.2h-.2c.2-1.8-.1-3.1-.9-3.9-1.2-1.2-3.2-.9-3.2-.9l-.1-.2s1.9-.3 3.2.8c1 .9 1.4 2.3 1.2 4.2z"/><path d="M333.6 108.8l-.2-.1s1.6-3-.3-5.2c-2-1.9-4.9-.9-4.9-.9l-.1-.2s3.1-1.1 5.1.9c2.1 2.4.4 5.5.4 5.5z"/><path d="M329.4 102.3l-.2-.1v-.3c-.1-.2-.4-.2-.4-.2v-.2s.4.1.6.3c0 .2.1.4 0 .5zM330.4 102.3h-.2c.1-.3 0-.6-.1-.8-.2-.3-.6-.3-.6-.3v-.2s.4 0 .7.4c.3.2.3.5.2.9zM331.5 102.4h-.2c.2-1.5-.9-1.9-.9-1.9l.1-.2s1.3.5 1 2.1zM334.4 108.4c-.1-.5-.4-.5-.4-.5v-.2s.5 0 .6.7h-.2zM335.1 107.8c0-.7-.9-.9-1-.9v-.2s1.1.3 1.1 1.1h-.1zM336 107c-.2-1.1-1.8-1.1-1.8-1.1v-.2s1.8 0 2 1.3h-.2zM332.5 102.8l-.2-.1c.3-1.1 0-2.3-.9-3.1l.1-.1c1 .9 1.3 2.1 1 3.3zM336.9 106.3c-.3-1.4-2.8-1.3-2.8-1.3v-.2c.1 0 2.6-.1 3 1.4l-.2.1z"/><path d="M335.2 105h-.2c.2-2.7-2.4-3.2-2.5-3.2v-.2c0-.1 2.9.5 2.7 3.4z"/><path d="M336.3 105.3h-.2c.3-1.3.1-2.3-.6-3.1-1.1-1.4-3.3-1.4-3.3-1.4v-.2c.1 0 2.3 0 3.4 1.5.7.8.9 1.9.7 3.2z"/><path d="M337 106l-.2-.1c1-1.9.8-3.6-.4-4.9-1.6-1.3-3.7-1.2-4.5-1h-.1l.1-.1-.1.1v-.1h.1c.8-.1 3-.3 4.7 1.1 1.2 1.2 1.4 3 .4 5zM332.8 99.8c-.1-.6-.5-.8-.5-.8l.1-.2s.5.2.6.9l-.2.1z"/><path d="M334 99.9h-.2c0-.6-.3-1.2-.7-1.5l.1-.2c.5.5.8 1.1.8 1.7zM335 100.1h-.2c.1-.9-.2-1.8-.9-2.3l.1-.1c.8.5 1.1 1.5 1 2.4zM337.9 105.5h-.2c0-.2-.2-.4-.4-.4v-.2c.3 0 .6.3.6.6zM338.5 104.9c-.1-.6-1-.7-1-.7v-.2s1 .1 1.2.9h-.2zM339.4 104.1c-.5-1.1-1.9-1.1-1.9-1.1v-.2c.1 0 1.5 0 2.1 1.2l-.2.1zM336.1 100.6h-.2c.5-2-.9-3.6-.9-3.7l.1-.1s1.5 1.8 1 3.8zM340.4 103.3c-.8-1.4-3.2-1.1-3.2-1.1v-.2c.1 0 2.5-.3 3.4 1.2l-.2.1z"/><path d="M337.9 102.1h-.2c.2-1.6-1.6-2.1-1.7-2.1v-.2c.1 0 2.2.4 1.9 2.3z"/><path d="M339 102.2h-.2c.1-.8-.1-1.5-.5-2-.8-1-2.3-1.1-2.3-1.1v-.2c.1 0 1.6.2 2.4 1.2.5.5.7 1.2.6 2.1z"/><path d="M339.8 102.5h-.2c.2-1.6-.1-2.8-.8-3.5-1.2-1.1-3-.8-3.1-.8V98c.1 0 2-.3 3.2.9.8.7 1.1 1.9.9 3.6z"/><path d="M336.4 98c0-1-.9-1.4-.9-1.4l.1-.2s1 .4 1.1 1.5l-.3.1zM337.6 98.1h-.2c.1-1.4-1.2-2.2-1.2-2.2l.1-.2c.1.1 1.5.9 1.3 2.4zM341.2 102.6c-.3-.8-1.4-.9-1.4-.9v-.2c.1 0 1.3.2 1.6 1l-.2.1zM342 101.9c-.2-.4-.7-1-2.2-1.2-.1 0-.2 0-.2-.1h.2-.1v-.1h.1c1.6.3 2.2.9 2.4 1.4h-.2zM338.6 98.6h-.2c.2-2.4-1.3-3.3-1.3-3.3l.1-.2c.1 0 1.6.9 1.4 3.5zM342.8 101.3c-.7-1.6-2.5-1.6-3.3-1.5h-.1l.1-.1-.1.1v-.1c.8-.1 2.7-.1 3.5 1.6h-.1z"/><path d="M340.3 99.6h-.2c.2-1.3-1.5-1.8-1.5-1.8v-.2s1.9.5 1.7 2z"/><path d="M341.2 99.7h-.2c.1-.9-.1-1.5-.6-2-.8-.8-2.1-.7-2.1-.7v-.1l-.1-.1c.1 0 1.2 0 2 .5s1.1 1.4 1 2.4z"/><path d="M342.1 100.1h-.2c.3-1.3.1-2.3-.5-3-1.1-1.3-3.5-1-3.5-1v-.2c.1 0 2.5-.3 3.7 1.1.6.7.8 1.8.5 3.1z"/><path d="M338.8 96h-.2c0-.8-.7-1.2-.8-1.2l.1-.2c.1-.1.9.4.9 1.4zM339.8 96.1h-.2c.1-1.4-.9-2-1-2l.1-.2s1.2.6 1.1 2.2zM340.9 96.4h-.2c.3-2.2-1.2-3-1.2-3l.1-.2c-.1 0 1.6.9 1.3 3.2z"/><path d="M344.7 98.4h-.2c.3-1.9 0-3.3-.9-4-1.3-1.2-3.6-.6-3.6-.6l-.1-.2c.1 0 2.4-.7 3.8.6 1 .8 1.3 2.2 1 4.2z"/><path d="M340.9 93.6c-.1-.5-.8-.8-.8-.8l.1-.2s.9.3 1 .9l-.3.1zM318.2 103.7c-1.3 0-2.2-.2-2.8-.6-.6-.6-.9-1.1-.7-1.6.2-.7 1.2-1.3 2.9-1.7 2-.4 7.4 0 10.3.2h.2c-2.2-.5-5-1.8-7.3-2.9-1.1-.5-2.1-1-2.8-1.2-1.7-.6-4.1-3-4.6-4.6-.2-.6-.1-1 .1-1.4 1.2-1 2.9-.2 5.9 1.4 1.7.9 5.3 3.6 7.6 5.5-1.7-2.3-3.9-5.9-5-7.7-.2-.4-.4-.7-.5-.9-.8-1.3-1.4-4.4-.9-5.9.1-.4.3-.6.6-.8 1.1.3 1.9 1.2 3.4 3 1.4 1.2 2.6 3.6 3.6 6.1-.4-2.8-.8-7.3-.5-9.3.2-1 .4-1.5.8-1.6.4-.2.9.2 1.3.5.7.6 1.4 4.1 2 7.3.1.7.2 1.8.2 3 0-.2.1-.3.1-.5.5-2.9 3.1-8.3 4.3-9 .3-.2.5-.2.7-.1.5.4.3 2-.3 6.7-.8 5.5-3.6 10.7-3.7 10.8 0 0-1.5 1.2-3.4 2.6-5.1 1.9-8.9 2.7-11.5 2.7zm2-3.9c-1.1 0-2 0-2.5.2-1.6.4-2.6.9-2.8 1.5-.1.4.1.9.7 1.4 1.7 1.2 6.7.5 14-2 1.7-1.3 3.2-2.4 3.3-2.6.2-.3 2.9-5.4 3.6-10.7.5-3.9.8-6.2.4-6.5-.1-.1-.2 0-.5.1-1.1.6-3.7 6-4.2 8.9-.1.6-.2 1.4-.3 2.1 0 3-.3 6.2-.3 6.2h-.2s0-3.4.3-6.3c0-1.8 0-3.6-.2-4.6-.4-2.3-1.3-6.6-1.9-7.2-.4-.3-.8-.6-1.1-.5-.3.1-.5.6-.7 1.5-.3 1.5-.1 5 .5 9.6 0 .2.1.6.3 1.1.3.7.5 1.4.7 2.1l.3.9c1.1 3.1 1.2 3.6 1.1 3.8h-.1c-.1 0-.2-.2-.7-1.8-.2-.8-.5-1.7-.8-2.8-.3-.8-.5-1.5-.7-2.1-1-2.9-2.4-6-4.1-7.5-1.4-1.8-2.2-2.6-3.2-2.9-.2.1-.3.3-.4.6-.4 1.3.1 4.4.9 5.7.1.2.3.5.5.9 1.2 2.1 3.8 6.2 5.5 8.4.9.7 1.4 1.3 1.4 1.4v.1h-.1c-.1 0-.1 0-.3-.1-.3-.2-.7-.6-1.2-1.2-2.1-1.8-6.2-5-8.3-6.1-2.9-1.5-4.6-2.4-5.6-1.4-.2.3-.2.7-.1 1.2.5 1.6 2.7 3.9 4.4 4.5.7.2 1.7.7 2.8 1.2 2.6 1.2 5.8 2.7 8.1 3 .7.1.7.1.7.2s0 .1-1.8 0c-1.6 0-5-.3-7.4-.3z"/><path d="M329.6 101.1s-6 1.2-7 .8c-1-.4-.8-.8.7-1.1s6.1-.7 6.1-.7-4.3-1.8-6.6-3.4-1.2-1.8-.5-1.7c.7.1 6.6 3.9 6.6 3.9s-2.7-3.6-3.1-5-.6-2.6.1-2.4c.8.2 3.7 4.9 4.2 5.8.2.4.3.8.5 1.2 0 0-1.1-4.2-1-6.1s.9-2.4 1.2-1.7c.3.7 1 6.8.7 7.7 0 0 .9-4.1 1.8-5.3.8-1.2 1-1.6 1.3-1.2.2.5.2 2.2-.4 3.8-.4 1-.9 2-1.4 2.9l-3.2 2.5zM289.2 152.7c-.5 0-1.1-.4-1.7-1.2-1.1-1.4-1.4-5.5-1.4-7.9-.1.5-.2 1-.4 1.3-.2.3-.5 1-.8 1.8-.7 1.7-1.6 3.8-2.2 4.5-.5.6-.8.6-1 .5-.5-.2-.7-1-.6-2.4 0-.8.4-1.7.9-2.6h-.1c-.1 0-.2.2-.4.3-1.9 1.6-4.1 3.4-4.9 2.9-.3-.2-.3-.7-.1-1.5.9-3.3 6.2-6.9 9.3-8.8.1-.1.2-.1.2-.1l5.9-2.7s2.9-1.6 4.6-2.4c.9-.1 1.9.5 2.2 1.3.2.6 0 1.3-.6 1.7-.7.5-2.4.9-4.2 1.1 2 .1 5.6.3 7.1 1.3.7.5.7.9.7 1.1-.2.8-1.9 1.3-3.8 1.3-1 0-2.6-.4-4.1-.8 1.2.5 2.3.9 2.9 1.1 1.4.6 3.7 2.5 3.7 3.7 0 .2-.1.6-.6.7-1.4.6-4.1-1.2-5.5-2.2-.4-.2-.7-.4-.8-.5-.2-.1-.6-.4-1-.7.8.9 1.6 1.7 2.2 2.4l.1.1c.3.4 1.5 2.7 1.3 3.9-.1.3-.2.5-.4.7-1.2.7-3.1-1.6-3.8-2.4 0-.1-.1-.1-.1-.1-.3-.3-2.1-3.1-3.4-5.2 1.2 2.3 2.8 5.7 2.7 7.2 0 1.3-.5 2.2-1.1 2.4-.6.2-.7.2-.8.2zm-3-11c0 .1-.1 7.7 1.4 9.7.7.9 1.3 1.2 1.8 1.1.6-.2.9-1 1-2.2.1-2.3-3.9-9.4-4-9.5l.2-.1c0 .1 4.4 7 4.8 7.4l.1.1c1.7 1.9 2.8 2.7 3.5 2.3.2-.1.3-.3.3-.5.2-1.1-.9-3.4-1.2-3.7l-.1-.1c-1.1-1.3-2.1-2.4-3-3.3-1.5-1.2-3.2-2.6-3.3-2.7l-.4-.3.4.1c.8.2 2.1 1.4 3.4 2.7.9.7 1.7 1.3 2 1.5.2.1.4.3.8.5 1.4.9 4 2.7 5.3 2.1.3-.1.4-.3.4-.6 0-1-2.2-2.9-3.6-3.5-1.2-.5-4.7-1.8-6.6-2.5-.4-.2-.7-.3-.9-.3-.1 0-.1 0-.2-.1h-.1c-.1 0-.1-.1-.1-.1v-.1h.2c1.9.7 6.6 2.4 8.9 2.5 1.8 0 3.4-.5 3.7-1.2.1-.4-.2-.7-.6-.9-1.9-1.3-7.6-1.3-8.3-1.3-1.8.2-3.3.3-3.4.3v-.2c1.1-.2 2.3-.3 3.4-.3 2.1-.2 4.7-.6 5.5-1.2.6-.4.8-1 .6-1.5-.3-.7-1.1-1.2-1.9-1.1-1.7.8-4.5 2.4-4.6 2.4l-5.9 2.7s-.1.1-.2.1c-3.1 1.9-8.4 5.5-9.2 8.6-.2.7-.2 1.1 0 1.3.5.3 2.1-.7 4.7-2.9.2-.2.3-.3.4-.3.1-.1.4-.4.7-.8.8-1.3 1.6-2.4 1.7-2.5l.2.1c-.1.1-.9 1.5-1.7 2.4-.7 1.1-1.3 2.5-1.4 3.5-.1 1.2.1 2 .5 2.2.2.1.5-.1.8-.5.6-.7 1.5-2.9 2.2-4.5.3-.8.6-1.5.8-1.8.5-1 .6-3.1.6-3.1l.4.1zm2.6-.9c.2.2.5.4.8.7-.3-.3-.6-.5-.8-.7z"/><path d="M286.2 139.7s-5 3-5 4.5 1.8-.3 1.9-.6c.1-.3 2.1-2.7 2.1-2.7s-2.2 3.5-1.8 4.4.8-.3 1.2-.8c.4-.5 1.5-4 1.5-4s.3 3.4 1.3 3.9c1 .6.3-1.6.3-1.6l-1-2.4s2.3 3 3.1 3.2.8-.8.1-1.6c-.7-.8-2.1-2.3-2.1-2.3s3.1 2.4 3.9 2.4-.4-1.3-1.1-1.6c-.6-.3-1.3-.6-2-.9 0 0 2.8.6 3.5.5.8-.1.8-.6-.1-.8-.9-.1-3.1-.5-3.1-.5s2.5-.3 3.3-1.1c.9-.8-.3-1-.9-.7s-4.3 2.2-5.1 2.7zM271.6 136.2c-1.2 0-2.6-.1-4.1-.4-5.4-1.2-6.8-3-6.7-3.9 0-.3.2-.6.5-.6.9-.1 4.8.1 8.2 1.1 1.2.3 2.4.8 3.5 1.3-2.6-1.6-6.7-4.5-8.5-6.7-1.5-1.9-.9-3-.6-3.4.8-.9 2.7-.8 4.2.3 1.7 1.2 4.1 4.2 7.2 8.9 0 0 0-.1-.1-.1-.7-1.7-2.1-5.2-2.6-8.1-.5-3.1-.3-5.4.6-6.4.3-.4.8-.5 1.3-.5 1.6.1 2.1 3.3 2.7 6.8.1.6.2 1.3.3 1.9.4 2 .6 4.1.6 6.2.6-3 2.9-12.9 4.4-14.1 1-.8 1.8-1.1 2.3-.8.4.2.6.8.5 1.6-.1 1.7-1.8 7.3-2.9 10 1.7-2.3 4-5.1 4.9-5.4 1.3-.5 2.1-.6 2.6-.3.2.2.3.4.3.8 0 1.1-2.1 3.7-3 4.3-.3.2-.9.6-1.6 1.1-1.6 1.1-4 2.7-5.9 3.9-2 1-3.1 1.6-3.2 1.6.1-.1-1.5.9-4.9.9zm-9.8-4.7h-.5c-.2 0-.3.2-.3.4 0 .8 1.3 2.5 6.6 3.7 6.2 1.2 9.1-.6 9.1-.6s1.1-.5 3.2-1.6c1.9-1.2 4.3-2.8 5.9-3.9.7-.5 1.3-.9 1.6-1.1 1-.6 2.9-3.1 2.9-4.1 0-.3-.1-.5-.3-.6-.4-.3-1.2-.2-2.4.3-1 .4-3.6 3.7-5.4 6.1-.1.1-.1.2-.2.3-1 1.7-1.6 2.1-1.6 2.1l-.5.3.3-.5c.1-.1.8-1.1 1.8-2.4 1.1-2.1 3.1-8.8 3.2-10.7 0-.8-.1-1.3-.4-1.4-.4-.2-1.2.1-2.1.8-1.7 1.3-4.5 14.6-4.5 14.8l-.2.9v-.9c0-2.4-.2-4.7-.7-7-.1-.6-.2-1.3-.3-1.9-.5-3.2-1.1-6.6-2.5-6.6-.4 0-.8.1-1.1.5-.8.9-1 3.1-.5 6.2.4 2.9 1.9 6.4 2.6 8.1.4 1 .4 1 .3 1-.1 0-.2 0-.2-.1s-.1-.2-.2-.3c-3.1-4.9-5.6-8-7.3-9.2-1.6-1.1-3.3-1-4-.3-.6.7-.4 1.8.6 3.1 2.6 3.3 10.5 7.9 10.6 7.9l-.1.2c-1.8-1-3.7-1.8-5.7-2.4-2.9-.8-6.3-1.1-7.7-1.1z"/><path d="M277.2 134.8c-.3.1-1.5 1-4 1.1s-5.8-1.7-5.2-1.8 1.1-.3 3.3.3c1.3.4 2.6.5 4 .4 0 0-5.5-4.7-5.2-5.1s.9-.5 3.4 1.8c2.4 2.3 2.3 2.5 2.6 2.8.2.3-2-6.3-1.1-7.4s1.9 2 2 3c0 1 .9 4.2.9 4.2s1.5-5.7 2.5-5.8c.9-.1.5.8.6 1.2 0 .4-1.2 3.5-1.2 3.5s2.8-2.9 3-2.4c.2.5-.6 1.5-1.3 1.9-.7.3-4.3 2.3-4.3 2.3zM226.9 176.3c-.1 0-.3 0-.4-.1-.4-.3-.5-1.2-.3-3 .2-1.5 1.3-3.8 2.4-5.6-1.2 1.4-4.7 5-5.5 5.6-.4.4-1.5.9-2 .6-.4-.3-.5-1.1 0-2.4 1.1-3.4 8.7-7.3 9.1-7.4 0 0 .8-.4 2.6-1.2 1.8-.7 7.3 0 8.6.2.6.1 2.1.7 2.3 1.5.1.5-.3.9-1.2 1.2-2.3 1-7.3-.9-9-1.5 0 0-.1 0-.1-.1.7.6 2.6 2 4 3.1 1.2.9 2.3 1.8 2.5 2 .3.3 1.2 1.2.9 1.9-.2.4-.7.6-1.7.6-1.6 0-3.7-2.5-5.3-4.7.2.4.4.7.6 1 .6 1.4 2 5.3 1.5 7.1-.2.5-.6.7-.9.7-1.1 0-2.2-1.9-2.3-2-1.2-1.3-1.5-3.6-1.6-5.6-.1.8-.2 1.5-.3 1.8-.1.2-.2.5-.3.8-.6 1.7-1.8 4.9-2.8 5.3-.3.1-.5.2-.8.2zm3-10.4c-1.3 2-3.3 5.4-3.5 7.3-.2 1.6-.1 2.5.2 2.8.2.1.5.1.9-.1.9-.4 2.1-3.6 2.6-5.2.1-.4.3-.7.3-.9.2-.4.4-2.3.5-3.7 0-1.1.1-1.9.1-2h.2c0 .1-.1.8-.1 1.8-.1 2.2 0 5.9 1.6 7.6 0 0 1.2 1.9 2.1 1.9.3 0 .6-.2.8-.6.5-1.7-.9-5.6-1.5-6.9-.2-.6-1-1.7-1.6-2.6-.9-1.3-1-1.5-1-1.6v-.1h.1c.1 0 .2.1.9 1.1 1.4 2 4.6 6.6 6.6 6.6.8 0 1.3-.2 1.5-.5.2-.5-.5-1.3-.9-1.7-.3-.2-1.3-1-2.5-2-4.4-3.4-4.4-3.4-4.4-3.5v-.1h.1s.1 0 .6.2c1.6.6 6.6 2.5 8.9 1.5.5-.2 1.1-.6 1.1-1-.1-.7-1.5-1.2-2.1-1.3-1.3-.2-6.8-.8-8.5-.2-1.9.7-2.6 1.2-2.6 1.2-.1 0-7.9 4-9 7.3-.5 1.5-.3 2 0 2.1.4.3 1.4-.2 1.8-.6.7-.7 4.6-4.5 5.6-5.8.4-.4.7-.9 1.1-1.4.6-.9 1-1.6 1.1-1.6l.2.1c-.5.9-.8 1.5-1.2 1.9zm1.9-1.8z"/><path d="M230.7 164s-6.6 4-7.3 6.1c-.7 2.1 5-3.4 5-3.4l2.6-2.5s-3.1 5.5-3 6.5c.1 1 .7.9 1.5-.9.9-1.7 1.5-4.6 1.6-4.7s.2-1 .2-1 .7 4.8 1.9 5.5 1-.3.8-.9c-.2-.6-2.2-4.8-2.2-4.8s2.9 4.1 3.8 3.8c.9-.3-.8-1.8-1.2-2.2-.3-.3-1.7-2-1.7-2s3.3.6 4.4.2c1-.4-.1-1-1-.9s-3.6.1-4.5.5l-.9.7zM173 185.7c-.6 0-1.1 0-1.5-.1-1.4-.2-1.7-.8-1.7-1.2-.1-1 1.4-2.4 4-3 1.5-.3 3.3-.2 5.1 0-3.4-.8-7.6-1.9-9.5-3-1.9-1.1-1.7-2-1.6-2.4.5-.9 2.4-1.4 4.4-.6 0 0 3 1.3 6 2.7 1.3.6 2.4 1.1 3.2 1.4-1.9-1.3-4.2-3.1-5-3.9-1.9-1.2-4.8-5-5-7.2 0-.5.1-.9.4-1.2 1.5-1.3 4.2.6 6.2 2.3 1.9 1.3 3.8 4.2 5.2 6.5-.7-1.4-1.3-2.8-1.5-3.1-.4-.7-3.6-9.4-2.1-11.3.4-.5.8-.7 1.2-.7.9.1 1.6 1.4 2.5 3.3.1.3.3.5.4.8 1.2 2.3 2 9.2 2.3 12.5.1-3.8.3-12.4 1.2-15 .5-1.6.9-2.3 1.4-2.3.5 0 1 .8 1.6 2 1 2.3-.2 9.8-1.1 13.2-.8 2.9-2.5 5.1-3.2 5.9-.1.1-1.2 1.7-2.6 2.5-1.4 1-6.8 1.9-10.3 1.9zm3.1-4.2c-.8 0-1.5 0-2.2.2-2.4.6-3.9 1.9-3.8 2.8 0 .5.6.9 1.5 1 2.9.4 10.1-.7 11.5-1.5 1.4-.8 2.5-2.4 2.5-2.4v-.1c.7-.8 2.4-2.9 3.2-5.8.9-3.5 2.1-10.9 1.1-13.1-.5-1-.9-1.9-1.4-1.9-.4 0-.8.8-1.3 2.2-1.1 3.3-1.2 16.7-1.2 16.8h-.2c0-.1-.9-11.4-2.5-14.3-.1-.3-.3-.6-.4-.8-.9-1.8-1.6-3.1-2.4-3.2-.3 0-.7.2-1 .6-1.5 1.8 1.7 10.3 2.1 11 .4.8 3 6.4 3.2 6.6l-.2.1c0-.1-3.6-7.5-7-9.8-1.6-1.4-4.5-3.6-6-2.4-.2.2-.3.5-.3 1 .2 1.9 2.8 5.8 4.9 7 1 .9 4 3.3 6.1 4.6 1.7.8 1.7.8 1.7.9 0 .1-.1.1-.2 0-.4-.1-.9-.4-1.5-.8-2.4-1.1-7-3.2-10.3-4.7-1.8-.8-3.7-.4-4.1.5-.3.6.2 1.4 1.5 2.1 2.3 1.4 8.4 2.8 11.9 3.5 1.5.3 2.6.5 2.7.5v.2s-1.1-.2-2.7-.5c-1.5-.1-3.4-.3-5.2-.3z"/><path d="M186 181.2s1.8-2.7 2.2-5.6.4-5.8-.6-4.7-1.6 9-1.6 9-1.4-7.3-2.3-7.3c-.9 0-1.1.6-.4 2.1.7 1.5 1.7 5.3 1.7 5.3s-3.5-4.3-4.7-5c-1.2-.7-2-.8-2.3-.2-.3.6 2.6 3.2 3.9 3.9 1.3.7 2.8 2.3 2.8 2.3s-6.3-1.9-7.2-2.1-2.5-.6-2.2.2c.3.9 8 2.5 8.7 2.7l.4.2s-5-.2-6.5.4c-1.5.6-1 .6-.8 1s6.1.3 7.1-.5c.8-.4 1.4-1 1.8-1.7z"/></svg>