<svg id="Layer_1" data-name="Layer 1" xmlns="http://www.w3.org/2000/svg" viewBox="0 0 152.01 142.9"><defs><style>.cls-1{fill:#231f20;}</style></defs><title>Artboard 1</title><path class="cls-1" d="M133,21.77c-28,15.55-53.6,36-65.4,65.77-7.57-8.89-15.15-24.63-19.42-31-6.33-9.4-21.68-.55-15.29,8.94,10.09,15,19.51,37.74,37,45,4.36,1.8,9.85-2,10.89-6.18C88.84,72,114.21,52.46,142,37.06,151.94,31.53,143,16.23,133,21.77Z"/><polygon points="122.8 123.37 18.31 123.37 18.31 18.88 111.58 18.88 126.05 8.26 7.68 8.26 7.68 134 133.43 134 133.43 56.96 122.8 63.75 122.8 123.37"/></svg>