<?xml version="1.0" encoding="utf-8"?>
<!-- Generator: Adobe Illustrator 21.0.2, SVG Export Plug-In . SVG Version: 6.00 Build 0)  -->
<svg version="1.1" id="Layer_1" xmlns="http://www.w3.org/2000/svg" xmlns:xlink="http://www.w3.org/1999/xlink" x="0px" y="0px"
	 viewBox="0 0 589.5 355.4" style="enable-background:new 0 0 589.5 355.4;" xml:space="preserve">
<style type="text/css">
	.st0{clip-path:url(#SVGID_2_);fill:none;stroke:#FAFDFA;stroke-miterlimit:10;}
	.st1{fill:#D967A7;}
	.st2{fill:#E9E9F5;}
	.st3{fill:#F0DC51;}
	.st4{fill:#6467AF;}
	.st5{fill:#C4CBD6;}
	.st6{clip-path:url(#SVGID_4_);fill:none;stroke:#E5F4F8;stroke-width:0.25;stroke-miterlimit:10;}
	.st7{display:none;}
	.st8{display:inline;}
	.st9{clip-path:url(#SVGID_6_);fill:none;stroke:#F4F8E8;stroke-miterlimit:10;}
	.st10{display:inline;fill:#F0DC51;}
	.st11{display:inline;fill:#6467AF;}
	.st12{clip-path:url(#SVGID_8_);fill:#D4D4D4;}
	.st13{clip-path:url(#SVGID_10_);fill:none;stroke:#D4D4D4;stroke-width:0.25;stroke-miterlimit:10;}
	.st14{fill:#F4F8E8;}
	.st15{display:inline;fill:#F4F8E8;}
	.st16{clip-path:url(#SVGID_12_);fill:none;stroke:#F4F8E8;stroke-miterlimit:10;}
	.st17{display:inline;fill:#7CB7E4;}
	.st18{display:inline;fill:#D967A7;}
	.st19{clip-path:url(#SVGID_14_);fill:#0C0C0C;}
	.st20{clip-path:url(#SVGID_16_);fill:none;stroke:#F4F8E8;stroke-miterlimit:10;}
	.st21{clip-path:url(#SVGID_18_);fill:#0C0C0C;}
	.st22{clip-path:url(#SVGID_20_);fill:none;stroke:#F4F8E8;stroke-miterlimit:10;}
	.st23{display:inline;fill:#141414;}
	.st24{display:inline;fill:#0C0C0C;}
	.st25{clip-path:url(#SVGID_22_);fill:#7CB7E4;}
	.st26{clip-path:url(#SVGID_24_);fill:#C97EB5;}
	.st27{display:inline;fill:#FAFDFF;}
</style>
<g>
	<g>
		<g>
			<defs>
				<rect id="SVGID_1_" x="223" y="114" width="139.4" height="234"/>
			</defs>
			<clipPath id="SVGID_2_">
				<use xlink:href="#SVGID_1_"  style="overflow:visible;"/>
			</clipPath>
			<path class="st0" d="M334.7,346.6h-84.1c-15.8,0-26.3-10.5-26.3-26.3V141.6c0-15.8,10.5-26.3,26.3-26.3h84.1
				c15.8,0,26.3,10.5,26.3,26.3v178.7C361,333.5,350.5,346.6,334.7,346.6"/>
		</g>
	</g>
	<rect x="249.7" y="142.4" class="st1" width="88" height="49.4"/>
	<rect x="249.7" y="199.9" class="st2" width="88" height="49.4"/>
	<polygon class="st3" points="308.9,165.7 298.2,171.9 287.5,178 287.5,165.7 287.5,153.4 298.2,159.5 	"/>
	<polygon class="st4" points="309,226 298.3,232.2 287.6,238.4 287.6,226 287.6,213.7 298.3,219.8 	"/>
	<rect x="250" y="257.5" class="st4" width="88" height="47.7"/>
	<polygon class="st3" points="307.9,281.8 297.2,287.9 286.5,294.1 286.5,281.8 286.5,269.4 297.2,275.6 	"/>
	<polygon class="st5" points="311.2,129 276.4,129 274.6,127.2 274.6,124.7 276.4,122.9 311.2,122.9 313,124.7 313,127.2 	"/>
	<g>
		<g>
			<defs>
				<rect id="SVGID_3_" x="223" y="114" width="139.4" height="234"/>
			</defs>
			<clipPath id="SVGID_4_">
				<use xlink:href="#SVGID_3_"  style="overflow:visible;"/>
			</clipPath>
			<path class="st6" d="M298.3,335.8h-6.1c-2.5,0-4.6-2-4.6-4.6v-6.1c0-2.5,2-4.5,4.6-4.5h6.1c2.5,0,4.6,2,4.6,4.5v6.1
				C302.8,333.8,300.8,335.8,298.3,335.8z"/>
		</g>
	</g>
</g>
<g class="st7">
	<g class="st8">
		<g>
			<defs>
				<rect id="SVGID_5_" x="226" y="19.1" width="452.7" height="326.4"/>
			</defs>
			<clipPath id="SVGID_6_">
				<use xlink:href="#SVGID_5_"  style="overflow:visible;"/>
			</clipPath>
			<path class="st9" d="M337.8,344.1h-84.1c-15.8,0-26.3-10.5-26.3-26.3V139.1c0-15.8,10.5-26.3,26.3-26.3h84.1
				c15.8,0,26.3,10.5,26.3,26.3v178.7C364.1,330.9,353.6,344.1,337.8,344.1z"/>
		</g>
	</g>
	<rect x="251.6" y="145.4" class="st10" width="88" height="54.5"/>
	<rect x="251.6" y="184.3" class="st11" width="88" height="124.7"/>
	<polygon class="st10" points="324.7,241.9 301.1,255.5 277.5,269.2 277.5,241.9 277.5,214.7 301.1,228.3 	"/>
	<g class="st8">
		<g>
			<defs>
				<rect id="SVGID_7_" x="226" y="19.1" width="452.7" height="326.4"/>
			</defs>
			<clipPath id="SVGID_8_">
				<use xlink:href="#SVGID_7_"  style="overflow:visible;"/>
			</clipPath>
			<path class="st12" d="M310.8,132.1H276c-1,0-1.8-0.8-1.8-1.8v-2.5c0-1,0.8-1.8,1.8-1.8h34.8c1,0,1.8,0.8,1.8,1.8v2.5
				C312.6,131.3,311.8,132.1,310.8,132.1"/>
		</g>
		<g>
			<defs>
				<rect id="SVGID_9_" x="226" y="19.1" width="452.7" height="326.4"/>
			</defs>
			<clipPath id="SVGID_10_">
				<use xlink:href="#SVGID_9_"  style="overflow:visible;"/>
			</clipPath>
			<path class="st13" d="M297.2,333.2h-6.1c-2.5,0-4.5-2-4.5-4.5v-6.1c0-2.5,2-4.5,4.5-4.5h6.1c2.5,0,4.5,2,4.5,4.5v6.1
				C301.8,331.2,299.7,333.2,297.2,333.2z"/>
		</g>
	</g>
	<g class="st8">
		<path class="st14" d="M421.6,81.9v30.9h29.7v7.9h-29.7v31.2h-8.4v-31.2h-29.7v-7.9h29.7V81.9H421.6z"/>
	</g>
</g>
<g class="st7">
	<polygon class="st15" points="205.1,295.2 226.5,332.1 188.6,332.1 188.6,346.6 332.3,346.6 332.3,332.1 295.4,332.1 316.8,295.2 
		261.4,272.8 	"/>
	<g class="st8">
		<g>
			<defs>
				<rect id="SVGID_11_" x="42.5" y="42.4" width="500.3" height="305.6"/>
			</defs>
			<clipPath id="SVGID_12_">
				<use xlink:href="#SVGID_11_"  style="overflow:visible;"/>
			</clipPath>
			<path class="st16" d="M57.6,43.7H445c7.8,0,13.6,5.8,13.6,13.6v234.9c0,7.8-5.8,13.6-13.6,13.6H57.6c-7.8,0-13.6-5.8-13.6-13.6
				V57.3C43,49.6,49.8,43.7,57.6,43.7z"/>
		</g>
	</g>
	<rect x="78.3" y="80.4" class="st17" width="337.9" height="22.3"/>
	<rect x="67.7" y="82.3" class="st11" width="91.3" height="139.8"/>
	<rect x="183.2" y="114.4" class="st18" width="233" height="69.9"/>
	<rect x="183.2" y="194" class="st10" width="233" height="60.2"/>
	<g class="st8">
		<g>
			<defs>
				<rect id="SVGID_13_" x="42.5" y="42.4" width="500.3" height="305.6"/>
			</defs>
			<clipPath id="SVGID_14_">
				<use xlink:href="#SVGID_13_"  style="overflow:visible;"/>
			</clipPath>
			<path class="st19" d="M383.8,160.2h114.5c5.8,0,9.7,3.9,9.7,9.7v167c0,5.8-3.9,9.7-9.7,9.7H383.8c-5.8,0-9.7-3.9-9.7-9.7v-167
				C374.1,165.1,378.9,160.2,383.8,160.2"/>
		</g>
		<g>
			<defs>
				<rect id="SVGID_15_" x="42.5" y="42.4" width="500.3" height="305.6"/>
			</defs>
			<clipPath id="SVGID_16_">
				<use xlink:href="#SVGID_15_"  style="overflow:visible;"/>
			</clipPath>
			<path class="st20" d="M383.8,160.2h114.5c5.8,0,9.7,3.9,9.7,9.7v167c0,5.8-3.9,9.7-9.7,9.7H383.8c-5.8,0-9.7-3.9-9.7-9.7v-167
				C374.1,165.1,378.9,160.2,383.8,160.2z"/>
		</g>
	</g>
	<rect x="395.8" y="183.3" class="st18" width="91.5" height="47.6"/>
	<rect x="395.8" y="243.2" class="st10" width="91.5" height="47.6"/>
	<rect x="395.8" y="302.4" class="st11" width="84.5" height="14.6"/>
	<g class="st8">
		<g>
			<defs>
				<rect id="SVGID_17_" x="42.5" y="42.4" width="500.3" height="305.6"/>
			</defs>
			<clipPath id="SVGID_18_">
				<use xlink:href="#SVGID_17_"  style="overflow:visible;"/>
			</clipPath>
			<path class="st21" d="M541.5,305.3v31c0,5.8-3.9,9.7-9.7,9.7h-66c-5.8,0-9.7-3.9-9.7-9.7v-31c0-5.8,3.9-9.7,9.7-9.7h66
				C536.6,295.6,541.5,299.5,541.5,305.3"/>
		</g>
		<g>
			<defs>
				<rect id="SVGID_19_" x="42.5" y="42.4" width="500.3" height="305.6"/>
			</defs>
			<clipPath id="SVGID_20_">
				<use xlink:href="#SVGID_19_"  style="overflow:visible;"/>
			</clipPath>
			<path class="st22" d="M541.5,305.3v31c0,5.8-3.9,9.7-9.7,9.7h-66c-5.8,0-9.7-3.9-9.7-9.7v-31c0-5.8,3.9-9.7,9.7-9.7h66
				C536.6,295.6,541.5,299.5,541.5,305.3z"/>
		</g>
	</g>
	<rect x="457" y="269.4" class="st23" width="63.1" height="37.9"/>
	<rect x="463.8" y="275.2" class="st18" width="50.5" height="26.2"/>
	<rect x="187.5" y="268.5" class="st24" width="142.5" height="34.3"/>
</g>
<g class="st7">
	<g class="st8">
		<g>
			<defs>
				<rect id="SVGID_21_" x="142.1" y="102.4" width="301.1" height="241.9"/>
			</defs>
			<clipPath id="SVGID_22_">
				<use xlink:href="#SVGID_21_"  style="overflow:visible;"/>
			</clipPath>
			<path class="st25" d="M171.9,341.1c-9.3,6.2-21.8,3.1-28-6.2c-4.7-10.1,0-22.5,10.1-27.2C161,317.8,167.2,329.4,171.9,341.1"/>
		</g>
		<g>
			<defs>
				<rect id="SVGID_23_" x="142.1" y="102.4" width="301.1" height="241.9"/>
			</defs>
			<clipPath id="SVGID_24_">
				<use xlink:href="#SVGID_23_"  style="overflow:visible;"/>
			</clipPath>
			<path class="st26" d="M386.5,182.5l17.9,33.4c9.3-4.7,12.4-16.3,7.8-25.7C407.5,180.9,395.8,177.8,386.5,182.5"/>
		</g>
	</g>
	<polygon class="st27" points="335.2,102.4 294,151.4 234.9,220.6 163.3,304.5 178.1,334.1 288.5,321.6 379.5,310.8 443.2,303 
		389.6,202.7 	"/>
</g>
</svg>
