<svg xmlns="http://www.w3.org/2000/svg" xmlns:xlink="http://www.w3.org/1999/xlink" viewBox="0 0 601.42 233.32"><defs><style>.cls-1,.cls-2,.cls-3,.cls-4,.cls-5{stroke:#000;stroke-miterlimit:10;}.cls-1{fill:url(#Dégradé_sans_nom_131);}.cls-2{fill:url(#Dégradé_sans_nom_152);}.cls-3{fill:url(#Dégradé_sans_nom_121);}.cls-4{fill:url(#Dégradé_sans_nom_124);}.cls-5{fill:url(#Dégradé_sans_nom_152-2);}.cls-6{fill:url(#Dégradé_sans_nom_131-2);}</style><linearGradient id="Dégradé_sans_nom_131" x1="225.87" y1="303.95" x2="216.27" y2="247.35" gradientTransform="translate(355.29 -314.04) rotate(39.26)" gradientUnits="userSpaceOnUse"><stop offset="0" stop-color="#9fbf00"/><stop offset="0.53" stop-color="#feffc3"/><stop offset="1" stop-color="#ffe82c"/></linearGradient><linearGradient id="Dégradé_sans_nom_152" x1="72.79" y1="88.52" x2="14.02" y2="-5.4" gradientTransform="translate(228.81 94.3) rotate(88.87)" gradientUnits="userSpaceOnUse"><stop offset="0" stop-color="#feff2a"/><stop offset="0.54" stop-color="#ebefff"/><stop offset="1" stop-color="#f3a0ed"/></linearGradient><linearGradient id="Dégradé_sans_nom_121" x1="-202.36" y1="75.62" x2="-260.49" y2="16.2" gradientTransform="translate(515.74 363.9) rotate(112.96)" gradientUnits="userSpaceOnUse"><stop offset="0" stop-color="#97dbff"/><stop offset="1" stop-color="#ffe896"/></linearGradient><linearGradient id="Dégradé_sans_nom_124" x1="-208.62" y1="712.05" x2="-200.32" y2="743.41" gradientTransform="translate(-332.03 450.66) rotate(-126.04)" gradientUnits="userSpaceOnUse"><stop offset="0" stop-color="#9fbf00"/><stop offset="0.53" stop-color="#feffa1"/><stop offset="1" stop-color="#ffe82c"/></linearGradient><linearGradient id="Dégradé_sans_nom_152-2" x1="124.03" y1="71.88" x2="93.79" y2="23.56" gradientTransform="matrix(0.59, -0.81, 0.81, 0.59, 245.49, 258.09)" xlink:href="#Dégradé_sans_nom_152"/><linearGradient id="Dégradé_sans_nom_131-2" x1="293.76" y1="532.65" x2="285.56" y2="484.26" gradientTransform="translate(-452 503.96) rotate(-94.84)" xlink:href="#Dégradé_sans_nom_131"/></defs><title>Fichier 3</title><g id="Calque_2" data-name="Calque 2"><g id="Calque_1-2" data-name="Calque 1"><path d="M137.92,155.63V117H180.4v38.62h24.46v34.76H180.4V230H137.92V190.39H52.44V159.75l56.9-109.94h44L99.82,155.63Z"/><path d="M378.65,139.67c0,59-28.58,91.66-79.56,91.66-51.49,0-80.07-32.7-80.07-91.66,0-58.7,28.58-91.4,80.07-91.4C350.07,48.27,378.65,81,378.65,139.67Zm-112.51,0c0,41.19,9.78,58.19,33,58.19,22.66,0,32.7-17,32.7-58.19s-10-57.93-32.7-57.93C275.92,81.74,266.14,98.48,266.14,139.67Z"/><path d="M481.89,155.63V117h42.48v38.62h24.46v34.76H524.37V230H481.89V190.39H396.41V159.75l56.9-109.94h44L443.78,155.63Z"/><path class="cls-1" d="M334.52,64.66S321.91,61.95,308.38,42c-15-22.8-8.23-30-5.52-28s12.64,13.31,19,24.55a96.47,96.47,0,0,1,9,21.48s-9.11-33.39-7.37-49.37S338.17-.65,340.66,12s-4,40.93-4.93,45.28S342.23,39,351.73,26s18-18.42,22.56-13.54S367.7,31,359.36,43.21a149.73,149.73,0,0,1-16.81,20.57s43.15-28.63,51.29-27.71,10.81,4.14,5.32,9.06S368.06,64,360.88,65.83s-9.82,1.43-9.82,1.43,35.85-6.42,41.69-3.85,9.29,5.54,6.43,8.49-14.83,4.26-19,3.38-21.07-3.92-33.1-6.49C338.76,66.15,334.52,64.66,334.52,64.66Z"/><path d="M336.44,65.32c-1-.35-6.64-1.19-13.64-7.51s-11.13-20-9.1-18.54,3.67,2.17,8.09,9.7a46,46,0,0,0,9.57,11.67s-2.28-27-.51-27.57,3.73,1.11,4.23,13.74-.27,12.85-.43,14.13S346,38.63,351.3,38.23s0,10.39-2.62,13.25-8.74,13.78-8.74,13.78,19.29-11.33,21.94-9-.64,3.59-1.57,4.75-12.43,6.2-12.43,6.2,15.23-.38,14.51,1.46S356.67,71,354,70.34,336.44,65.32,336.44,65.32Z"/><path class="cls-2" d="M168.52,159.21s22.35,14.73,46.81,19.9,31.8,6.59,29.26,1.19-25.64-18.5-38.44-21.82-37.22-5.1-37.22-5.1,36.05,5.16,48.41,3.72,30.18-3.64,33-6.43,6.57-6.54-3.83-9.17-38.59-1.06-43.25-.76-35.66,9.74-35.12,8.36S218,140.65,233,125.91c8.41-5.81,12.6-8.8,14.14-13.78-1.94-5.53-21.4-4.39-29.24-.34S173.2,134,168.68,140.51s27.5-26.94,35.57-39.74,12.19-20.07,8.23-25.21c-6-5-23.29,8.4-27.52,17.82s-19,32.54-22.52,47.24,6.67-36.74,4.72-50.42-6.94-16.39-13.09-10.65c-9.61,11.78,1.67,54.36,4.11,63.67C163.77,152.08,168.52,159.21,168.52,159.21Z"/><path d="M158.17,143.24s-3.47-27.08-1.33-31.47,4-3.16,4.76,3.7.9,27.69.9,27.69,9.27-18.45,17.2-28.27,8.44-4.57,7.82-1.57-19.7,28.34-19.7,28.34,16.93-10.87,23.53-12.33,11.82-1.88,10.63,1.41-23,15-27.28,16.61a39.71,39.71,0,0,1-5.34,1.78s19.2-3.56,27.48-2.4,10.38,4.73,7.29,6-30.78,2.27-34.68.68c0,0,17.89,5.52,23,9.64s7,5.22,4.86,6.11-9.74.18-16.91-3.11a64,64,0,0,1-12.21-7.35Z"/><path class="cls-3" d="M514.37,140.31c.1.25,4.44,13.68,15.4,23.87s36.51,29.75,46.89,30.47,15.17-.19,4.67-11-60.61-38.45-60.61-38.45,44.33,19.5,58.52,19.65S604,166.2,600.1,156.9s-42.17-14.72-46-14.77-31.05-1.42-31.05-1.42,35.28,1.86,50.93-6.29c9.59-3.59,22.76-9.95,21-18s-29.34-5.42-40,.87c-6.55,2.36-30.32,12.71-35.33,17.61s44.19-33.32,44.19-33.32c11.3-9.29,10.28-25.26-4.95-15.84-14.26,8.82-44.68,46.56-44.68,46.56s18.83-20.85,23.94-36.38c4.23-15.91-2.88-27.41-10.4-16.67s-17.77,39.4-17.61,46.44S514.37,140.31,514.37,140.31Z"/><path d="M515,142.11s6.5,12.3,16.38,19.63,21.05,13.11,18.75,7.42S519.5,145,519.5,145s30.18,9.48,32.08,6-.12-5.18-7.24-5.69-23.1-4.41-23.1-4.41,23.13-4.27,28.06-7.53,6.86-5.89,5.23-8.37-17.32,3.14-22.67,6.69-14,5.73-14,5.73,20-19.7,22.36-22.69,7.53-8.23,3.65-8.62S518.22,131,516.11,133.06l-1.5,1.24s10.87-18.44,11.63-25.14-.3-5.05-2-4.74S511,126.57,511.71,132A30.81,30.81,0,0,0,515,142.11Z"/><path class="cls-4" d="M366.5,201.3s17.33,11,25.46,9.29,3.27-5.07,1.11-5.77-14.45-3.72-18.14-4.31a77.75,77.75,0,0,0-8.68-.7s17,1.37,23.25-1.45,6.35-4.18,4.08-5.87-13.73.89-15.74,1.15-12.12,5.44-12.12,5.44,14.95-6.53,17.21-14.17c0,0,4.31-8-1-7.76-4.21,1.15-10.61,9-12.29,11.29s-4.85,10.48-5.17,10,9.69-18.61,6.54-24-5-.6-5.36,1.48-2.46,20.48-2.69,20.18-2.21-17-7.77-21.05-4.66,3.12-3.85,5.09,6.25,14.53,9.77,17.36C364.79,200.25,366.5,201.3,366.5,201.3Z"/><path d="M365.75,200.66S381.59,209,386.49,208s-12.64-5.89-12.64-5.89l-8-2.32s14.79-.33,16.62-1.66,1-2.38-3.48-2-10.91,2.39-11.27,2.31a9.65,9.65,0,0,0-2.28.81s8.75-7,8.82-10.33-1.76-1.61-2.79-.43-7,10-7,10,4.73-10.64,3.19-12.12-2.68,3.83-3,4.89-2,5.76-2,5.76-2.79-7.31-4.77-9-1.77,1.31-.63,3,4.45,7.2,6.45,8.42Z"/><path class="cls-5" d="M362.57,195.61s-4.59-13-13-22.7-11-12.58-11.63-9.57,4.77,15.55,9,20.89,13.68,13.65,13.68,13.65-13.19-13.31-18.7-16.56-13.51-7.88-15.52-7.6-4.73.64-1.27,5,15.5,12.42,17.51,13.74,17.65,7.08,17,7.48-23.11-12-33.81-10.63c-5.26-.23-7.9-.3-10.08,1.26-.92,2.87,7.42,8.45,11.89,9.22s25.23,4.75,29.1,3.49-19.65,2.51-26.93,5.25-11.23,4.45-11.2,7.78c.9,3.91,12.16,3.79,16.82,1.23s17.9-7.45,23.91-12.38-14.15,13-17.59,19.22-2.24,8.88,2.07,8.43c7.6-1.85,16.2-22.82,18.09-27.39C362.3,200,362.57,195.61,362.57,195.61Z"/><path d="M361.85,205.38s-7,12.19-9.23,13.32-2.61.06-.8-3,8.23-11.63,8.23-11.63-9.53,4.69-15.83,6.26-4.88-.75-3.7-1.78S357.4,203,357.4,203s-10.32-.8-13.48-2.25-5.44-2.9-3.92-3.88,14.11,1,16.35,1.66a20.43,20.43,0,0,1,2.75.93s-9-4.5-12-7.55-2.79-5.16-1.14-4.71,13.33,8.63,14.44,10.49c0,0-5.62-7.82-6.43-11.09s-1.25-4.32-.1-4,4.05,3,6,6.53a32.93,32.93,0,0,1,2.73,6.81Z"/><path class="cls-6" d="M56.15,168s5.84,9.35,1.64,29.53c-5.05,22.79-13.54,22.92-13.88,20s.65-15.68,3.74-26.29A82.48,82.48,0,0,1,55.49,173s-15.07,25.46-25.92,33.9-15.68-2.24-9.4-11.29,27.52-21.89,30.73-23.92-15.07,6.87-28.73,8.8-22-.1-21.74-5.79,15.28-7,27.77-9.15a128,128,0,0,1,22.63-1.92s-43.25-9.45-47.53-15-3.9-9.1,2.39-8.66,30.1,7.86,35.49,11.18,6.72,5.18,6.72,5.18S22.63,138.15,20.73,133s-2.13-9,1.39-9,11.44,6.57,13.39,9.67S45.64,149,51.22,157.88C54.55,164.55,56.15,168,56.15,168Z"/><path d="M33.93,131.13a15.61,15.61,0,0,1,1.94,2.34c.7,1.11,2.19,3.37,4.08,6.24,3.4,5.15,8,12.21,11.63,17.94,3.17,6.35,4.8,9.86,4.95,10.19.4.65,5.8,10,1.68,29.82-3.86,17.41-9.82,21.81-12.74,21.66a1.94,1.94,0,0,1-2-1.68c-.33-2.8.58-15.53,3.76-26.46a84.27,84.27,0,0,1,3.69-10.13c-5.37,8.25-14.14,20.76-21.11,26.18-6.35,4.94-9.76,2.9-10.93,1.79-2.91-2.73-2.5-8.75.91-13.66,3.74-5.4,13.12-12.85,27.89-22.18-5.73,2.28-16.5,6.46-25.47,7.72-10.18,1.43-17.48.67-20.55-2.15A5,5,0,0,1,0,174.68c.27-5.12,10.82-6.78,22-8.54,2.06-.33,4.13-.65,6.13-1a135.25,135.25,0,0,1,19-1.89C36.56,160.82,6.59,153.62,3,148.89c-2.58-3.34-3.47-6-2.59-7.62.72-1.35,2.52-1.93,5.35-1.73,5.45.38,22.41,5.49,31.26,9.14-7.2-5.59-15.56-12.56-16.66-15.5-1.53-4.12-1.79-7-.77-8.42a2.91,2.91,0,0,1,2.56-1.16C25.08,123.6,30.73,127.82,33.93,131.13Zm10.67,87a1.35,1.35,0,0,0,.92.37c2.46.12,8.11-4.1,11.86-21,4.11-19.78-1.53-29.12-1.59-29.21l0,0s-1.64-3.57-4.93-10.15c-3.56-5.68-8.21-12.74-11.6-17.89-1.89-2.88-3.39-5.15-4.09-6.26-2-3.21-9.78-9.47-13-9.47a2.09,2.09,0,0,0-1.86.8c-.58.84-.9,2.85.87,7.63,1.17,3.15,11.73,11.6,19.29,17.36.37.19.7.38,1,.55,5.4,3.33,6.79,5.21,6.84,5.29l1.52,2.12-2.11-1.52c-.36-.26-3.59-2.59-7.72-5.73-6.72-3.43-28.25-10.13-34.27-10.55-2.43-.17-4,.27-4.54,1.28-.7,1.3.19,3.68,2.51,6.69,4.16,5.35,46.85,14.75,47.28,14.85l-.1.85A128.72,128.72,0,0,0,28.27,166c-2,.35-4.08.68-6.15,1-10.34,1.63-21,3.32-21.27,7.74a4.16,4.16,0,0,0,1.39,3.41c2.89,2.64,9.94,3.33,19.86,1.93,9.3-1.31,20.63-5.82,26.07-8,3.25-1.3,3.25-1.29,3.47-.87s-.19.63-.52.84l-.89.56c-15.87,9.87-25.87,17.69-29.72,23.24-3.55,5.11-3.31,10.41-1,12.55s5.71,1.35,9.82-1.85C39.39,198.72,53.37,175.71,55,173l.15-.26.73.44-.16.26a83.91,83.91,0,0,0-7.63,17.95c-3,10.37-4.07,23.23-3.73,26.12A1,1,0,0,0,44.6,218.1Z"/><path d="M55.41,166.47c.38.82,3.22,4.78,3.5,12.85s-5.66,18.74-6,16.62-.85-3.54,1.14-10.74a39.31,39.31,0,0,0,1.47-12.82s-15.21,17.46-16.62,16.72-1.54-2.95,5.92-10.77,8.05-7.48,8.94-8.14-20.44,6.31-23.85,3.29,6.38-6.18,9.69-6.28,13.66-2.84,13.66-2.84-18.44-5.1-18.59-8.1,2.59-1.75,3.85-1.86,11.21,3.94,11.21,3.94-9.29-9.12-7.74-9.78,4.85,2.11,6,4.17S55.41,166.47,55.41,166.47Z"/></g></g></svg>